<svg id="Layer_1" data-name="Layer 1" xmlns="http://www.w3.org/2000/svg" xmlns:xlink="http://www.w3.org/1999/xlink" viewBox="0 0 1024 1024"><defs><style>.cls-1{fill:none;}.cls-2{clip-path:url(#clip-path);}.cls-3{opacity:0.25;}.cls-10,.cls-11,.cls-12,.cls-13,.cls-14,.cls-15,.cls-16,.cls-17,.cls-18,.cls-19,.cls-20,.cls-21,.cls-22,.cls-23,.cls-24,.cls-25,.cls-26,.cls-27,.cls-28,.cls-29,.cls-4,.cls-5,.cls-6,.cls-7,.cls-8,.cls-9{fill-rule:evenodd;}.cls-5{fill:url(#linear-gradient);}.cls-6{fill:url(#linear-gradient-2);}.cls-7{fill:url(#linear-gradient-3);}.cls-8{fill:url(#linear-gradient-4);}.cls-9{fill:url(#linear-gradient-5);}.cls-10{fill:url(#linear-gradient-6);}.cls-11{fill:url(#linear-gradient-7);}.cls-12{fill:url(#linear-gradient-8);}.cls-13{fill:url(#linear-gradient-9);}.cls-14{fill:url(#linear-gradient-10);}.cls-15{fill:url(#linear-gradient-11);}.cls-16{fill:url(#linear-gradient-12);}.cls-17{fill:url(#linear-gradient-13);}.cls-18{fill:url(#linear-gradient-14);}.cls-19{fill:url(#linear-gradient-15);}.cls-20{fill:url(#linear-gradient-16);}.cls-21{fill:url(#linear-gradient-17);}.cls-22{fill:url(#linear-gradient-18);}.cls-23{fill:url(#linear-gradient-19);}.cls-24{fill:url(#linear-gradient-20);}.cls-25{fill:url(#linear-gradient-21);}.cls-26{fill:url(#linear-gradient-22);}.cls-27{fill:url(#linear-gradient-23);}.cls-28{fill:url(#linear-gradient-24);}.cls-29{fill:url(#linear-gradient-25);}</style><clipPath id="clip-path"><rect class="cls-1" width="1024" height="1024"/></clipPath><linearGradient id="linear-gradient" x1="467.45" y1="467.45" x2="556.55" y2="556.55" gradientUnits="userSpaceOnUse"><stop offset="0" stop-color="#222632"/><stop offset="0.32" stop-color="#222632" stop-opacity="0.94"/><stop offset="0.58" stop-color="#222632" stop-opacity="0.74"/><stop offset="0.81" stop-color="#222632" stop-opacity="0.4"/><stop offset="1" stop-color="#222632" stop-opacity="0"/></linearGradient><linearGradient id="linear-gradient-2" x1="503.45" y1="520.45" x2="592.55" y2="609.55" xlink:href="#linear-gradient"/><linearGradient id="linear-gradient-3" x1="539.45" y1="573.45" x2="628.55" y2="662.55" xlink:href="#linear-gradient"/><linearGradient id="linear-gradient-4" x1="575.45" y1="626.45" x2="664.55" y2="715.55" xlink:href="#linear-gradient"/><linearGradient id="linear-gradient-5" x1="611.45" y1="679.45" x2="700.55" y2="768.55" xlink:href="#linear-gradient"/><linearGradient id="linear-gradient-6" x1="647.45" y1="732.45" x2="736.55" y2="821.55" xlink:href="#linear-gradient"/><linearGradient id="linear-gradient-7" x1="683.45" y1="785.45" x2="772.55" y2="874.55" xlink:href="#linear-gradient"/><linearGradient id="linear-gradient-8" x1="719.45" y1="838.45" x2="808.55" y2="927.55" xlink:href="#linear-gradient"/><linearGradient id="linear-gradient-9" x1="755.45" y1="891.45" x2="844.55" y2="980.55" xlink:href="#linear-gradient"/><linearGradient id="linear-gradient-10" x1="791.45" y1="944.45" x2="880.55" y2="1033.55" xlink:href="#linear-gradient"/><linearGradient id="linear-gradient-11" x1="827.45" y1="997.45" x2="916.55" y2="1086.55" xlink:href="#linear-gradient"/><linearGradient id="linear-gradient-12" x1="863.45" y1="1050.45" x2="952.55" y2="1139.55" xlink:href="#linear-gradient"/><linearGradient id="linear-gradient-13" x1="899.45" y1="1103.45" x2="988.55" y2="1192.55" xlink:href="#linear-gradient"/><linearGradient id="linear-gradient-14" x1="431.45" y1="414.45" x2="520.55" y2="503.55" xlink:href="#linear-gradient"/><linearGradient id="linear-gradient-15" x1="395.45" y1="361.45" x2="484.55" y2="450.55" xlink:href="#linear-gradient"/><linearGradient id="linear-gradient-16" x1="359.45" y1="308.45" x2="448.55" y2="397.55" xlink:href="#linear-gradient"/><linearGradient id="linear-gradient-17" x1="323.45" y1="255.45" x2="412.55" y2="344.55" xlink:href="#linear-gradient"/><linearGradient id="linear-gradient-18" x1="287.45" y1="202.45" x2="376.55" y2="291.55" xlink:href="#linear-gradient"/><linearGradient id="linear-gradient-19" x1="251.45" y1="149.45" x2="340.55" y2="238.55" xlink:href="#linear-gradient"/><linearGradient id="linear-gradient-20" x1="215.45" y1="96.45" x2="304.55" y2="185.55" xlink:href="#linear-gradient"/><linearGradient id="linear-gradient-21" x1="179.45" y1="43.45" x2="268.55" y2="132.55" xlink:href="#linear-gradient"/><linearGradient id="linear-gradient-22" x1="143.45" y1="-9.55" x2="232.55" y2="79.55" xlink:href="#linear-gradient"/><linearGradient id="linear-gradient-23" x1="107.45" y1="-62.55" x2="196.55" y2="26.55" xlink:href="#linear-gradient"/><linearGradient id="linear-gradient-24" x1="71.45" y1="-115.55" x2="160.55" y2="-26.45" xlink:href="#linear-gradient"/><linearGradient id="linear-gradient-25" x1="35.45" y1="-168.55" x2="124.55" y2="-79.45" xlink:href="#linear-gradient"/></defs><title>Artboard 1</title><g class="cls-2"><g class="cls-3"><path class="cls-4" d="M1045.82-21.82l0,0,6.36,23.34L958.84-23.94l25.44,93.36L891,44,916.4,137.3l-93.32-25.47,25.44,93.35-93.33-25.47,25.44,93.35-93.32-25.47L712.75,341l-93.32-25.48,25.44,93.36-93.32-25.47L577,476.71l-93.32-25.47,25.44,93.35-93.33-25.47,25.44,93.36L347.9,587l25.44,93.36L280,654.89l25.44,93.35-93.32-25.47,25.44,93.35-93.33-25.47L169.69,884,76.37,858.53l25.44,93.36L8.49,926.41l25.44,93.36L-59.39,994.3l19.09,70,8.48-8.48,0,0-6.36-23.34,93.32,25.48L29.72,964.58,123,990.05,97.6,896.7l93.32,25.47-25.44-93.35,93.33,25.47-25.44-93.35,93.32,25.47-25.44-93.36,93.32,25.48-25.44-93.36,93.32,25.47L437,557.29l93.32,25.47-25.44-93.35,93.33,25.47-25.44-93.36L666.1,447l-25.44-93.36L734,379.11l-25.44-93.35,93.32,25.47-25.44-93.35,93.33,25.47L844.31,150l93.32,25.47L912.19,82.11l93.32,25.48L980.07,14.23l93.32,25.47-19.09-70ZM40.29,1043.1l-81.63-22.28-3.19-11.69,81.64,22.28Zm67.89-67.88L26.54,952.94l-3.18-11.69L105,963.53Zm67.88-67.88L94.43,885.06l-3.19-11.69,81.63,22.28Zm67.88-67.88-81.63-22.29-3.19-11.69,81.63,22.29Zm67.88-67.89-81.63-22.28L227,737.6l81.63,22.29Zm67.88-67.88-81.63-22.28-3.19-11.69L376.52,692Zm67.89-67.88L366,613.53l-3.18-11.69,81.63,22.28Zm67.88-67.88-81.63-22.29L430.65,534l81.63,22.29Zm67.88-67.88-81.63-22.29-3.19-11.69,81.63,22.29Zm67.88-67.89L569.6,409.88l-3.19-11.69,81.64,22.28Zm67.89-67.88L637.48,342l-3.18-11.69,81.63,22.28ZM787,296.4l-81.63-22.29-3.19-11.68,81.63,22.28Zm67.88-67.88-81.63-22.29-3.19-11.69,81.63,22.29Zm67.88-67.89-81.63-22.28-3.19-11.69,81.63,22.28Zm67.88-67.88L909,70.47l-3.19-11.69,81.64,22.28Zm67.89-67.88L976.89,2.59,973.71-9.1l81.63,22.28Z"/></g><path class="cls-5" d="M1050.82-26.82l0,0,6.36,23.34L963.84-28.94l25.44,93.36L896,39,921.4,132.3l-93.32-25.47,25.44,93.35-93.33-25.47,25.44,93.35-93.32-25.47L717.75,336l-93.32-25.48,25.44,93.36-93.32-25.47L582,471.71l-93.32-25.47,25.44,93.35-93.33-25.47,25.44,93.36L352.9,582l25.44,93.36L285,649.89l25.44,93.35-93.32-25.47,25.44,93.35-93.33-25.47L174.69,879,81.37,853.53l25.44,93.36L13.49,921.41l25.44,93.36L-54.39,989.3l19.09,70,8.48-8.48,0,0-6.36-23.34,93.32,25.48L34.72,959.58,128,985.05,102.6,891.7l93.32,25.47-25.44-93.35,93.33,25.47-25.44-93.35,93.32,25.47-25.44-93.36,93.32,25.48-25.44-93.36,93.32,25.47L442,552.29l93.32,25.47-25.44-93.35,93.33,25.47-25.44-93.36L671.1,442l-25.44-93.36L739,374.11l-25.44-93.35,93.32,25.47-25.44-93.35,93.33,25.47L849.31,145l93.32,25.47L917.19,77.11l93.32,25.48L985.07,9.23l93.32,25.47-19.09-70ZM45.29,1038.1l-81.63-22.28-3.19-11.69,81.64,22.28Zm67.89-67.88L31.54,947.94l-3.18-11.69L110,958.53Zm67.88-67.88L99.43,880.06l-3.19-11.69,81.63,22.28Zm67.88-67.88-81.63-22.29-3.19-11.69,81.63,22.29Zm67.88-67.89-81.63-22.28L232,732.6l81.63,22.29Zm67.88-67.88-81.63-22.28-3.19-11.69L381.52,687Zm67.89-67.88L371,608.53l-3.18-11.69,81.63,22.28Zm67.88-67.88-81.63-22.29L435.65,529l81.63,22.29Zm67.88-67.88-81.63-22.29-3.19-11.69,81.63,22.29Zm67.88-67.89L574.6,404.88l-3.19-11.69,81.64,22.28Zm67.89-67.88L642.48,337l-3.18-11.69,81.63,22.28ZM792,291.4l-81.63-22.29-3.19-11.68,81.63,22.28Zm67.88-67.88-81.63-22.29-3.19-11.69,81.63,22.29Zm67.88-67.89-81.63-22.28-3.19-11.69,81.63,22.28Zm67.88-67.88L914,65.47l-3.19-11.69,81.64,22.28Zm67.89-67.88L981.89-2.41,978.71-14.1l81.63,22.28Z"/><g class="cls-3"><path class="cls-4" d="M1081.82,31.18l0,0,6.36,23.34L994.84,29.06l25.44,93.36L927,97,952.4,190.3l-93.32-25.47,25.44,93.35-93.33-25.47,25.44,93.35-93.32-25.47L748.75,394l-93.32-25.48,25.44,93.36-93.32-25.47L613,529.71l-93.32-25.47,25.44,93.35-93.33-25.47,25.44,93.36L383.9,640l25.44,93.36L316,707.89l25.44,93.35-93.32-25.47,25.44,93.35-93.33-25.47L205.69,937l-93.32-25.47,25.44,93.36L44.49,979.41l25.44,93.36-93.32-25.47,19.09,70,8.48-8.48,0,0-6.36-23.34,93.32,25.48-25.44-93.36L159,1043.05,133.6,949.7l93.32,25.47-25.44-93.35,93.33,25.47-25.44-93.35,93.32,25.47-25.44-93.36,93.32,25.48-25.44-93.36,93.32,25.47L473,610.29l93.32,25.47-25.44-93.35,93.33,25.47-25.44-93.36L702.1,500l-25.44-93.36L770,432.11l-25.44-93.35,93.32,25.47-25.44-93.35,93.33,25.47L880.31,203l93.32,25.47-25.44-93.36,93.32,25.48-25.44-93.36,93.32,25.47-19.09-70ZM76.29,1096.1l-81.63-22.28-3.19-11.69,81.64,22.28Zm67.89-67.88-81.64-22.28-3.18-11.69L141,1016.53Zm67.88-67.88-81.63-22.28-3.19-11.69,81.63,22.28Zm67.88-67.88-81.63-22.29-3.19-11.69,81.63,22.29Zm67.88-67.89-81.63-22.28L263,790.6l81.63,22.29Zm67.88-67.88-81.63-22.28-3.19-11.69L412.52,745Zm67.89-67.88L402,666.53l-3.18-11.69,81.63,22.28Zm67.88-67.88-81.63-22.29L466.65,587l81.63,22.29Zm67.88-67.88-81.63-22.29-3.19-11.69,81.63,22.29Zm67.88-67.89L605.6,462.88l-3.19-11.69,81.64,22.28Zm67.89-67.88L673.48,395l-3.18-11.69,81.63,22.28ZM823,349.4l-81.63-22.29-3.19-11.68,81.63,22.28Zm67.88-67.88-81.63-22.29-3.19-11.69,81.63,22.29Zm67.88-67.89-81.63-22.28-3.19-11.69,81.63,22.28Zm67.88-67.88L945,123.47l-3.19-11.69,81.64,22.28Zm67.89-67.88-81.64-22.28-3.18-11.69,81.63,22.28Z"/></g><path class="cls-6" d="M1086.82,26.18l0,0,6.36,23.34L999.84,24.06l25.44,93.36L932,92,957.4,185.3l-93.32-25.47,25.44,93.35-93.33-25.47,25.44,93.35-93.32-25.47L753.75,389l-93.32-25.48,25.44,93.36-93.32-25.47L618,524.71l-93.32-25.47,25.44,93.35-93.33-25.47,25.44,93.36L388.9,635l25.44,93.36L321,702.89l25.44,93.35-93.32-25.47,25.44,93.35-93.33-25.47L210.69,932l-93.32-25.47,25.44,93.36L49.49,974.41l25.44,93.36-93.32-25.47,19.09,70,8.48-8.48,0,0-6.36-23.34,93.32,25.48-25.44-93.36L164,1038.05,138.6,944.7l93.32,25.47-25.44-93.35,93.33,25.47-25.44-93.35,93.32,25.47-25.44-93.36,93.32,25.48-25.44-93.36,93.32,25.47L478,605.29l93.32,25.47-25.44-93.35,93.33,25.47-25.44-93.36L707.1,495l-25.44-93.36L775,427.11l-25.44-93.35,93.32,25.47-25.44-93.35,93.33,25.47L885.31,198l93.32,25.47-25.44-93.36,93.32,25.48-25.44-93.36,93.32,25.47-19.09-70ZM81.29,1091.1-.34,1068.82l-3.19-11.69,81.64,22.28Zm67.89-67.88-81.64-22.28-3.18-11.69L146,1011.53Zm67.88-67.88-81.63-22.28-3.19-11.69,81.63,22.28Zm67.88-67.88-81.63-22.29-3.19-11.69,81.63,22.29Zm67.88-67.89-81.63-22.28L268,785.6l81.63,22.29Zm67.88-67.88-81.63-22.28-3.19-11.69L417.52,740Zm67.89-67.88L407,661.53l-3.18-11.69,81.63,22.28Zm67.88-67.88-81.63-22.29L471.65,582l81.63,22.29Zm67.88-67.88-81.63-22.29-3.19-11.69,81.63,22.29Zm67.88-67.89L610.6,457.88l-3.19-11.69,81.64,22.28Zm67.89-67.88L678.48,390l-3.18-11.69,81.63,22.28ZM828,344.4l-81.63-22.29-3.19-11.68,81.63,22.28Zm67.88-67.88-81.63-22.29-3.19-11.69,81.63,22.29Zm67.88-67.89-81.63-22.28-3.19-11.69,81.63,22.28Zm67.88-67.88L950,118.47l-3.19-11.69,81.64,22.28Zm67.89-67.88-81.64-22.28-3.18-11.69,81.63,22.28Z"/><g class="cls-3"><path class="cls-4" d="M1117.82,84.18l0,0,6.36,23.34-93.32-25.48,25.44,93.36L963,150,988.4,243.3l-93.32-25.47,25.44,93.35-93.33-25.47,25.44,93.35-93.32-25.47L784.75,447l-93.32-25.48,25.44,93.36-93.32-25.47L649,582.71l-93.32-25.47,25.44,93.35-93.33-25.47,25.44,93.36L419.9,693l25.44,93.36L352,760.89l25.44,93.35-93.32-25.47,25.44,93.35-93.33-25.47L241.69,990l-93.32-25.47,25.44,93.36-93.32-25.48,25.44,93.36L12.61,1100.3l19.09,70,8.48-8.48,0,0-6.36-23.34,93.32,25.48-25.44-93.36L195,1096.05,169.6,1002.7l93.32,25.47-25.44-93.35,93.33,25.47-25.44-93.35,93.32,25.47-25.44-93.36,93.32,25.48-25.44-93.36,93.32,25.47L509,663.29l93.32,25.47-25.44-93.35,93.33,25.47-25.44-93.36L738.1,553l-25.44-93.36L806,485.11l-25.44-93.35,93.32,25.47-25.44-93.35,93.33,25.47L916.31,256l93.32,25.47-25.44-93.36,93.32,25.48-25.44-93.36,93.32,25.47-19.09-70ZM112.29,1149.1l-81.63-22.28-3.19-11.69,81.64,22.28Zm67.89-67.88-81.64-22.28-3.18-11.69L177,1069.53Zm67.88-67.88-81.63-22.28-3.19-11.69,81.63,22.28Zm67.88-67.88-81.63-22.29-3.19-11.69,81.63,22.29Zm67.88-67.89-81.63-22.28L299,843.6l81.63,22.29Zm67.88-67.88-81.63-22.28-3.19-11.69L448.52,798Zm67.89-67.88L438,719.53l-3.18-11.69,81.63,22.28Zm67.88-67.88-81.63-22.29L502.65,640l81.63,22.29Zm67.88-67.88-81.63-22.29-3.19-11.69,81.63,22.29Zm67.88-67.89L641.6,515.88l-3.19-11.69,81.64,22.28Zm67.89-67.88L709.48,448l-3.18-11.69,81.63,22.28ZM859,402.4l-81.63-22.29-3.19-11.68,81.63,22.28Zm67.88-67.88-81.63-22.29-3.19-11.69,81.63,22.29Zm67.88-67.89-81.63-22.28-3.19-11.69,81.63,22.28Zm67.88-67.88L981,176.47l-3.19-11.69,81.64,22.28Zm67.89-67.88-81.64-22.28-3.18-11.69,81.63,22.28Z"/></g><path class="cls-7" d="M1122.82,79.18l0,0,6.36,23.34-93.32-25.48,25.44,93.36L968,145,993.4,238.3l-93.32-25.47,25.44,93.35-93.33-25.47,25.44,93.35-93.32-25.47L789.75,442l-93.32-25.48,25.44,93.36-93.32-25.47L654,577.71l-93.32-25.47,25.44,93.35-93.33-25.47,25.44,93.36L424.9,688l25.44,93.36L357,755.89l25.44,93.35-93.32-25.47,25.44,93.35-93.33-25.47L246.69,985l-93.32-25.47,25.44,93.36-93.32-25.48,25.44,93.36L17.61,1095.3l19.09,70,8.48-8.48,0,0-6.36-23.34,93.32,25.48-25.44-93.36L200,1091.05,174.6,997.7l93.32,25.47-25.44-93.35,93.33,25.47-25.44-93.35,93.32,25.47-25.44-93.36,93.32,25.48-25.44-93.36,93.32,25.47L514,658.29l93.32,25.47-25.44-93.35,93.33,25.47-25.44-93.36L743.1,548l-25.44-93.36L811,480.11l-25.44-93.35,93.32,25.47-25.44-93.35,93.33,25.47L921.31,251l93.32,25.47-25.44-93.36,93.32,25.48-25.44-93.36,93.32,25.47-19.09-70ZM117.29,1144.1l-81.63-22.28-3.19-11.69,81.64,22.28Zm67.89-67.88-81.64-22.28-3.18-11.69L182,1064.53Zm67.88-67.88-81.63-22.28-3.19-11.69,81.63,22.28Zm67.88-67.88-81.63-22.29-3.19-11.69,81.63,22.29Zm67.88-67.89-81.63-22.28L304,838.6l81.63,22.29Zm67.88-67.88-81.63-22.28-3.19-11.69L453.52,793Zm67.89-67.88L443,714.53l-3.18-11.69,81.63,22.28Zm67.88-67.88-81.63-22.29L507.65,635l81.63,22.29Zm67.88-67.88-81.63-22.29-3.19-11.69,81.63,22.29Zm67.88-67.89L646.6,510.88l-3.19-11.69,81.64,22.28Zm67.89-67.88L714.48,443l-3.18-11.69,81.63,22.28ZM864,397.4l-81.63-22.29-3.19-11.68,81.63,22.28Zm67.88-67.88-81.63-22.29-3.19-11.69,81.63,22.29Zm67.88-67.89-81.63-22.28-3.19-11.69,81.63,22.28Zm67.88-67.88L986,171.47l-3.19-11.69,81.64,22.28Zm67.89-67.88-81.64-22.28-3.18-11.69,81.63,22.28Z"/><g class="cls-3"><path class="cls-4" d="M1153.82,137.18l0,0,6.36,23.34-93.32-25.48,25.44,93.36L999,203l25.44,93.35-93.32-25.47,25.44,93.35-93.33-25.47,25.44,93.35-93.32-25.47L820.75,500l-93.32-25.48,25.44,93.36-93.32-25.47L685,635.71l-93.32-25.47,25.44,93.35-93.33-25.47,25.44,93.36L455.9,746l25.44,93.36L388,813.89l25.44,93.35-93.32-25.47,25.44,93.35-93.33-25.47L277.69,1043l-93.32-25.47,25.44,93.36-93.32-25.48,25.44,93.36L48.61,1153.3l19.09,70,8.48-8.48,0,0-6.36-23.34,93.32,25.48-25.44-93.36L231,1149.05,205.6,1055.7l93.32,25.47-25.44-93.35,93.33,25.47-25.44-93.35,93.32,25.47-25.44-93.36,93.32,25.48-25.44-93.36,93.32,25.47L545,716.29l93.32,25.47-25.44-93.35,93.33,25.47-25.44-93.36L774.1,606l-25.44-93.36L842,538.11l-25.44-93.35,93.32,25.47-25.44-93.35,93.33,25.47L952.31,309l93.32,25.47-25.44-93.36,93.32,25.48-25.44-93.36,93.32,25.47-19.09-70ZM148.29,1202.1l-81.63-22.28-3.19-11.69,81.64,22.28Zm67.89-67.88-81.64-22.28-3.18-11.69L213,1122.53Zm67.88-67.88-81.63-22.28-3.19-11.69,81.63,22.28Zm67.88-67.88-81.63-22.29-3.19-11.69,81.63,22.29Zm67.88-67.89-81.63-22.28L335,896.6l81.63,22.29Zm67.88-67.88-81.63-22.28-3.19-11.69L484.52,851Zm67.89-67.88L474,772.53l-3.18-11.69,81.63,22.28Zm67.88-67.88-81.63-22.29L538.65,693l81.63,22.29Zm67.88-67.88-81.63-22.29-3.19-11.69,81.63,22.29Zm67.88-67.89L677.6,568.88l-3.19-11.69,81.64,22.28Zm67.89-67.88L745.48,501l-3.18-11.69,81.63,22.28ZM895,455.4l-81.63-22.29-3.19-11.68,81.63,22.28Zm67.88-67.88-81.63-22.29-3.19-11.69,81.63,22.29Zm67.88-67.89-81.63-22.28-3.19-11.69,81.63,22.28Zm67.88-67.88L1017,229.47l-3.19-11.69,81.64,22.28Zm67.89-67.88-81.64-22.28-3.18-11.69,81.63,22.28Z"/></g><path class="cls-8" d="M1158.82,132.18l0,0,6.36,23.34-93.32-25.48,25.44,93.36L1004,198l25.44,93.35-93.32-25.47,25.44,93.35-93.33-25.47,25.44,93.35-93.32-25.47L825.75,495l-93.32-25.48,25.44,93.36-93.32-25.47L690,630.71l-93.32-25.47,25.44,93.35-93.33-25.47,25.44,93.36L460.9,741l25.44,93.36L393,808.89l25.44,93.35-93.32-25.47,25.44,93.35-93.33-25.47L282.69,1038l-93.32-25.47,25.44,93.36-93.32-25.48,25.44,93.36L53.61,1148.3l19.09,70,8.48-8.48,0,0-6.36-23.34,93.32,25.48-25.44-93.36L236,1144.05,210.6,1050.7l93.32,25.47-25.44-93.35,93.33,25.47-25.44-93.35,93.32,25.47-25.44-93.36,93.32,25.48-25.44-93.36,93.32,25.47L550,711.29l93.32,25.47-25.44-93.35,93.33,25.47-25.44-93.36L779.1,601l-25.44-93.36L847,533.11l-25.44-93.35,93.32,25.47-25.44-93.35,93.33,25.47L957.31,304l93.32,25.47-25.44-93.36,93.32,25.48-25.44-93.36,93.32,25.47-19.09-70ZM153.29,1197.1l-81.63-22.28-3.19-11.69,81.64,22.28Zm67.89-67.88-81.64-22.28-3.18-11.69L218,1117.53Zm67.88-67.88-81.63-22.28-3.19-11.69,81.63,22.28Zm67.88-67.88-81.63-22.29-3.19-11.69,81.63,22.29Zm67.88-67.89-81.63-22.28L340,891.6l81.63,22.29Zm67.88-67.88-81.63-22.28-3.19-11.69L489.52,846Zm67.89-67.88L479,767.53l-3.18-11.69,81.63,22.28Zm67.88-67.88-81.63-22.29L543.65,688l81.63,22.29Zm67.88-67.88-81.63-22.29-3.19-11.69,81.63,22.29Zm67.88-67.89L682.6,563.88l-3.19-11.69,81.64,22.28Zm67.89-67.88L750.48,496l-3.18-11.69,81.63,22.28ZM900,450.4l-81.63-22.29-3.19-11.68,81.63,22.28Zm67.88-67.88-81.63-22.29-3.19-11.69,81.63,22.29Zm67.88-67.89-81.63-22.28-3.19-11.69,81.63,22.28Zm67.88-67.88L1022,224.47l-3.19-11.69,81.64,22.28Zm67.89-67.88-81.64-22.28-3.18-11.69,81.63,22.28Z"/><g class="cls-3"><path class="cls-4" d="M1189.82,190.18l0,0,6.36,23.34-93.32-25.48,25.44,93.36L1035,256l25.44,93.35-93.32-25.47,25.44,93.35-93.33-25.47,25.44,93.35-93.32-25.47L856.75,553l-93.32-25.48,25.44,93.36-93.32-25.47L721,688.71l-93.32-25.47,25.44,93.35-93.33-25.47,25.44,93.36L491.9,799l25.44,93.36L424,866.89l25.44,93.35-93.32-25.47,25.44,93.35-93.33-25.47L313.69,1096l-93.32-25.47,25.44,93.36-93.32-25.48,25.44,93.36L84.61,1206.3l19.09,70,8.48-8.48,0,0-6.36-23.34,93.32,25.48-25.44-93.36L267,1202.05,241.6,1108.7l93.32,25.47-25.44-93.35,93.33,25.47-25.44-93.35,93.32,25.47-25.44-93.36,93.32,25.48-25.44-93.36,93.32,25.47L581,769.29l93.32,25.47-25.44-93.35,93.33,25.47-25.44-93.36L810.1,659l-25.44-93.36L878,591.11l-25.44-93.35,93.32,25.47-25.44-93.35,93.33,25.47L988.31,362l93.32,25.47-25.44-93.36,93.32,25.48-25.44-93.36,93.32,25.47-19.09-70ZM184.29,1255.1l-81.63-22.28-3.19-11.69,81.64,22.28Zm67.89-67.88-81.64-22.28-3.18-11.69L249,1175.53Zm67.88-67.88-81.63-22.28-3.19-11.69,81.63,22.28Zm67.88-67.88-81.63-22.29-3.19-11.69,81.63,22.29Zm67.88-67.89-81.63-22.28L371,949.6l81.63,22.29Zm67.88-67.88-81.63-22.28-3.19-11.69L520.52,904Zm67.89-67.88L510,825.53l-3.18-11.69,81.63,22.28Zm67.88-67.88-81.63-22.29L574.65,746l81.63,22.29Zm67.88-67.88-81.63-22.29-3.19-11.69,81.63,22.29Zm67.88-67.89L713.6,621.88l-3.19-11.69,81.64,22.28Zm67.89-67.88L781.48,554l-3.18-11.69,81.63,22.28ZM931,508.4l-81.63-22.29-3.19-11.68,81.63,22.28Zm67.88-67.88-81.63-22.29-3.19-11.69,81.63,22.29Zm67.88-67.89-81.63-22.28-3.19-11.69,81.63,22.28Zm67.88-67.88L1053,282.47l-3.19-11.69,81.64,22.28Zm67.89-67.88-81.64-22.28-3.18-11.69,81.63,22.28Z"/></g><path class="cls-9" d="M1194.82,185.18l0,0,6.36,23.34-93.32-25.48,25.44,93.36L1040,251l25.44,93.35-93.32-25.47,25.44,93.35-93.33-25.47,25.44,93.35-93.32-25.47L861.75,548l-93.32-25.48,25.44,93.36-93.32-25.47L726,683.71l-93.32-25.47,25.44,93.35-93.33-25.47,25.44,93.36L496.9,794l25.44,93.36L429,861.89l25.44,93.35-93.32-25.47,25.44,93.35-93.33-25.47L318.69,1091l-93.32-25.47,25.44,93.36-93.32-25.48,25.44,93.36L89.61,1201.3l19.09,70,8.48-8.48,0,0-6.36-23.34,93.32,25.48-25.44-93.36L272,1197.05,246.6,1103.7l93.32,25.47-25.44-93.35,93.33,25.47-25.44-93.35,93.32,25.47-25.44-93.36,93.32,25.48-25.44-93.36,93.32,25.47L586,764.29l93.32,25.47-25.44-93.35,93.33,25.47-25.44-93.36L815.1,654l-25.44-93.36L883,586.11l-25.44-93.35,93.32,25.47-25.44-93.35,93.33,25.47L993.31,357l93.32,25.47-25.44-93.36,93.32,25.48-25.44-93.36,93.32,25.47-19.09-70ZM189.29,1250.1l-81.63-22.28-3.19-11.69,81.64,22.28Zm67.89-67.88-81.64-22.28-3.18-11.69L254,1170.53Zm67.88-67.88-81.63-22.28-3.19-11.69,81.63,22.28Zm67.88-67.88-81.63-22.29-3.19-11.69,81.63,22.29Zm67.88-67.89-81.63-22.28L376,944.6l81.63,22.29Zm67.88-67.88-81.63-22.28-3.19-11.69L525.52,899Zm67.89-67.88L515,820.53l-3.18-11.69,81.63,22.28Zm67.88-67.88-81.63-22.29L579.65,741l81.63,22.29Zm67.88-67.88-81.63-22.29-3.19-11.69,81.63,22.29Zm67.88-67.89L718.6,616.88l-3.19-11.69,81.64,22.28Zm67.89-67.88L786.48,549l-3.18-11.69,81.63,22.28ZM936,503.4l-81.63-22.29-3.19-11.68,81.63,22.28Zm67.88-67.88-81.63-22.29-3.19-11.69,81.63,22.29Zm67.88-67.89-81.63-22.28-3.19-11.69,81.63,22.28Zm67.88-67.88L1058,277.47l-3.19-11.69,81.64,22.28Zm67.89-67.88-81.64-22.28-3.18-11.69,81.63,22.28Z"/><g class="cls-3"><path class="cls-4" d="M1225.82,243.18l0,0,6.36,23.34-93.32-25.48,25.44,93.36L1071,309l25.44,93.35-93.32-25.47,25.44,93.35-93.33-25.47,25.44,93.35-93.32-25.47L892.75,606l-93.32-25.48,25.44,93.36-93.32-25.47L757,741.71l-93.32-25.47,25.44,93.35-93.33-25.47,25.44,93.36L527.9,852l25.44,93.36L460,919.89l25.44,93.35-93.32-25.47,25.44,93.35-93.33-25.47L349.69,1149l-93.32-25.47,25.44,93.36-93.32-25.48,25.44,93.36-93.32-25.47,19.09,70,8.48-8.48,0,0-6.36-23.34,93.32,25.48-25.44-93.36L303,1255.05,277.6,1161.7l93.32,25.47-25.44-93.35,93.33,25.47-25.44-93.35,93.32,25.47-25.44-93.36,93.32,25.48-25.44-93.36,93.32,25.47L617,822.29l93.32,25.47-25.44-93.35,93.33,25.47-25.44-93.36L846.1,712l-25.44-93.36L914,644.11l-25.44-93.35,93.32,25.47-25.44-93.35,93.33,25.47L1024.31,415l93.32,25.47-25.44-93.36,93.32,25.48-25.44-93.36,93.32,25.47-19.09-70ZM220.29,1308.1l-81.63-22.28-3.19-11.69,81.64,22.28Zm67.89-67.88-81.64-22.28-3.18-11.69L285,1228.53Zm67.88-67.88-81.63-22.28-3.19-11.69,81.63,22.28Zm67.88-67.88-81.63-22.29-3.19-11.69,81.63,22.29Zm67.88-67.89-81.63-22.28L407,1002.6l81.63,22.29Zm67.88-67.88-81.63-22.28-3.19-11.69L556.52,957Zm67.89-67.88L546,878.53l-3.18-11.69,81.63,22.28Zm67.88-67.88-81.63-22.29L610.65,799l81.63,22.29Zm67.88-67.88-81.63-22.29-3.19-11.69,81.63,22.29Zm67.88-67.89L749.6,674.88l-3.19-11.69,81.64,22.28Zm67.89-67.88L817.48,607l-3.18-11.69,81.63,22.28ZM967,561.4l-81.63-22.29-3.19-11.68,81.63,22.28Zm67.88-67.88-81.63-22.29-3.19-11.69,81.63,22.29Zm67.88-67.89-81.63-22.28-3.19-11.69,81.63,22.28Zm67.88-67.88L1089,335.47l-3.19-11.69,81.64,22.28Zm67.89-67.88-81.64-22.28-3.18-11.69,81.63,22.28Z"/></g><path class="cls-10" d="M1230.82,238.18l0,0,6.36,23.34-93.32-25.48,25.44,93.36L1076,304l25.44,93.35-93.32-25.47,25.44,93.35-93.33-25.47,25.44,93.35-93.32-25.47L897.75,601l-93.32-25.48,25.44,93.36-93.32-25.47L762,736.71l-93.32-25.47,25.44,93.35-93.33-25.47,25.44,93.36L532.9,847l25.44,93.36L465,914.89l25.44,93.35-93.32-25.47,25.44,93.35-93.33-25.47L354.69,1144l-93.32-25.47,25.44,93.36-93.32-25.48,25.44,93.36-93.32-25.47,19.09,70,8.48-8.48,0,0-6.36-23.34,93.32,25.48-25.44-93.36L308,1250.05,282.6,1156.7l93.32,25.47-25.44-93.35,93.33,25.47-25.44-93.35,93.32,25.47-25.44-93.36,93.32,25.48-25.44-93.36,93.32,25.47L622,817.29l93.32,25.47-25.44-93.35,93.33,25.47-25.44-93.36L851.1,707l-25.44-93.36L919,639.11l-25.44-93.35,93.32,25.47-25.44-93.35,93.33,25.47L1029.31,410l93.32,25.47-25.44-93.36,93.32,25.48-25.44-93.36,93.32,25.47-19.09-70ZM225.29,1303.1l-81.63-22.28-3.19-11.69,81.64,22.28Zm67.89-67.88-81.64-22.28-3.18-11.69L290,1223.53Zm67.88-67.88-81.63-22.28-3.19-11.69,81.63,22.28Zm67.88-67.88-81.63-22.29-3.19-11.69,81.63,22.29Zm67.88-67.89-81.63-22.28L412,997.6l81.63,22.29Zm67.88-67.88-81.63-22.28-3.19-11.69L561.52,952Zm67.89-67.88L551,873.53l-3.18-11.69,81.63,22.28Zm67.88-67.88-81.63-22.29L615.65,794l81.63,22.29Zm67.88-67.88-81.63-22.29-3.19-11.69,81.63,22.29Zm67.88-67.89L754.6,669.88l-3.19-11.69,81.64,22.28Zm67.89-67.88L822.48,602l-3.18-11.69,81.63,22.28ZM972,556.4l-81.63-22.29-3.19-11.68,81.63,22.28Zm67.88-67.88-81.63-22.29-3.19-11.69,81.63,22.29Zm67.88-67.89-81.63-22.28-3.19-11.69,81.63,22.28Zm67.88-67.88L1094,330.47l-3.19-11.69,81.64,22.28Zm67.89-67.88-81.64-22.28-3.18-11.69,81.63,22.28Z"/><g class="cls-3"><path class="cls-4" d="M1261.82,296.18l0,0,6.36,23.34-93.32-25.48,25.44,93.36L1107,362l25.44,93.35-93.32-25.47,25.44,93.35-93.33-25.47,25.44,93.35-93.32-25.47L928.75,659l-93.32-25.48,25.44,93.36-93.32-25.47L793,794.71l-93.32-25.47,25.44,93.35-93.33-25.47,25.44,93.36L563.9,905l25.44,93.36L496,972.89l25.44,93.35-93.32-25.47,25.44,93.35-93.33-25.47L385.69,1202l-93.32-25.47,25.44,93.36-93.32-25.48,25.44,93.36-93.32-25.47,19.09,70,8.48-8.48,0,0-6.36-23.34,93.32,25.48-25.44-93.36L339,1308.05,313.6,1214.7l93.32,25.47-25.44-93.35,93.33,25.47-25.44-93.35,93.32,25.47-25.44-93.36,93.32,25.48-25.44-93.36,93.32,25.47L653,875.29l93.32,25.47-25.44-93.35,93.33,25.47-25.44-93.36L882.1,765l-25.44-93.36L950,697.11l-25.44-93.35,93.32,25.47-25.44-93.35,93.33,25.47L1060.31,468l93.32,25.47-25.44-93.36,93.32,25.48-25.44-93.36,93.32,25.47-19.09-70ZM256.29,1361.1l-81.63-22.28-3.19-11.69,81.64,22.28Zm67.89-67.88-81.64-22.28-3.18-11.69L321,1281.53Zm67.88-67.88-81.63-22.28-3.19-11.69,81.63,22.28Zm67.88-67.88-81.63-22.29-3.19-11.69,81.63,22.29Zm67.88-67.89-81.63-22.28L443,1055.6l81.63,22.29Zm67.88-67.88-81.63-22.28-3.19-11.69L592.52,1010Zm67.89-67.88L582,931.53l-3.18-11.69,81.63,22.28Zm67.88-67.88-81.63-22.29L646.65,852l81.63,22.29Zm67.88-67.88-81.63-22.29-3.19-11.69,81.63,22.29Zm67.88-67.89L785.6,727.88l-3.19-11.69,81.64,22.28Zm67.89-67.88L853.48,660l-3.18-11.69,81.63,22.28ZM1003,614.4l-81.63-22.29-3.19-11.68,81.63,22.28Zm67.88-67.88-81.63-22.29-3.19-11.69,81.63,22.29Zm67.88-67.89-81.63-22.28-3.19-11.69,81.63,22.28Zm67.88-67.88L1125,388.47l-3.19-11.69,81.64,22.28Zm67.89-67.88-81.64-22.28-3.18-11.69,81.63,22.28Z"/></g><path class="cls-11" d="M1266.82,291.18l0,0,6.36,23.34-93.32-25.48,25.44,93.36L1112,357l25.44,93.35-93.32-25.47,25.44,93.35-93.33-25.47,25.44,93.35-93.32-25.47L933.75,654l-93.32-25.48,25.44,93.36-93.32-25.47L798,789.71l-93.32-25.47,25.44,93.35-93.33-25.47,25.44,93.36L568.9,900l25.44,93.36L501,967.89l25.44,93.35-93.32-25.47,25.44,93.35-93.33-25.47L390.69,1197l-93.32-25.47,25.44,93.36-93.32-25.48,25.44,93.36-93.32-25.47,19.09,70,8.48-8.48,0,0-6.36-23.34,93.32,25.48-25.44-93.36L344,1303.05,318.6,1209.7l93.32,25.47-25.44-93.35,93.33,25.47-25.44-93.35,93.32,25.47-25.44-93.36,93.32,25.48-25.44-93.36,93.32,25.47L658,870.29l93.32,25.47-25.44-93.35,93.33,25.47-25.44-93.36L887.1,760l-25.44-93.36L955,692.11l-25.44-93.35,93.32,25.47-25.44-93.35,93.33,25.47L1065.31,463l93.32,25.47-25.44-93.36,93.32,25.48-25.44-93.36,93.32,25.47-19.09-70ZM261.29,1356.1l-81.63-22.28-3.19-11.69,81.64,22.28Zm67.89-67.88-81.64-22.28-3.18-11.69L326,1276.53Zm67.88-67.88-81.63-22.28-3.19-11.69,81.63,22.28Zm67.88-67.88-81.63-22.29-3.19-11.69,81.63,22.29Zm67.88-67.89-81.63-22.28L448,1050.6l81.63,22.29Zm67.88-67.88-81.63-22.28-3.19-11.69L597.52,1005Zm67.89-67.88L587,926.53l-3.18-11.69,81.63,22.28Zm67.88-67.88-81.63-22.29L651.65,847l81.63,22.29Zm67.88-67.88-81.63-22.29-3.19-11.69,81.63,22.29Zm67.88-67.89L790.6,722.88l-3.19-11.69,81.64,22.28Zm67.89-67.88L858.48,655l-3.18-11.69,81.63,22.28ZM1008,609.4l-81.63-22.29-3.19-11.68,81.63,22.28Zm67.88-67.88-81.63-22.29-3.19-11.69,81.63,22.29Zm67.88-67.89-81.63-22.28-3.19-11.69,81.63,22.28Zm67.88-67.88L1130,383.47l-3.19-11.69,81.64,22.28Zm67.89-67.88-81.64-22.28-3.18-11.69,81.63,22.28Z"/><g class="cls-3"><path class="cls-4" d="M1297.82,349.18l0,0,6.36,23.34-93.32-25.48,25.44,93.36L1143,415l25.44,93.35-93.32-25.47,25.44,93.35-93.33-25.47,25.44,93.35-93.32-25.47L964.75,712l-93.32-25.48,25.44,93.36-93.32-25.47L829,847.71l-93.32-25.47,25.44,93.35-93.33-25.47,25.44,93.36L599.9,958l25.44,93.36L532,1025.89l25.44,93.35-93.32-25.47,25.44,93.35-93.33-25.47L421.69,1255l-93.32-25.47,25.44,93.36-93.32-25.48,25.44,93.36-93.32-25.47,19.09,70,8.48-8.48,0,0-6.36-23.34,93.32,25.48-25.44-93.36L375,1361.05,349.6,1267.7l93.32,25.47-25.44-93.35,93.33,25.47-25.44-93.35,93.32,25.47-25.44-93.36,93.32,25.48-25.44-93.36,93.32,25.47L689,928.29l93.32,25.47-25.44-93.35,93.33,25.47-25.44-93.36L918.1,818l-25.44-93.36L986,750.11l-25.44-93.35,93.32,25.47-25.44-93.35,93.33,25.47L1096.31,521l93.32,25.47-25.44-93.36,93.32,25.48-25.44-93.36,93.32,25.47-19.09-70ZM292.29,1414.1l-81.63-22.28-3.19-11.69,81.64,22.28Zm67.89-67.88-81.64-22.28-3.18-11.69L357,1334.53Zm67.88-67.88-81.63-22.28-3.19-11.69,81.63,22.28Zm67.88-67.88-81.63-22.29-3.19-11.69,81.63,22.29Zm67.88-67.89-81.63-22.28L479,1108.6l81.63,22.29Zm67.88-67.88-81.63-22.28-3.19-11.69L628.52,1063Zm67.89-67.88L618,984.53l-3.18-11.69,81.63,22.28Zm67.88-67.88-81.63-22.29L682.65,905l81.63,22.29Zm67.88-67.88-81.63-22.29-3.19-11.69,81.63,22.29Zm67.88-67.89L821.6,780.88l-3.19-11.69,81.64,22.28Zm67.89-67.88L889.48,713l-3.18-11.69,81.63,22.28ZM1039,667.4l-81.63-22.29-3.19-11.68,81.63,22.28Zm67.88-67.88-81.63-22.29-3.19-11.69,81.63,22.29Zm67.88-67.89-81.63-22.28-3.19-11.69,81.63,22.28Zm67.88-67.88L1161,441.47l-3.19-11.69,81.64,22.28Zm67.89-67.88-81.64-22.28-3.18-11.69,81.63,22.28Z"/></g><path class="cls-12" d="M1302.82,344.18l0,0,6.36,23.34-93.32-25.48,25.44,93.36L1148,410l25.44,93.35-93.32-25.47,25.44,93.35-93.33-25.47,25.44,93.35-93.32-25.47L969.75,707l-93.32-25.48,25.44,93.36-93.32-25.47L834,842.71l-93.32-25.47,25.44,93.35-93.33-25.47,25.44,93.36L604.9,953l25.44,93.36L537,1020.89l25.44,93.35-93.32-25.47,25.44,93.35-93.33-25.47L426.69,1250l-93.32-25.47,25.44,93.36-93.32-25.48,25.44,93.36-93.32-25.47,19.09,70,8.48-8.48,0,0-6.36-23.34,93.32,25.48-25.44-93.36L380,1356.05,354.6,1262.7l93.32,25.47-25.44-93.35,93.33,25.47-25.44-93.35,93.32,25.47-25.44-93.36,93.32,25.48-25.44-93.36,93.32,25.47L694,923.29l93.32,25.47-25.44-93.35,93.33,25.47-25.44-93.36L923.1,813l-25.44-93.36L991,745.11l-25.44-93.35,93.32,25.47-25.44-93.35,93.33,25.47L1101.31,516l93.32,25.47-25.44-93.36,93.32,25.48-25.44-93.36,93.32,25.47-19.09-70ZM297.29,1409.1l-81.63-22.28-3.19-11.69,81.64,22.28Zm67.89-67.88-81.64-22.28-3.18-11.69L362,1329.53Zm67.88-67.88-81.63-22.28-3.19-11.69,81.63,22.28Zm67.88-67.88-81.63-22.29-3.19-11.69,81.63,22.29Zm67.88-67.89-81.63-22.28L484,1103.6l81.63,22.29Zm67.88-67.88-81.63-22.28-3.19-11.69L633.52,1058Zm67.89-67.88L623,979.53l-3.18-11.69,81.63,22.28Zm67.88-67.88-81.63-22.29L687.65,900l81.63,22.29Zm67.88-67.88-81.63-22.29-3.19-11.69,81.63,22.29Zm67.88-67.89L826.6,775.88l-3.19-11.69,81.64,22.28Zm67.89-67.88L894.48,708l-3.18-11.69,81.63,22.28ZM1044,662.4l-81.63-22.29-3.19-11.68,81.63,22.28Zm67.88-67.88-81.63-22.29-3.19-11.69,81.63,22.29Zm67.88-67.89-81.63-22.28-3.19-11.69,81.63,22.28Zm67.88-67.88L1166,436.47l-3.19-11.69,81.64,22.28Zm67.89-67.88-81.64-22.28-3.18-11.69,81.63,22.28Z"/><g class="cls-3"><path class="cls-4" d="M1333.82,402.18l0,0,6.36,23.34-93.32-25.48,25.44,93.36L1179,468l25.44,93.35-93.32-25.47,25.44,93.35-93.33-25.47,25.44,93.35-93.32-25.47L1000.75,765l-93.32-25.48,25.44,93.36-93.32-25.47L865,900.71l-93.32-25.47,25.44,93.35-93.33-25.47,25.44,93.36L635.9,1011l25.44,93.36L568,1078.89l25.44,93.35-93.32-25.47,25.44,93.35-93.33-25.47L457.69,1308l-93.32-25.47,25.44,93.36-93.32-25.48,25.44,93.36-93.32-25.47,19.09,70,8.48-8.48,0,0-6.36-23.34,93.32,25.48-25.44-93.36L411,1414.05,385.6,1320.7l93.32,25.47-25.44-93.35,93.33,25.47-25.44-93.35,93.32,25.47-25.44-93.36,93.32,25.48-25.44-93.36,93.32,25.47L725,981.29l93.32,25.47-25.44-93.35,93.33,25.47-25.44-93.36L954.1,871l-25.44-93.36L1022,803.11l-25.44-93.35,93.32,25.47-25.44-93.35,93.33,25.47L1132.31,574l93.32,25.47-25.44-93.36,93.32,25.48-25.44-93.36,93.32,25.47-19.09-70ZM328.29,1467.1l-81.63-22.28-3.19-11.69,81.64,22.28Zm67.89-67.88-81.64-22.28-3.18-11.69L393,1387.53Zm67.88-67.88-81.63-22.28-3.19-11.69,81.63,22.28Zm67.88-67.88-81.63-22.29-3.19-11.69,81.63,22.29Zm67.88-67.89-81.63-22.28L515,1161.6l81.63,22.29Zm67.88-67.88-81.63-22.28-3.19-11.69L664.52,1116Zm67.89-67.88L654,1037.53l-3.18-11.69,81.63,22.28Zm67.88-67.88-81.63-22.29L718.65,958l81.63,22.29Zm67.88-67.88-81.63-22.29-3.19-11.69,81.63,22.29Zm67.88-67.89L857.6,833.88l-3.19-11.69,81.64,22.28Zm67.89-67.88L925.48,766l-3.18-11.69,81.63,22.28ZM1075,720.4l-81.63-22.29-3.19-11.68,81.63,22.28Zm67.88-67.88-81.63-22.29-3.19-11.69,81.63,22.29Zm67.88-67.89-81.63-22.28-3.19-11.69,81.63,22.28Zm67.88-67.88L1197,494.47l-3.19-11.69,81.64,22.28Zm67.89-67.88-81.64-22.28-3.18-11.69,81.63,22.28Z"/></g><path class="cls-13" d="M1338.82,397.18l0,0,6.36,23.34-93.32-25.48,25.44,93.36L1184,463l25.44,93.35-93.32-25.47,25.44,93.35-93.33-25.47,25.44,93.35-93.32-25.47L1005.75,760l-93.32-25.48,25.44,93.36-93.32-25.47L870,895.71l-93.32-25.47,25.44,93.35-93.33-25.47,25.44,93.36L640.9,1006l25.44,93.36L573,1073.89l25.44,93.35-93.32-25.47,25.44,93.35-93.33-25.47L462.69,1303l-93.32-25.47,25.44,93.36-93.32-25.48,25.44,93.36-93.32-25.47,19.09,70,8.48-8.48,0,0-6.36-23.34,93.32,25.48-25.44-93.36L416,1409.05,390.6,1315.7l93.32,25.47-25.44-93.35,93.33,25.47-25.44-93.35,93.32,25.47-25.44-93.36,93.32,25.48-25.44-93.36,93.32,25.47L730,976.29l93.32,25.47-25.44-93.35,93.33,25.47-25.44-93.36L959.1,866l-25.44-93.36L1027,798.11l-25.44-93.35,93.32,25.47-25.44-93.35,93.33,25.47L1137.31,569l93.32,25.47-25.44-93.36,93.32,25.48-25.44-93.36,93.32,25.47-19.09-70ZM333.29,1462.1l-81.63-22.28-3.19-11.69,81.64,22.28Zm67.89-67.88-81.64-22.28-3.18-11.69L398,1382.53Zm67.88-67.88-81.63-22.28-3.19-11.69,81.63,22.28Zm67.88-67.88-81.63-22.29-3.19-11.69,81.63,22.29Zm67.88-67.89-81.63-22.28L520,1156.6l81.63,22.29Zm67.88-67.88-81.63-22.28-3.19-11.69L669.52,1111Zm67.89-67.88L659,1032.53l-3.18-11.69,81.63,22.28Zm67.88-67.88-81.63-22.29L723.65,953l81.63,22.29Zm67.88-67.88-81.63-22.29-3.19-11.69,81.63,22.29Zm67.88-67.89L862.6,828.88l-3.19-11.69,81.64,22.28Zm67.89-67.88L930.48,761l-3.18-11.69,81.63,22.28ZM1080,715.4l-81.63-22.29-3.19-11.68,81.63,22.28Zm67.88-67.88-81.63-22.29-3.19-11.69,81.63,22.29Zm67.88-67.89-81.63-22.28-3.19-11.69,81.63,22.28Zm67.88-67.88L1202,489.47l-3.19-11.69,81.64,22.28Zm67.89-67.88-81.64-22.28-3.18-11.69,81.63,22.28Z"/><g class="cls-3"><path class="cls-4" d="M1369.82,455.18l0,0,6.36,23.34-93.32-25.48,25.44,93.36L1215,521l25.44,93.35-93.32-25.47,25.44,93.35-93.33-25.47,25.44,93.35-93.32-25.47L1036.75,818l-93.32-25.48,25.44,93.36-93.32-25.47L901,953.71l-93.32-25.47,25.44,93.35-93.33-25.47,25.44,93.36L671.9,1064l25.44,93.36L604,1131.89l25.44,93.35-93.32-25.47,25.44,93.35-93.33-25.47L493.69,1361l-93.32-25.47,25.44,93.36-93.32-25.48,25.44,93.36-93.32-25.47,19.09,70,8.48-8.48,0,0-6.36-23.34,93.32,25.48-25.44-93.36L447,1467.05,421.6,1373.7l93.32,25.47-25.44-93.35,93.33,25.47-25.44-93.35,93.32,25.47-25.44-93.36,93.32,25.48-25.44-93.36,93.32,25.47L761,1034.29l93.32,25.47-25.44-93.35,93.33,25.47-25.44-93.36L990.1,924l-25.44-93.36L1058,856.11l-25.44-93.35,93.32,25.47-25.44-93.35,93.33,25.47L1168.31,627l93.32,25.47-25.44-93.36,93.32,25.48-25.44-93.36,93.32,25.47-19.09-70ZM364.29,1520.1l-81.63-22.28-3.19-11.69,81.64,22.28Zm67.89-67.88-81.64-22.28-3.18-11.69L429,1440.53Zm67.88-67.88-81.63-22.28-3.19-11.69,81.63,22.28Zm67.88-67.88-81.63-22.29-3.19-11.69,81.63,22.29Zm67.88-67.89-81.63-22.28L551,1214.6l81.63,22.29Zm67.88-67.88-81.63-22.28-3.19-11.69L700.52,1169Zm67.89-67.88L690,1090.53l-3.18-11.69,81.63,22.28Zm67.88-67.88-81.63-22.29L754.65,1011l81.63,22.29Zm67.88-67.88-81.63-22.29-3.19-11.69,81.63,22.29Zm67.88-67.89L893.6,886.88l-3.19-11.69,81.64,22.28Zm67.89-67.88L961.48,819l-3.18-11.69,81.63,22.28ZM1111,773.4l-81.63-22.29-3.19-11.68,81.63,22.28Zm67.88-67.88-81.63-22.29-3.19-11.69,81.63,22.29Zm67.88-67.89-81.63-22.28-3.19-11.69,81.63,22.28Zm67.88-67.88L1233,547.47l-3.19-11.69,81.64,22.28Zm67.89-67.88-81.64-22.28-3.18-11.69,81.63,22.28Z"/></g><path class="cls-14" d="M1374.82,450.18l0,0,6.36,23.34-93.32-25.48,25.44,93.36L1220,516l25.44,93.35-93.32-25.47,25.44,93.35-93.33-25.47,25.44,93.35-93.32-25.47L1041.75,813l-93.32-25.48,25.44,93.36-93.32-25.47L906,948.71l-93.32-25.47,25.44,93.35-93.33-25.47,25.44,93.36L676.9,1059l25.44,93.36L609,1126.89l25.44,93.35-93.32-25.47,25.44,93.35-93.33-25.47L498.69,1356l-93.32-25.47,25.44,93.36-93.32-25.48,25.44,93.36-93.32-25.47,19.09,70,8.48-8.48,0,0-6.36-23.34,93.32,25.48-25.44-93.36L452,1462.05,426.6,1368.7l93.32,25.47-25.44-93.35,93.33,25.47-25.44-93.35,93.32,25.47-25.44-93.36,93.32,25.48-25.44-93.36,93.32,25.47L766,1029.29l93.32,25.47-25.44-93.35,93.33,25.47-25.44-93.36L995.1,919l-25.44-93.36L1063,851.11l-25.44-93.35,93.32,25.47-25.44-93.35,93.33,25.47L1173.31,622l93.32,25.47-25.44-93.36,93.32,25.48-25.44-93.36,93.32,25.47-19.09-70ZM369.29,1515.1l-81.63-22.28-3.19-11.69,81.64,22.28Zm67.89-67.88-81.64-22.28-3.18-11.69L434,1435.53Zm67.88-67.88-81.63-22.28-3.19-11.69,81.63,22.28Zm67.88-67.88-81.63-22.29-3.19-11.69,81.63,22.29Zm67.88-67.89-81.63-22.28L556,1209.6l81.63,22.29Zm67.88-67.88-81.63-22.28-3.19-11.69L705.52,1164Zm67.89-67.88L695,1085.53l-3.18-11.69,81.63,22.28Zm67.88-67.88-81.63-22.29L759.65,1006l81.63,22.29Zm67.88-67.88-81.63-22.29-3.19-11.69,81.63,22.29Zm67.88-67.89L898.6,881.88l-3.19-11.69,81.64,22.28Zm67.89-67.88L966.48,814l-3.18-11.69,81.63,22.28ZM1116,768.4l-81.63-22.29-3.19-11.68,81.63,22.28Zm67.88-67.88-81.63-22.29-3.19-11.69,81.63,22.29Zm67.88-67.89-81.63-22.28-3.19-11.69,81.63,22.28Zm67.88-67.88L1238,542.47l-3.19-11.69,81.64,22.28Zm67.89-67.88-81.64-22.28-3.18-11.69,81.63,22.28Z"/><g class="cls-3"><path class="cls-4" d="M1405.82,508.18l0,0,6.36,23.34-93.32-25.48,25.44,93.36L1251,574l25.44,93.35-93.32-25.47,25.44,93.35-93.33-25.47,25.44,93.35-93.32-25.47L1072.75,871l-93.32-25.48,25.44,93.36-93.32-25.47L937,1006.71l-93.32-25.47,25.44,93.35-93.33-25.47,25.44,93.36L707.9,1117l25.44,93.36L640,1184.89l25.44,93.35-93.32-25.47,25.44,93.35-93.33-25.47L529.69,1414l-93.32-25.47,25.44,93.36-93.32-25.48,25.44,93.36-93.32-25.47,19.09,70,8.48-8.48,0,0-6.36-23.34,93.32,25.48-25.44-93.36L483,1520.05,457.6,1426.7l93.32,25.47-25.44-93.35,93.33,25.47-25.44-93.35,93.32,25.47-25.44-93.36,93.32,25.48-25.44-93.36,93.32,25.47L797,1087.29l93.32,25.47-25.44-93.35,93.33,25.47-25.44-93.36L1026.1,977l-25.44-93.36L1094,909.11l-25.44-93.35,93.32,25.47-25.44-93.35,93.33,25.47L1204.31,680l93.32,25.47-25.44-93.36,93.32,25.48-25.44-93.36,93.32,25.47-19.09-70ZM400.29,1573.1l-81.63-22.28-3.19-11.69,81.64,22.28Zm67.89-67.88-81.64-22.28-3.18-11.69L465,1493.53Zm67.88-67.88-81.63-22.28-3.19-11.69,81.63,22.28Zm67.88-67.88-81.63-22.29-3.19-11.69,81.63,22.29Zm67.88-67.89-81.63-22.28L587,1267.6l81.63,22.29Zm67.88-67.88-81.63-22.28-3.19-11.69L736.52,1222Zm67.89-67.88L726,1143.53l-3.18-11.69,81.63,22.28Zm67.88-67.88-81.63-22.29L790.65,1064l81.63,22.29Zm67.88-67.88-81.63-22.29-3.19-11.69,81.63,22.29Zm67.88-67.89L929.6,939.88l-3.19-11.69,81.64,22.28Zm67.89-67.88L997.48,872l-3.18-11.69,81.63,22.28ZM1147,826.4l-81.63-22.29-3.19-11.68,81.63,22.28Zm67.88-67.88-81.63-22.29-3.19-11.69,81.63,22.29Zm67.88-67.89-81.63-22.28-3.19-11.69,81.63,22.28Zm67.88-67.88L1269,600.47l-3.19-11.69,81.64,22.28Zm67.89-67.88-81.64-22.28-3.18-11.69,81.63,22.28Z"/></g><path class="cls-15" d="M1410.82,503.18l0,0,6.36,23.34-93.32-25.48,25.44,93.36L1256,569l25.44,93.35-93.32-25.47,25.44,93.35-93.33-25.47,25.44,93.35-93.32-25.47L1077.75,866l-93.32-25.48,25.44,93.36-93.32-25.47L942,1001.71l-93.32-25.47,25.44,93.35-93.33-25.47,25.44,93.36L712.9,1112l25.44,93.36L645,1179.89l25.44,93.35-93.32-25.47,25.44,93.35-93.33-25.47L534.69,1409l-93.32-25.47,25.44,93.36-93.32-25.48,25.44,93.36-93.32-25.47,19.09,70,8.48-8.48,0,0-6.36-23.34,93.32,25.48-25.44-93.36L488,1515.05,462.6,1421.7l93.32,25.47-25.44-93.35,93.33,25.47-25.44-93.35,93.32,25.47-25.44-93.36,93.32,25.48-25.44-93.36,93.32,25.47L802,1082.29l93.32,25.47-25.44-93.35,93.33,25.47-25.44-93.36L1031.1,972l-25.44-93.36L1099,904.11l-25.44-93.35,93.32,25.47-25.44-93.35,93.33,25.47L1209.31,675l93.32,25.47-25.44-93.36,93.32,25.48-25.44-93.36,93.32,25.47-19.09-70ZM405.29,1568.1l-81.63-22.28-3.19-11.69,81.64,22.28Zm67.89-67.88-81.64-22.28-3.18-11.69L470,1488.53Zm67.88-67.88-81.63-22.28-3.19-11.69,81.63,22.28Zm67.88-67.88-81.63-22.29-3.19-11.69,81.63,22.29Zm67.88-67.89-81.63-22.28L592,1262.6l81.63,22.29Zm67.88-67.88-81.63-22.28-3.19-11.69L741.52,1217Zm67.89-67.88L731,1138.53l-3.18-11.69,81.63,22.28Zm67.88-67.88-81.63-22.29L795.65,1059l81.63,22.29Zm67.88-67.88-81.63-22.29-3.19-11.69,81.63,22.29Zm67.88-67.89L934.6,934.88l-3.19-11.69,81.64,22.28Zm67.89-67.88L1002.48,867l-3.18-11.69,81.63,22.28ZM1152,821.4l-81.63-22.29-3.19-11.68,81.63,22.28Zm67.88-67.88-81.63-22.29-3.19-11.69,81.63,22.29Zm67.88-67.89-81.63-22.28-3.19-11.69,81.63,22.28Zm67.88-67.88L1274,595.47l-3.19-11.69,81.64,22.28Zm67.89-67.88-81.64-22.28-3.18-11.69,81.63,22.28Z"/><g class="cls-3"><path class="cls-4" d="M1441.82,561.18l0,0,6.36,23.34-93.32-25.48,25.44,93.36L1287,627l25.44,93.35-93.32-25.47,25.44,93.35-93.33-25.47,25.44,93.35-93.32-25.47L1108.75,924l-93.32-25.48,25.44,93.36-93.32-25.47L973,1059.71l-93.32-25.47,25.44,93.35-93.33-25.47,25.44,93.36L743.9,1170l25.44,93.36L676,1237.89l25.44,93.35-93.32-25.47,25.44,93.35-93.33-25.47L565.69,1467l-93.32-25.47,25.44,93.36-93.32-25.48,25.44,93.36-93.32-25.47,19.09,70,8.48-8.48,0,0-6.36-23.34,93.32,25.48-25.44-93.36L519,1573.05,493.6,1479.7l93.32,25.47-25.44-93.35,93.33,25.47-25.44-93.35,93.32,25.47-25.44-93.36,93.32,25.48-25.44-93.36,93.32,25.47L833,1140.29l93.32,25.47-25.44-93.35,93.33,25.47-25.44-93.36L1062.1,1030l-25.44-93.36L1130,962.11l-25.44-93.35,93.32,25.47-25.44-93.35,93.33,25.47L1240.31,733l93.32,25.47-25.44-93.36,93.32,25.48-25.44-93.36,93.32,25.47-19.09-70ZM436.29,1626.1l-81.63-22.28-3.19-11.69,81.64,22.28Zm67.89-67.88-81.64-22.28-3.18-11.69L501,1546.53Zm67.88-67.88-81.63-22.28-3.19-11.69,81.63,22.28Zm67.88-67.88-81.63-22.29-3.19-11.69,81.63,22.29Zm67.88-67.89-81.63-22.28L623,1320.6l81.63,22.29Zm67.88-67.88-81.63-22.28-3.19-11.69L772.52,1275Zm67.89-67.88L762,1196.53l-3.18-11.69,81.63,22.28Zm67.88-67.88-81.63-22.29L826.65,1117l81.63,22.29Zm67.88-67.88-81.63-22.29-3.19-11.69,81.63,22.29Zm67.88-67.89L965.6,992.88l-3.19-11.69,81.64,22.28Zm67.89-67.88L1033.48,925l-3.18-11.69,81.63,22.28ZM1183,879.4l-81.63-22.29-3.19-11.68,81.63,22.28Zm67.88-67.88-81.63-22.29-3.19-11.69,81.63,22.29Zm67.88-67.89-81.63-22.28-3.19-11.69,81.63,22.28Zm67.88-67.88L1305,653.47l-3.19-11.69,81.64,22.28Zm67.89-67.88-81.64-22.28-3.18-11.69,81.63,22.28Z"/></g><path class="cls-16" d="M1446.82,556.18l0,0,6.36,23.34-93.32-25.48,25.44,93.36L1292,622l25.44,93.35-93.32-25.47,25.44,93.35-93.33-25.47,25.44,93.35-93.32-25.47L1113.75,919l-93.32-25.48,25.44,93.36-93.32-25.47L978,1054.71l-93.32-25.47,25.44,93.35-93.33-25.47,25.44,93.36L748.9,1165l25.44,93.36L681,1232.89l25.44,93.35-93.32-25.47,25.44,93.35-93.33-25.47L570.69,1462l-93.32-25.47,25.44,93.36-93.32-25.48,25.44,93.36-93.32-25.47,19.09,70,8.48-8.48,0,0-6.36-23.34,93.32,25.48-25.44-93.36L524,1568.05,498.6,1474.7l93.32,25.47-25.44-93.35,93.33,25.47-25.44-93.35,93.32,25.47-25.44-93.36,93.32,25.48-25.44-93.36,93.32,25.47L838,1135.29l93.32,25.47-25.44-93.35,93.33,25.47-25.44-93.36L1067.1,1025l-25.44-93.36L1135,957.11l-25.44-93.35,93.32,25.47-25.44-93.35,93.33,25.47L1245.31,728l93.32,25.47-25.44-93.36,93.32,25.48-25.44-93.36,93.32,25.47-19.09-70ZM441.29,1621.1l-81.63-22.28-3.19-11.69,81.64,22.28Zm67.89-67.88-81.64-22.28-3.18-11.69L506,1541.53Zm67.88-67.88-81.63-22.28-3.19-11.69,81.63,22.28Zm67.88-67.88-81.63-22.29-3.19-11.69,81.63,22.29Zm67.88-67.89-81.63-22.28L628,1315.6l81.63,22.29Zm67.88-67.88-81.63-22.28-3.19-11.69L777.52,1270Zm67.89-67.88L767,1191.53l-3.18-11.69,81.63,22.28Zm67.88-67.88-81.63-22.29L831.65,1112l81.63,22.29Zm67.88-67.88-81.63-22.29-3.19-11.69,81.63,22.29Zm67.88-67.89L970.6,987.88l-3.19-11.69,81.64,22.28Zm67.89-67.88L1038.48,920l-3.18-11.69,81.63,22.28ZM1188,874.4l-81.63-22.29-3.19-11.68,81.63,22.28Zm67.88-67.88-81.63-22.29-3.19-11.69,81.63,22.29Zm67.88-67.89-81.63-22.28-3.19-11.69,81.63,22.28Zm67.88-67.88L1310,648.47l-3.19-11.69,81.64,22.28Zm67.89-67.88-81.64-22.28-3.18-11.69,81.63,22.28Z"/><g class="cls-3"><path class="cls-4" d="M1477.82,614.18l0,0,6.36,23.34-93.32-25.48,25.44,93.36L1323,680l25.44,93.35-93.32-25.47,25.44,93.35-93.33-25.47,25.44,93.35-93.32-25.47L1144.75,977l-93.32-25.48,25.44,93.36-93.32-25.47,25.44,93.35-93.32-25.47,25.44,93.35-93.33-25.47,25.44,93.36L779.9,1223l25.44,93.36L712,1290.89l25.44,93.35-93.32-25.47,25.44,93.35-93.33-25.47L601.69,1520l-93.32-25.47,25.44,93.36-93.32-25.48,25.44,93.36-93.32-25.47,19.09,70,8.48-8.48,0,0-6.36-23.34,93.32,25.48-25.44-93.36L555,1626.05,529.6,1532.7l93.32,25.47-25.44-93.35,93.33,25.47-25.44-93.35,93.32,25.47-25.44-93.36,93.32,25.48-25.44-93.36,93.32,25.47L869,1193.29l93.32,25.47-25.44-93.35,93.33,25.47-25.44-93.36L1098.1,1083l-25.44-93.36,93.32,25.47-25.44-93.35,93.32,25.47-25.44-93.35,93.33,25.47L1276.31,786l93.32,25.47-25.44-93.36,93.32,25.48-25.44-93.36,93.32,25.47-19.09-70ZM472.29,1679.1l-81.63-22.28-3.19-11.69,81.64,22.28Zm67.89-67.88-81.64-22.28-3.18-11.69L537,1599.53Zm67.88-67.88-81.63-22.28-3.19-11.69,81.63,22.28Zm67.88-67.88-81.63-22.29-3.19-11.69,81.63,22.29Zm67.88-67.89-81.63-22.28L659,1373.6l81.63,22.29Zm67.88-67.88-81.63-22.28-3.19-11.69L808.52,1328Zm67.89-67.88L798,1249.53l-3.18-11.69,81.63,22.28Zm67.88-67.88-81.63-22.29L862.65,1170l81.63,22.29Zm67.88-67.88-81.63-22.29-3.19-11.69,81.63,22.29Zm67.88-67.89-81.63-22.28-3.19-11.69,81.64,22.28Zm67.89-67.88L1069.48,978l-3.18-11.69,81.63,22.28ZM1219,932.4l-81.63-22.29-3.19-11.68,81.63,22.28Zm67.88-67.88-81.63-22.29-3.19-11.69,81.63,22.29Zm67.88-67.89-81.63-22.28-3.19-11.69,81.63,22.28Zm67.88-67.88L1341,706.47l-3.19-11.69,81.64,22.28Zm67.89-67.88-81.64-22.28-3.18-11.69,81.63,22.28Z"/></g><path class="cls-17" d="M1482.82,609.18l0,0,6.36,23.34-93.32-25.48,25.44,93.36L1328,675l25.44,93.35-93.32-25.47,25.44,93.35-93.33-25.47,25.44,93.35-93.32-25.47L1149.75,972l-93.32-25.48,25.44,93.36-93.32-25.47,25.44,93.35-93.32-25.47,25.44,93.35-93.33-25.47,25.44,93.36L784.9,1218l25.44,93.36L717,1285.89l25.44,93.35-93.32-25.47,25.44,93.35-93.33-25.47L606.69,1515l-93.32-25.47,25.44,93.36-93.32-25.48,25.44,93.36-93.32-25.47,19.09,70,8.48-8.48,0,0-6.36-23.34,93.32,25.48-25.44-93.36L560,1621.05,534.6,1527.7l93.32,25.47-25.44-93.35,93.33,25.47-25.44-93.35,93.32,25.47-25.44-93.36,93.32,25.48-25.44-93.36,93.32,25.47L874,1188.29l93.32,25.47-25.44-93.35,93.33,25.47-25.44-93.36L1103.1,1078l-25.44-93.36,93.32,25.47-25.44-93.35,93.32,25.47-25.44-93.35,93.33,25.47L1281.31,781l93.32,25.47-25.44-93.36,93.32,25.48-25.44-93.36,93.32,25.47-19.09-70ZM477.29,1674.1l-81.63-22.28-3.19-11.69,81.64,22.28Zm67.89-67.88-81.64-22.28-3.18-11.69L542,1594.53Zm67.88-67.88-81.63-22.28-3.19-11.69,81.63,22.28Zm67.88-67.88-81.63-22.29-3.19-11.69,81.63,22.29Zm67.88-67.89-81.63-22.28L664,1368.6l81.63,22.29Zm67.88-67.88-81.63-22.28-3.19-11.69L813.52,1323Zm67.89-67.88L803,1244.53l-3.18-11.69,81.63,22.28Zm67.88-67.88-81.63-22.29L867.65,1165l81.63,22.29Zm67.88-67.88-81.63-22.29-3.19-11.69,81.63,22.29Zm67.88-67.89-81.63-22.28-3.19-11.69,81.64,22.28Zm67.89-67.88L1074.48,973l-3.18-11.69,81.63,22.28ZM1224,927.4l-81.63-22.29-3.19-11.68,81.63,22.28Zm67.88-67.88-81.63-22.29-3.19-11.69,81.63,22.29Zm67.88-67.89-81.63-22.28-3.19-11.69,81.63,22.28Zm67.88-67.88L1346,701.47l-3.19-11.69,81.64,22.28Zm67.89-67.88-81.64-22.28-3.18-11.69,81.63,22.28Z"/><g class="cls-3"><path class="cls-4" d="M1009.82-74.82l0,0,6.36,23.34L922.84-76.94l25.44,93.36L855-9,880.4,84.3,787.08,58.83l25.44,93.35-93.33-25.47,25.44,93.35-93.32-25.47L676.75,288l-93.32-25.48,25.44,93.36-93.32-25.47L541,423.71l-93.32-25.47,25.44,93.35-93.33-25.47,25.44,93.36L311.9,534l25.44,93.36L244,601.89l25.44,93.35-93.32-25.47,25.44,93.35-93.33-25.47L133.69,831,40.37,805.53l25.44,93.36-93.32-25.48,25.44,93.36L-95.39,941.3l19.09,70,8.48-8.48,0,0-6.36-23.34,93.32,25.48L-6.28,911.58,87,937.05,61.6,843.7l93.32,25.47-25.44-93.35,93.33,25.47-25.44-93.35,93.32,25.47-25.44-93.36,93.32,25.48-25.44-93.36,93.32,25.47L401,504.29l93.32,25.47-25.44-93.35,93.33,25.47-25.44-93.36L630.1,394l-25.44-93.36L698,326.11l-25.44-93.35,93.32,25.47-25.44-93.35,93.33,25.47L808.31,97l93.32,25.47L876.19,29.11l93.32,25.48L944.07-38.77l93.32,25.47-19.09-70ZM4.29,990.1l-81.63-22.28-3.19-11.69L1.11,978.41Zm67.89-67.88L-9.46,899.94l-3.18-11.69L69,910.53Zm67.88-67.88L58.43,832.06l-3.19-11.69,81.63,22.28Zm67.88-67.88-81.63-22.29-3.19-11.69,81.63,22.29Zm67.88-67.89-81.63-22.28L191,684.6l81.63,22.29Zm67.88-67.88-81.63-22.28-3.19-11.69L340.52,639Zm67.89-67.88L330,560.53l-3.18-11.69,81.63,22.28Zm67.88-67.88-81.63-22.29L394.65,481l81.63,22.29Zm67.88-67.88-81.63-22.29-3.19-11.69,81.63,22.29Zm67.88-67.89L533.6,356.88l-3.19-11.69,81.64,22.28Zm67.89-67.88L601.48,289l-3.18-11.69,81.63,22.28ZM751,243.4l-81.63-22.29-3.19-11.68,81.63,22.28Zm67.88-67.88-81.63-22.29-3.19-11.69,81.63,22.29Zm67.88-67.89L805.13,85.35l-3.19-11.69,81.63,22.28Zm67.88-67.88L873,17.47,869.82,5.78l81.64,22.28Zm67.89-67.88L940.89-50.41,937.71-62.1l81.63,22.28Z"/></g><path class="cls-18" d="M1014.82-79.82l0,0,6.36,23.34L927.84-81.94l25.44,93.36L860-14,885.4,79.3,792.08,53.83l25.44,93.35-93.33-25.47,25.44,93.35-93.32-25.47L681.75,283l-93.32-25.48,25.44,93.36-93.32-25.47L546,418.71l-93.32-25.47,25.44,93.35-93.33-25.47,25.44,93.36L316.9,529l25.44,93.36L249,596.89l25.44,93.35-93.32-25.47,25.44,93.35-93.33-25.47L138.69,826,45.37,800.53l25.44,93.36-93.32-25.48L2.93,961.77-90.39,936.3l19.09,70,8.48-8.48,0,0-6.36-23.34,93.32,25.48L-1.28,906.58,92,932.05,66.6,838.7l93.32,25.47-25.44-93.35,93.33,25.47-25.44-93.35,93.32,25.47-25.44-93.36,93.32,25.48-25.44-93.36,93.32,25.47L406,499.29l93.32,25.47-25.44-93.35,93.33,25.47-25.44-93.36L635.1,389l-25.44-93.36L703,321.11l-25.44-93.35,93.32,25.47-25.44-93.35,93.33,25.47L813.31,92l93.32,25.47L881.19,24.11l93.32,25.48L949.07-43.77l93.32,25.47-19.09-70ZM9.29,985.1l-81.63-22.28-3.19-11.69L6.11,973.41Zm67.89-67.88L-4.46,894.94l-3.18-11.69L74,905.53Zm67.88-67.88L63.43,827.06l-3.19-11.69,81.63,22.28Zm67.88-67.88-81.63-22.29-3.19-11.69,81.63,22.29Zm67.88-67.89-81.63-22.28L196,679.6l81.63,22.29Zm67.88-67.88-81.63-22.28-3.19-11.69L345.52,634Zm67.89-67.88L335,555.53l-3.18-11.69,81.63,22.28Zm67.88-67.88-81.63-22.29L399.65,476l81.63,22.29Zm67.88-67.88-81.63-22.29-3.19-11.69,81.63,22.29Zm67.88-67.89L538.6,351.88l-3.19-11.69,81.64,22.28Zm67.89-67.88L606.48,284l-3.18-11.69,81.63,22.28ZM756,238.4l-81.63-22.29-3.19-11.68,81.63,22.28Zm67.88-67.88-81.63-22.29-3.19-11.69,81.63,22.29Zm67.88-67.89L810.13,80.35l-3.19-11.69,81.63,22.28Zm67.88-67.88L878,12.47,874.82.78l81.64,22.28Zm67.89-67.88L945.89-55.41,942.71-67.1l81.63,22.28Z"/><g class="cls-3"><path class="cls-4" d="M973.82-127.82l0,0,6.36,23.34-93.32-25.48,25.44,93.36L819-62,844.4,31.3,751.08,5.83l25.44,93.35L683.19,73.71l25.44,93.35-93.32-25.47L640.75,235l-93.32-25.48,25.44,93.36-93.32-25.47L505,370.71l-93.32-25.47,25.44,93.35-93.33-25.47,25.44,93.36L275.9,481l25.44,93.36L208,548.89l25.44,93.35-93.32-25.47,25.44,93.35L72.25,684.65,97.69,778,4.37,752.53l25.44,93.36-93.32-25.48,25.44,93.36-93.32-25.47,19.09,70,8.48-8.48,0,0-6.36-23.34,93.32,25.48-25.44-93.36L51,884.05,25.6,790.7l93.32,25.47L93.48,722.82l93.33,25.47-25.44-93.35,93.32,25.47-25.44-93.36,93.32,25.48-25.44-93.36,93.32,25.47L365,451.29l93.32,25.47-25.44-93.35,93.33,25.47-25.44-93.36L594.1,341l-25.44-93.36L662,273.11l-25.44-93.35,93.32,25.47-25.44-93.35,93.33,25.47L772.31,44l93.32,25.47L840.19-23.89,933.51,1.59,908.07-91.77l93.32,25.47-19.09-70ZM-31.71,937.1l-81.63-22.28-3.19-11.69,81.64,22.28Zm67.89-67.88-81.64-22.28-3.18-11.69L33,857.53Zm67.88-67.88L22.43,779.06l-3.19-11.69,81.63,22.28Zm67.88-67.88L90.31,711.17l-3.19-11.69,81.63,22.29Zm67.88-67.89-81.63-22.28L155,631.6l81.63,22.29Zm67.88-67.88-81.63-22.28-3.19-11.69L304.52,586Zm67.89-67.88L294,507.53l-3.18-11.69,81.63,22.28Zm67.88-67.88-81.63-22.29L358.65,428l81.63,22.29Zm67.88-67.88-81.63-22.29-3.19-11.69,81.63,22.29Zm67.88-67.89L497.6,303.88l-3.19-11.69,81.64,22.28Zm67.89-67.88L565.48,236l-3.18-11.69,81.63,22.28ZM715,190.4l-81.63-22.29-3.19-11.68,81.63,22.28Zm67.88-67.88-81.63-22.29-3.19-11.69,81.63,22.29Zm67.88-67.89L769.13,32.35l-3.19-11.69,81.63,22.28Zm67.88-67.88L837-35.53l-3.19-11.69,81.64,22.28Zm67.89-67.88-81.64-22.28-3.18-11.69,81.63,22.28Z"/></g><path class="cls-19" d="M978.82-132.82l0,0,6.36,23.34-93.32-25.48,25.44,93.36L824-67,849.4,26.3,756.08.83l25.44,93.35L688.19,68.71l25.44,93.35-93.32-25.47L645.75,230l-93.32-25.48,25.44,93.36-93.32-25.47L510,365.71l-93.32-25.47,25.44,93.35-93.33-25.47,25.44,93.36L280.9,476l25.44,93.36L213,543.89l25.44,93.35-93.32-25.47,25.44,93.35L77.25,679.65,102.69,773,9.37,747.53l25.44,93.36-93.32-25.48,25.44,93.36-93.32-25.47,19.09,70,8.48-8.48,0,0-6.36-23.34,93.32,25.48-25.44-93.36L56,879.05,30.6,785.7l93.32,25.47L98.48,717.82l93.33,25.47-25.44-93.35,93.32,25.47-25.44-93.36,93.32,25.48-25.44-93.36,93.32,25.47L370,446.29l93.32,25.47-25.44-93.35,93.33,25.47-25.44-93.36L599.1,336l-25.44-93.36L667,268.11l-25.44-93.35,93.32,25.47-25.44-93.35,93.33,25.47L777.31,39l93.32,25.47L845.19-28.89,938.51-3.41,913.07-96.77l93.32,25.47-19.09-70ZM-26.71,932.1l-81.63-22.28-3.19-11.69,81.64,22.28Zm67.89-67.88-81.64-22.28-3.18-11.69L38,852.53Zm67.88-67.88L27.43,774.06l-3.19-11.69,81.63,22.28Zm67.88-67.88L95.31,706.17l-3.19-11.69,81.63,22.29Zm67.88-67.89-81.63-22.28L160,626.6l81.63,22.29Zm67.88-67.88-81.63-22.28-3.19-11.69L309.52,581Zm67.89-67.88L299,502.53l-3.18-11.69,81.63,22.28Zm67.88-67.88-81.63-22.29L363.65,423l81.63,22.29Zm67.88-67.88-81.63-22.29-3.19-11.69,81.63,22.29Zm67.88-67.89L502.6,298.88l-3.19-11.69,81.64,22.28Zm67.89-67.88L570.48,231l-3.18-11.69,81.63,22.28ZM720,185.4l-81.63-22.29-3.19-11.68,81.63,22.28Zm67.88-67.88L706.25,95.23l-3.19-11.69,81.63,22.29Zm67.88-67.89L774.13,27.35l-3.19-11.69,81.63,22.28Zm67.88-67.88L842-40.53l-3.19-11.69,81.64,22.28Zm67.89-67.88-81.64-22.28-3.18-11.69,81.63,22.28Z"/><g class="cls-3"><path class="cls-4" d="M937.82-180.82l0,0,6.36,23.34-93.32-25.48,25.44,93.36L783-115,808.4-21.7,715.08-47.17l25.44,93.35L647.19,20.71l25.44,93.35L579.31,88.59,604.75,182l-93.32-25.48,25.44,93.36-93.32-25.47L469,317.71l-93.32-25.47,25.44,93.35-93.33-25.47,25.44,93.36L239.9,428l25.44,93.36L172,495.89l25.44,93.35-93.32-25.47,25.44,93.35L36.25,631.65,61.69,725l-93.32-25.47,25.44,93.36-93.32-25.48,25.44,93.36-93.32-25.47,19.09,70,8.48-8.48,0,0-6.36-23.34,93.32,25.48-25.44-93.36L15,831.05-10.4,737.7l93.32,25.47L57.48,669.82l93.33,25.47-25.44-93.35,93.32,25.47-25.44-93.36,93.32,25.48-25.44-93.36,93.32,25.47L329,398.29l93.32,25.47-25.44-93.35,93.33,25.47-25.44-93.36L558.1,288l-25.44-93.36L626,220.11l-25.44-93.35,93.32,25.47L668.42,58.88l93.33,25.47L736.31-9l93.32,25.47L804.19-76.89l93.32,25.48-25.44-93.36,93.32,25.47-19.09-70ZM-67.71,884.1l-81.63-22.28-3.19-11.69,81.64,22.28ZM.18,816.22l-81.64-22.28-3.18-11.69L-3,804.53Zm67.88-67.88-81.63-22.28-3.19-11.69,81.63,22.28Zm67.88-67.88L54.31,658.17l-3.19-11.69,81.63,22.29Zm67.88-67.89-81.63-22.28L119,578.6l81.63,22.29Zm67.88-67.88-81.63-22.28-3.19-11.69L268.52,533Zm67.89-67.88L258,454.53l-3.18-11.69,81.63,22.28Zm67.88-67.88-81.63-22.29L322.65,375l81.63,22.29Zm67.88-67.88-81.63-22.29-3.19-11.69,81.63,22.29Zm67.88-67.89L461.6,250.88l-3.19-11.69,81.64,22.28Zm67.89-67.88L529.48,183l-3.18-11.69,81.63,22.28ZM679,137.4l-81.63-22.29-3.19-11.68,81.63,22.28Zm67.88-67.88L665.25,47.23l-3.19-11.69,81.63,22.29ZM814.76,1.63,733.13-20.65l-3.19-11.69,81.63,22.28Zm67.88-67.88L801-88.53l-3.19-11.69,81.64,22.28Zm67.89-67.88-81.64-22.28-3.18-11.69,81.63,22.28Z"/></g><path class="cls-20" d="M942.82-185.82l0,0,6.36,23.34-93.32-25.48,25.44,93.36L788-120,813.4-26.7,720.08-52.17l25.44,93.35L652.19,15.71l25.44,93.35L584.31,83.59,609.75,177l-93.32-25.48,25.44,93.36-93.32-25.47L474,312.71l-93.32-25.47,25.44,93.35-93.33-25.47,25.44,93.36L244.9,423l25.44,93.36L177,490.89l25.44,93.35-93.32-25.47,25.44,93.35L41.25,626.65,66.69,720l-93.32-25.47,25.44,93.36-93.32-25.48,25.44,93.36-93.32-25.47,19.09,70,8.48-8.48,0,0-6.36-23.34,93.32,25.48-25.44-93.36L20,826.05-5.4,732.7l93.32,25.47L62.48,664.82l93.33,25.47-25.44-93.35,93.32,25.47-25.44-93.36,93.32,25.48-25.44-93.36,93.32,25.47L334,393.29l93.32,25.47-25.44-93.35,93.33,25.47-25.44-93.36L563.1,283l-25.44-93.36L631,215.11l-25.44-93.35,93.32,25.47L673.42,53.88l93.33,25.47L741.31-14l93.32,25.47L809.19-81.89l93.32,25.48-25.44-93.36,93.32,25.47-19.09-70ZM-62.71,879.1l-81.63-22.28-3.19-11.69,81.64,22.28ZM5.18,811.22l-81.64-22.28-3.18-11.69L2,799.53Zm67.88-67.88L-8.57,721.06l-3.19-11.69,81.63,22.28Zm67.88-67.88L59.31,653.17l-3.19-11.69,81.63,22.29Zm67.88-67.89-81.63-22.28L124,573.6l81.63,22.29Zm67.88-67.88-81.63-22.28-3.19-11.69L273.52,528Zm67.89-67.88L263,449.53l-3.18-11.69,81.63,22.28Zm67.88-67.88-81.63-22.29L327.65,370l81.63,22.29Zm67.88-67.88-81.63-22.29-3.19-11.69,81.63,22.29Zm67.88-67.89L466.6,245.88l-3.19-11.69,81.64,22.28Zm67.89-67.88L534.48,178l-3.18-11.69,81.63,22.28ZM684,132.4l-81.63-22.29-3.19-11.68,81.63,22.28Zm67.88-67.88L670.25,42.23l-3.19-11.69,81.63,22.29ZM819.76-3.37,738.13-25.65l-3.19-11.69,81.63,22.28Zm67.88-67.88L806-93.53l-3.19-11.69,81.64,22.28Zm67.89-67.88-81.64-22.28-3.18-11.69,81.63,22.28Z"/><g class="cls-3"><path class="cls-4" d="M901.82-233.82l0,0,6.36,23.34-93.32-25.48,25.44,93.36L747-168,772.4-74.7l-93.32-25.47L704.52-6.82,611.19-32.29l25.44,93.35L543.31,35.59,568.75,129l-93.32-25.48,25.44,93.36-93.32-25.47L433,264.71l-93.32-25.47,25.44,93.35-93.33-25.47,25.44,93.36L203.9,375l25.44,93.36L136,442.89l25.44,93.35L68.14,510.77l25.44,93.35L.25,578.65,25.69,672l-93.32-25.47,25.44,93.36-93.32-25.48,25.44,93.36-93.32-25.47,19.09,70,8.48-8.48,0,0-6.36-23.34,93.32,25.48-25.44-93.36L-21,778.05-46.4,684.7l93.32,25.47L21.48,616.82l93.33,25.47L89.37,548.94l93.32,25.47-25.44-93.36,93.32,25.48-25.44-93.36,93.32,25.47L293,345.29l93.32,25.47-25.44-93.35,93.33,25.47-25.44-93.36L522.1,235l-25.44-93.36L590,167.11,564.54,73.76l93.32,25.47L632.42,5.88l93.33,25.47L700.31-62l93.32,25.47-25.44-93.36,93.32,25.48-25.44-93.36,93.32,25.47-19.09-70ZM-103.71,831.1l-81.63-22.28-3.19-11.69,81.64,22.28Zm67.89-67.88-81.64-22.28-3.18-11.69L-39,751.53Zm67.88-67.88-81.63-22.28-3.19-11.69,81.63,22.28Zm67.88-67.88L18.31,605.17l-3.19-11.69,81.63,22.29Zm67.88-67.89L86.19,537.29,83,525.6l81.63,22.29Zm67.88-67.88-81.63-22.28-3.19-11.69L232.52,480Zm67.89-67.88L222,401.53l-3.18-11.69,81.63,22.28Zm67.88-67.88-81.63-22.29L286.65,322l81.63,22.29Zm67.88-67.88-81.63-22.29-3.19-11.69,81.63,22.29Zm67.88-67.89L425.6,197.88l-3.19-11.69,81.64,22.28Zm67.89-67.88L493.48,130l-3.18-11.69,81.63,22.28ZM643,84.4,561.37,62.11l-3.19-11.68,81.63,22.28Zm67.88-67.88L629.25-5.77l-3.19-11.69L707.69,4.83Zm67.88-67.89L697.13-73.65l-3.19-11.69,81.63,22.28Zm67.88-67.88L765-141.53l-3.19-11.69,81.64,22.28Zm67.89-67.88-81.64-22.28-3.18-11.69,81.63,22.28Z"/></g><path class="cls-21" d="M906.82-238.82l0,0,6.36,23.34-93.32-25.48,25.44,93.36L752-173,777.4-79.7l-93.32-25.47,25.44,93.35L616.19-37.29l25.44,93.35L548.31,30.59,573.75,124,480.43,98.47l25.44,93.36-93.32-25.47L438,259.71l-93.32-25.47,25.44,93.35-93.33-25.47,25.44,93.36L208.9,370l25.44,93.36L141,437.89l25.44,93.35L73.14,505.77l25.44,93.35L5.25,573.65,30.69,667l-93.32-25.47,25.44,93.36-93.32-25.48,25.44,93.36-93.32-25.47,19.09,70,8.48-8.48,0,0-6.36-23.34,93.32,25.48-25.44-93.36L-16,773.05-41.4,679.7l93.32,25.47L26.48,611.82l93.33,25.47L94.37,543.94l93.32,25.47-25.44-93.36,93.32,25.48-25.44-93.36,93.32,25.47L298,340.29l93.32,25.47-25.44-93.35,93.33,25.47-25.44-93.36L527.1,230l-25.44-93.36L595,162.11,569.54,68.76l93.32,25.47L637.42.88l93.33,25.47L705.31-67l93.32,25.47-25.44-93.36,93.32,25.48-25.44-93.36,93.32,25.47-19.09-70ZM-98.71,826.1l-81.63-22.28-3.19-11.69,81.64,22.28Zm67.89-67.88-81.64-22.28-3.18-11.69L-34,746.53Zm67.88-67.88-81.63-22.28-3.19-11.69,81.63,22.28Zm67.88-67.88L23.31,600.17l-3.19-11.69,81.63,22.29Zm67.88-67.89L91.19,532.29,88,520.6l81.63,22.29Zm67.88-67.88-81.63-22.28-3.19-11.69L237.52,475Zm67.89-67.88L227,396.53l-3.18-11.69,81.63,22.28Zm67.88-67.88-81.63-22.29L291.65,317l81.63,22.29Zm67.88-67.88-81.63-22.29-3.19-11.69,81.63,22.29Zm67.88-67.89L430.6,192.88l-3.19-11.69,81.64,22.28Zm67.89-67.88L498.48,125l-3.18-11.69,81.63,22.28ZM648,79.4,566.37,57.11l-3.19-11.68,81.63,22.28Zm67.88-67.88L634.25-10.77l-3.19-11.69L712.69-.17Zm67.88-67.89L702.13-78.65l-3.19-11.69,81.63,22.28Zm67.88-67.88L770-146.53l-3.19-11.69,81.64,22.28Zm67.89-67.88-81.64-22.28-3.18-11.69,81.63,22.28Z"/><g class="cls-3"><path class="cls-4" d="M865.82-286.82l0,0,6.36,23.34-93.32-25.48,25.44,93.36L711-221,736.4-127.7l-93.32-25.47,25.44,93.35L575.19-85.29,600.63,8.06,507.31-17.41,532.75,76,439.43,50.47l25.44,93.36-93.32-25.47L397,211.71l-93.32-25.47,25.44,93.35-93.33-25.47,25.44,93.36L167.9,322l25.44,93.36L100,389.89l25.44,93.35L32.14,457.77l25.44,93.35-93.33-25.47L-10.31,619l-93.32-25.47,25.44,93.36-93.32-25.48,25.44,93.36-93.32-25.47,19.09,70,8.48-8.48,0,0-6.36-23.34,93.32,25.48-25.44-93.36L-57,725.05-82.4,631.7l93.32,25.47-25.44-93.35,93.33,25.47L53.37,495.94l93.32,25.47-25.44-93.36,93.32,25.48-25.44-93.36,93.32,25.47L257,292.29l93.32,25.47-25.44-93.35,93.33,25.47-25.44-93.36L486.1,182,460.66,88.64,554,114.11,528.54,20.76l93.32,25.47L596.42-47.12l93.33,25.47L664.31-115l93.32,25.47-25.44-93.36,93.32,25.48-25.44-93.36,93.32,25.47-19.09-70ZM-139.71,778.1l-81.63-22.28-3.19-11.69,81.64,22.28Zm67.89-67.88-81.64-22.28-3.18-11.69L-75,698.53Zm67.88-67.88-81.63-22.28-3.19-11.69,81.63,22.28Zm67.88-67.88-81.63-22.29-3.19-11.69,81.63,22.29Zm67.88-67.89L50.19,484.29,47,472.6l81.63,22.29Zm67.88-67.88-81.63-22.28-3.19-11.69L196.52,427Zm67.89-67.88L186,348.53l-3.18-11.69,81.63,22.28Zm67.88-67.88-81.63-22.29L250.65,269l81.63,22.29Zm67.88-67.88-81.63-22.29-3.19-11.69,81.63,22.29Zm67.88-67.89L389.6,144.88l-3.19-11.69,81.64,22.28Zm67.89-67.88L457.48,77,454.3,65.31l81.63,22.28ZM607,31.4,525.37,9.11,522.18-2.57l81.63,22.28Zm67.88-67.88L593.25-58.77l-3.19-11.69,81.63,22.29Zm67.88-67.89-81.63-22.28-3.19-11.69,81.63,22.28Zm67.88-67.88L729-194.53l-3.19-11.69,81.64,22.28Zm67.89-67.88-81.64-22.28-3.18-11.69,81.63,22.28Z"/></g><path class="cls-22" d="M870.82-291.82l0,0,6.36,23.34-93.32-25.48,25.44,93.36L716-226,741.4-132.7l-93.32-25.47,25.44,93.35L580.19-90.29,605.63,3.06,512.31-22.41,537.75,71,444.43,45.47l25.44,93.36-93.32-25.47L402,206.71l-93.32-25.47,25.44,93.35-93.33-25.47,25.44,93.36L172.9,317l25.44,93.36L105,384.89l25.44,93.35L37.14,452.77l25.44,93.35-93.33-25.47L-5.31,614l-93.32-25.47,25.44,93.36-93.32-25.48,25.44,93.36-93.32-25.47,19.09,70,8.48-8.48,0,0-6.36-23.34,93.32,25.48-25.44-93.36L-52,720.05-77.4,626.7l93.32,25.47L-9.52,558.82l93.33,25.47L58.37,490.94l93.32,25.47-25.44-93.36,93.32,25.48-25.44-93.36,93.32,25.47L262,287.29l93.32,25.47-25.44-93.35,93.33,25.47-25.44-93.36L491.1,177,465.66,83.64,559,109.11,533.54,15.76l93.32,25.47L601.42-52.12l93.33,25.47L669.31-120l93.32,25.47-25.44-93.36,93.32,25.48-25.44-93.36,93.32,25.47-19.09-70ZM-134.71,773.1l-81.63-22.28-3.19-11.69,81.64,22.28Zm67.89-67.88-81.64-22.28-3.18-11.69L-70,693.53ZM1.06,637.34l-81.63-22.28-3.19-11.69,81.63,22.28Zm67.88-67.88-81.63-22.29-3.19-11.69,81.63,22.29Zm67.88-67.89L55.19,479.29,52,467.6l81.63,22.29Zm67.88-67.88-81.63-22.28-3.19-11.69L201.52,422Zm67.89-67.88L191,343.53l-3.18-11.69,81.63,22.28Zm67.88-67.88-81.63-22.29L255.65,264l81.63,22.29Zm67.88-67.88-81.63-22.29-3.19-11.69,81.63,22.29Zm67.88-67.89L394.6,139.88l-3.19-11.69,81.64,22.28Zm67.89-67.88L462.48,72,459.3,60.31l81.63,22.28ZM612,26.4,530.37,4.11,527.18-7.57l81.63,22.28Zm67.88-67.88L598.25-63.77l-3.19-11.69,81.63,22.29Zm67.88-67.89-81.63-22.28-3.19-11.69,81.63,22.28Zm67.88-67.88L734-199.53l-3.19-11.69,81.64,22.28Zm67.89-67.88-81.64-22.28-3.18-11.69,81.63,22.28Z"/><g class="cls-3"><path class="cls-4" d="M829.82-339.82l0,0,6.36,23.34-93.32-25.48,25.44,93.36L675-274,700.4-180.7l-93.32-25.47,25.44,93.35-93.33-25.47,25.44,93.35L471.31-70.41,496.75,23,403.43-2.53l25.44,93.36L335.55,65.36,361,158.71l-93.32-25.47,25.44,93.35-93.33-25.47,25.44,93.36L131.9,269l25.44,93.36L64,336.89l25.44,93.35L-3.86,404.77l25.44,93.35-93.33-25.47L-46.31,566l-93.32-25.47,25.44,93.36-93.32-25.48,25.44,93.36-93.32-25.47,19.09,70,8.48-8.48,0,0-6.36-23.34,93.32,25.48-25.44-93.36L-93,672.05-118.4,578.7l93.32,25.47-25.44-93.35,93.33,25.47L17.37,442.94l93.32,25.47L85.25,375.05l93.32,25.48-25.44-93.36,93.32,25.47L221,239.29l93.32,25.47-25.44-93.35,93.33,25.47-25.44-93.36L450.1,129,424.66,35.64,518,61.11,492.54-32.24,585.86-6.77l-25.44-93.35,93.33,25.47L628.31-168l93.32,25.47-25.44-93.36,93.32,25.48-25.44-93.36,93.32,25.47-19.09-70ZM-175.71,725.1l-81.63-22.28-3.19-11.69,81.64,22.28Zm67.89-67.88-81.64-22.28-3.18-11.69L-111,645.53Zm67.88-67.88-81.63-22.28-3.19-11.69,81.63,22.28Zm67.88-67.88-81.63-22.29-3.19-11.69,81.63,22.29Zm67.88-67.89L14.19,431.29,11,419.6l81.63,22.29Zm67.88-67.88L82.07,363.41l-3.19-11.69L160.52,374Zm67.89-67.88L150,295.53l-3.18-11.69,81.63,22.28Zm67.88-67.88-81.63-22.29L214.65,216l81.63,22.29Zm67.88-67.88-81.63-22.29-3.19-11.69,81.63,22.29Zm67.88-67.89L353.6,91.88l-3.19-11.69,81.64,22.28Zm67.89-67.88L421.48,24,418.3,12.31l81.63,22.28ZM571-21.6,489.37-43.89l-3.19-11.68,81.63,22.28Zm67.88-67.88-81.63-22.29-3.19-11.69,81.63,22.29Zm67.88-67.89-81.63-22.28-3.19-11.69,81.63,22.28Zm67.88-67.88L693-247.53l-3.19-11.69,81.64,22.28Zm67.89-67.88-81.64-22.28-3.18-11.69,81.63,22.28Z"/></g><path class="cls-23" d="M834.82-344.82l0,0,6.36,23.34-93.32-25.48,25.44,93.36L680-279,705.4-185.7l-93.32-25.47,25.44,93.35-93.33-25.47,25.44,93.35L476.31-75.41,501.75,18,408.43-7.53l25.44,93.36L340.55,60.36,366,153.71l-93.32-25.47,25.44,93.35-93.33-25.47,25.44,93.36L136.9,264l25.44,93.36L69,331.89l25.44,93.35L1.14,399.77l25.44,93.35-93.33-25.47L-41.31,561l-93.32-25.47,25.44,93.36-93.32-25.48,25.44,93.36-93.32-25.47,19.09,70,8.48-8.48,0,0-6.36-23.34,93.32,25.48-25.44-93.36L-88,667.05-113.4,573.7l93.32,25.47-25.44-93.35,93.33,25.47L22.37,437.94l93.32,25.47L90.25,370.05l93.32,25.48-25.44-93.36,93.32,25.47L226,234.29l93.32,25.47-25.44-93.35,93.33,25.47L361.78,98.52,455.1,124,429.66,30.64,523,56.11,497.54-37.24l93.32,25.47-25.44-93.35,93.33,25.47L633.31-173l93.32,25.47-25.44-93.36,93.32,25.48-25.44-93.36,93.32,25.47-19.09-70ZM-170.71,720.1l-81.63-22.28-3.19-11.69,81.64,22.28Zm67.89-67.88-81.64-22.28-3.18-11.69L-106,640.53Zm67.88-67.88-81.63-22.28-3.19-11.69,81.63,22.28Zm67.88-67.88-81.63-22.29-3.19-11.69,81.63,22.29Zm67.88-67.89L19.19,426.29,16,414.6l81.63,22.29Zm67.88-67.88L87.07,358.41l-3.19-11.69L165.52,369Zm67.89-67.88L155,290.53l-3.18-11.69,81.63,22.28Zm67.88-67.88-81.63-22.29L219.65,211l81.63,22.29Zm67.88-67.88-81.63-22.29-3.19-11.69,81.63,22.29Zm67.88-67.89L358.6,86.88l-3.19-11.69,81.64,22.28Zm67.89-67.88L426.48,19,423.3,7.31l81.63,22.28ZM576-26.6,494.37-48.89l-3.19-11.68,81.63,22.28Zm67.88-67.88-81.63-22.29-3.19-11.69,81.63,22.29Zm67.88-67.89-81.63-22.28-3.19-11.69,81.63,22.28Zm67.88-67.88L698-252.53l-3.19-11.69,81.64,22.28Zm67.89-67.88-81.64-22.28-3.18-11.69,81.63,22.28Z"/><g class="cls-3"><path class="cls-4" d="M793.82-392.82l0,0,6.36,23.34-93.32-25.48,25.44,93.36L639-327,664.4-233.7l-93.32-25.47,25.44,93.35-93.33-25.47,25.44,93.35-93.32-25.47L460.75-30,367.43-55.53l25.44,93.36L299.55,12.36,325,105.71,231.67,80.24l25.44,93.35-93.33-25.47,25.44,93.36L95.9,216l25.44,93.36L28,283.89l25.44,93.35-93.32-25.47,25.44,93.35-93.33-25.47L-82.31,513l-93.32-25.47,25.44,93.36-93.32-25.48,25.44,93.36-93.32-25.47,19.09,70,8.48-8.48,0,0-6.36-23.34,93.32,25.48-25.44-93.36L-129,619.05-154.4,525.7l93.32,25.47-25.44-93.35L6.81,483.29l-25.44-93.35,93.32,25.47L49.25,322.05l93.32,25.48-25.44-93.36,93.32,25.47L185,186.29l93.32,25.47-25.44-93.35,93.33,25.47L320.78,50.52,414.1,76,388.66-17.36,482,8.11,456.54-85.24l93.32,25.47-25.44-93.35,93.33,25.47L592.31-221l93.32,25.47-25.44-93.36,93.32,25.48-25.44-93.36,93.32,25.47-19.09-70ZM-211.71,672.1l-81.63-22.28-3.19-11.69,81.64,22.28Zm67.89-67.88-81.64-22.28-3.18-11.69L-147,592.53Zm67.88-67.88-81.63-22.28-3.19-11.69,81.63,22.28Zm67.88-67.88-81.63-22.29-3.19-11.69,81.63,22.29Zm67.88-67.89-81.63-22.28L-25,366.6l81.63,22.29Zm67.88-67.88L46.07,310.41l-3.19-11.69L124.52,321Zm67.89-67.88L114,242.53l-3.18-11.69,81.63,22.28Zm67.88-67.88-81.63-22.29L178.65,163l81.63,22.29Zm67.88-67.88-81.63-22.29-3.19-11.69,81.63,22.29Zm67.88-67.89L317.6,38.88l-3.19-11.69,81.64,22.28ZM467.12-6.72,385.48-29,382.3-40.69l81.63,22.28ZM535-74.6,453.37-96.89l-3.19-11.68,81.63,22.28Zm67.88-67.88-81.63-22.29-3.19-11.69,81.63,22.29Zm67.88-67.89-81.63-22.28-3.19-11.69,81.63,22.28Zm67.88-67.88L657-300.53l-3.19-11.69,81.64,22.28Zm67.89-67.88-81.64-22.28-3.18-11.69,81.63,22.28Z"/></g><path class="cls-24" d="M798.82-397.82l0,0,6.36,23.34-93.32-25.48,25.44,93.36L644-332,669.4-238.7l-93.32-25.47,25.44,93.35-93.33-25.47,25.44,93.35-93.32-25.47L465.75-35,372.43-60.53l25.44,93.36L304.55,7.36,330,100.71,236.67,75.24l25.44,93.35-93.33-25.47,25.44,93.36L100.9,211l25.44,93.36L33,278.89l25.44,93.35-93.32-25.47,25.44,93.35-93.33-25.47L-77.31,508l-93.32-25.47,25.44,93.36-93.32-25.48,25.44,93.36-93.32-25.47,19.09,70,8.48-8.48,0,0-6.36-23.34,93.32,25.48-25.44-93.36L-124,614.05-149.4,520.7l93.32,25.47-25.44-93.35,93.33,25.47-25.44-93.35,93.32,25.47L54.25,317.05l93.32,25.48-25.44-93.36,93.32,25.47L190,181.29l93.32,25.47-25.44-93.35,93.33,25.47L325.78,45.52,419.1,71,393.66-22.36,487,3.11,461.54-90.24l93.32,25.47-25.44-93.35,93.33,25.47L597.31-226l93.32,25.47-25.44-93.36,93.32,25.48-25.44-93.36,93.32,25.47-19.09-70ZM-206.71,667.1l-81.63-22.28-3.19-11.69,81.64,22.28Zm67.89-67.88-81.64-22.28-3.18-11.69L-142,587.53Zm67.88-67.88-81.63-22.28-3.19-11.69,81.63,22.28Zm67.88-67.88-81.63-22.29-3.19-11.69,81.63,22.29Zm67.88-67.89-81.63-22.28L-20,361.6l81.63,22.29Zm67.88-67.88L51.07,305.41l-3.19-11.69L129.52,316Zm67.89-67.88L119,237.53l-3.18-11.69,81.63,22.28Zm67.88-67.88-81.63-22.29L183.65,158l81.63,22.29Zm67.88-67.88-81.63-22.29-3.19-11.69,81.63,22.29Zm67.88-67.89L322.6,33.88l-3.19-11.69,81.64,22.28Zm67.89-67.88L390.48-34,387.3-45.69l81.63,22.28ZM540-79.6l-81.63-22.29-3.19-11.68,81.63,22.28Zm67.88-67.88-81.63-22.29-3.19-11.69,81.63,22.29Zm67.88-67.89-81.63-22.28-3.19-11.69,81.63,22.28Zm67.88-67.88L662-305.53l-3.19-11.69,81.64,22.28Zm67.89-67.88-81.64-22.28-3.18-11.69,81.63,22.28Z"/><g class="cls-3"><path class="cls-4" d="M757.82-445.82l0,0,6.36,23.34-93.32-25.48,25.44,93.36L603-380,628.4-286.7l-93.32-25.47,25.44,93.35-93.33-25.47,25.44,93.35-93.32-25.47L424.75-83l-93.32-25.48,25.44,93.36L263.55-40.64,289,52.71,195.67,27.24l25.44,93.35L127.78,95.12l25.44,93.36L59.9,163l25.44,93.36L-8,230.89l25.44,93.35-93.32-25.47,25.44,93.35-93.33-25.47L-118.31,460l-93.32-25.47,25.44,93.36-93.32-25.48,25.44,93.36-93.32-25.47,19.09,70,8.48-8.48,0,0-6.36-23.34,93.32,25.48-25.44-93.36L-165,566.05-190.4,472.7l93.32,25.47-25.44-93.35,93.33,25.47-25.44-93.35,93.32,25.47L13.25,269.05l93.32,25.48L81.13,201.17l93.32,25.47L149,133.29l93.32,25.47L216.89,65.41l93.33,25.47L284.78-2.48,378.1,23,352.66-70.36,446-44.89l-25.44-93.35,93.32,25.47-25.44-93.35,93.33,25.47L556.31-274l93.32,25.47-25.44-93.36,93.32,25.48-25.44-93.36,93.32,25.47-19.09-70ZM-247.71,619.1l-81.63-22.28-3.19-11.69,81.64,22.28Zm67.89-67.88-81.64-22.28-3.18-11.69L-183,539.53Zm67.88-67.88-81.63-22.28-3.19-11.69,81.63,22.28Zm67.88-67.88-81.63-22.29-3.19-11.69,81.63,22.29Zm67.88-67.89-81.63-22.28L-61,313.6l81.63,22.29ZM91.7,279.69,10.07,257.41,6.88,245.72,88.52,268Zm67.89-67.88L78,189.53l-3.18-11.69,81.63,22.28Zm67.88-67.88-81.63-22.29L142.65,110l81.63,22.29Zm67.88-67.88L213.72,53.76l-3.19-11.69,81.63,22.29ZM363.23,8.16,281.6-14.12l-3.19-11.69L360.05-3.53Zm67.89-67.88L349.48-82,346.3-93.69l81.63,22.28ZM499-127.6l-81.63-22.29-3.19-11.68,81.63,22.28Zm67.88-67.88-81.63-22.29-3.19-11.69,81.63,22.29Zm67.88-67.89-81.63-22.28-3.19-11.69,81.63,22.28Zm67.88-67.88L621-353.53l-3.19-11.69,81.64,22.28Zm67.89-67.88-81.64-22.28-3.18-11.69,81.63,22.28Z"/></g><path class="cls-25" d="M762.82-450.82l0,0,6.36,23.34-93.32-25.48,25.44,93.36L608-385,633.4-291.7l-93.32-25.47,25.44,93.35-93.33-25.47,25.44,93.35-93.32-25.47L429.75-88l-93.32-25.48,25.44,93.36L268.55-45.64,294,47.71,200.67,22.24l25.44,93.35L132.78,90.12l25.44,93.36L64.9,158l25.44,93.36L-3,225.89l25.44,93.35-93.32-25.47,25.44,93.35-93.33-25.47L-113.31,455l-93.32-25.47,25.44,93.36-93.32-25.48,25.44,93.36-93.32-25.47,19.09,70,8.48-8.48,0,0-6.36-23.34,93.32,25.48-25.44-93.36L-160,561.05-185.4,467.7l93.32,25.47-25.44-93.35,93.33,25.47-25.44-93.35,93.32,25.47L18.25,264.05l93.32,25.48L86.13,196.17l93.32,25.47L154,128.29l93.32,25.47L221.89,60.41l93.33,25.47L289.78-7.48,383.1,18,357.66-75.36,451-49.89l-25.44-93.35,93.32,25.47-25.44-93.35,93.33,25.47L561.31-279l93.32,25.47-25.44-93.36,93.32,25.48-25.44-93.36,93.32,25.47-19.09-70ZM-242.71,614.1l-81.63-22.28-3.19-11.69,81.64,22.28Zm67.89-67.88-81.64-22.28-3.18-11.69L-178,534.53Zm67.88-67.88-81.63-22.28-3.19-11.69,81.63,22.28Zm67.88-67.88-81.63-22.29-3.19-11.69,81.63,22.29Zm67.88-67.89-81.63-22.28L-56,308.6l81.63,22.29ZM96.7,274.69,15.07,252.41l-3.19-11.69L93.52,263Zm67.89-67.88L83,184.53l-3.18-11.69,81.63,22.28Zm67.88-67.88-81.63-22.29L147.65,105l81.63,22.29Zm67.88-67.88L218.72,48.76l-3.19-11.69,81.63,22.29ZM368.23,3.16,286.6-19.12l-3.19-11.69L365.05-8.53Zm67.89-67.88L354.48-87,351.3-98.69l81.63,22.28ZM504-132.6l-81.63-22.29-3.19-11.68,81.63,22.28Zm67.88-67.88-81.63-22.29-3.19-11.69,81.63,22.29Zm67.88-67.89-81.63-22.28-3.19-11.69,81.63,22.28Zm67.88-67.88L626-358.53l-3.19-11.69,81.64,22.28Zm67.89-67.88-81.64-22.28-3.18-11.69,81.63,22.28Z"/><g class="cls-3"><path class="cls-4" d="M721.82-498.82l0,0,6.36,23.34-93.32-25.48,25.44,93.36L567-433,592.4-339.7l-93.32-25.47,25.44,93.35-93.33-25.47,25.44,93.35-93.32-25.47L388.75-136l-93.32-25.48,25.44,93.36L227.55-93.64,253-.29,159.67-25.76l25.44,93.35L91.78,42.12l25.44,93.36L23.9,110l25.44,93.36L-44,177.89l25.44,93.35-93.32-25.47,25.44,93.35-93.33-25.47L-154.31,407l-93.32-25.47,25.44,93.36-93.32-25.48,25.44,93.36-93.32-25.47,19.09,70,8.48-8.48,0,0-6.36-23.34,93.32,25.48-25.44-93.36L-201,513.05-226.4,419.7l93.32,25.47-25.44-93.35,93.33,25.47-25.44-93.35L2.69,309.41l-25.44-93.36,93.32,25.48L45.13,148.17l93.32,25.47L113,80.29l93.32,25.47L180.89,12.41l93.33,25.47L248.78-55.48,342.1-30l-25.44-93.36L410-97.89l-25.44-93.35,93.32,25.47-25.44-93.35,93.33,25.47L520.31-327l93.32,25.47-25.44-93.36,93.32,25.48-25.44-93.36,93.32,25.47-19.09-70ZM-283.71,566.1l-81.63-22.28-3.19-11.69,81.64,22.28Zm67.89-67.88-81.64-22.28-3.18-11.69L-219,486.53Zm67.88-67.88-81.63-22.28-3.19-11.69,81.63,22.28Zm67.88-67.88-81.63-22.29-3.19-11.69,81.63,22.29Zm67.88-67.89-81.63-22.28L-97,260.6l81.63,22.29ZM55.7,226.69l-81.63-22.28-3.19-11.69L52.52,215Zm67.89-67.88L42,136.53l-3.18-11.69,81.63,22.28Zm67.88-67.88L109.84,68.64,106.65,57l81.63,22.29Zm67.88-67.88L177.72.76l-3.19-11.69,81.63,22.29Zm67.88-67.89L245.6-67.12l-3.19-11.69,81.64,22.28Zm67.89-67.88L313.48-135l-3.18-11.69,81.63,22.28ZM463-180.6l-81.63-22.29-3.19-11.68,81.63,22.28Zm67.88-67.88-81.63-22.29-3.19-11.69,81.63,22.29Zm67.88-67.89-81.63-22.28-3.19-11.69,81.63,22.28Zm67.88-67.88L585-406.53l-3.19-11.69,81.64,22.28Zm67.89-67.88-81.64-22.28-3.18-11.69,81.63,22.28Z"/></g><path class="cls-26" d="M726.82-503.82l0,0,6.36,23.34-93.32-25.48,25.44,93.36L572-438,597.4-344.7l-93.32-25.47,25.44,93.35-93.33-25.47,25.44,93.35-93.32-25.47L393.75-141l-93.32-25.48,25.44,93.36L232.55-98.64,258-5.29,164.67-30.76l25.44,93.35L96.78,37.12l25.44,93.36L28.9,105l25.44,93.36L-39,172.89l25.44,93.35-93.32-25.47,25.44,93.35-93.33-25.47L-149.31,402l-93.32-25.47,25.44,93.36-93.32-25.48,25.44,93.36-93.32-25.47,19.09,70,8.48-8.48,0,0-6.36-23.34,93.32,25.48-25.44-93.36L-196,508.05-221.4,414.7l93.32,25.47-25.44-93.35,93.33,25.47-25.44-93.35L7.69,304.41l-25.44-93.36,93.32,25.48L50.13,143.17l93.32,25.47L118,75.29l93.32,25.47L185.89,7.41l93.33,25.47L253.78-60.48,347.1-35l-25.44-93.36L415-102.89l-25.44-93.35,93.32,25.47-25.44-93.35,93.33,25.47L525.31-332l93.32,25.47-25.44-93.36,93.32,25.48-25.44-93.36,93.32,25.47-19.09-70ZM-278.71,561.1l-81.63-22.28-3.19-11.69,81.64,22.28Zm67.89-67.88-81.64-22.28-3.18-11.69L-214,481.53Zm67.88-67.88-81.63-22.28-3.19-11.69,81.63,22.28Zm67.88-67.88-81.63-22.29-3.19-11.69,81.63,22.29Zm67.88-67.89-81.63-22.28L-92,255.6l81.63,22.29ZM60.7,221.69l-81.63-22.28-3.19-11.69L57.52,210Zm67.89-67.88L47,131.53l-3.18-11.69,81.63,22.28Zm67.88-67.88L114.84,63.64,111.65,52l81.63,22.29Zm67.88-67.88L182.72-4.24l-3.19-11.69L261.16,6.36Zm67.88-67.89L250.6-72.12l-3.19-11.69,81.64,22.28Zm67.89-67.88L318.48-140l-3.18-11.69,81.63,22.28ZM468-185.6l-81.63-22.29-3.19-11.68,81.63,22.28Zm67.88-67.88-81.63-22.29-3.19-11.69,81.63,22.29Zm67.88-67.89-81.63-22.28-3.19-11.69,81.63,22.28Zm67.88-67.88L590-411.53l-3.19-11.69,81.64,22.28Zm67.89-67.88-81.64-22.28-3.18-11.69,81.63,22.28Z"/><g class="cls-3"><path class="cls-4" d="M685.82-551.82l0,0,6.36,23.34-93.32-25.48,25.44,93.36L531-486,556.4-392.7l-93.32-25.47,25.44,93.35-93.33-25.47,25.44,93.35-93.32-25.47L352.75-189l-93.32-25.48,25.44,93.36-93.32-25.47L217-53.29,123.67-78.76l25.44,93.35L55.78-10.88,81.22,82.48-12.1,57l25.44,93.36L-80,124.89l25.44,93.35-93.32-25.47,25.44,93.35-93.33-25.47L-190.31,354l-93.32-25.47,25.44,93.36-93.32-25.48,25.44,93.36-93.32-25.47,19.09,70,8.48-8.48,0,0-6.36-23.34,93.32,25.48-25.44-93.36L-237,460.05-262.4,366.7l93.32,25.47-25.44-93.35,93.33,25.47-25.44-93.35,93.32,25.47-25.44-93.36,93.32,25.48L9.13,95.17l93.32,25.47L77,27.29l93.32,25.47L144.89-40.59l93.33,25.47-25.44-93.36L306.1-83l-25.44-93.36L374-150.89l-25.44-93.35,93.32,25.47-25.44-93.35,93.33,25.47L484.31-380l93.32,25.47-25.44-93.36,93.32,25.48-25.44-93.36,93.32,25.47-19.09-70ZM-319.71,513.1l-81.63-22.28-3.19-11.69,81.64,22.28Zm67.89-67.88-81.64-22.28-3.18-11.69L-255,433.53Zm67.88-67.88-81.63-22.28-3.19-11.69,81.63,22.28Zm67.88-67.88-81.63-22.29-3.19-11.69,81.63,22.29Zm67.88-67.89-81.63-22.28L-133,207.6l81.63,22.29ZM19.7,173.69l-81.63-22.28-3.19-11.69L16.52,162Zm67.89-67.88L6,83.53,2.77,71.84,84.4,94.12Zm67.88-67.88L73.84,15.64,70.65,4l81.63,22.29Zm67.88-67.88L141.72-52.24l-3.19-11.69,81.63,22.29Zm67.88-67.89L209.6-120.12l-3.19-11.69,81.64,22.28Zm67.89-67.88L277.48-188l-3.18-11.69,81.63,22.28ZM427-233.6l-81.63-22.29-3.19-11.68,81.63,22.28Zm67.88-67.88-81.63-22.29-3.19-11.69,81.63,22.29Zm67.88-67.89-81.63-22.28-3.19-11.69,81.63,22.28Zm67.88-67.88L549-459.53l-3.19-11.69,81.64,22.28Zm67.89-67.88-81.64-22.28-3.18-11.69,81.63,22.28Z"/></g><path class="cls-27" d="M690.82-556.82l0,0,6.36,23.34-93.32-25.48,25.44,93.36L536-491,561.4-397.7l-93.32-25.47,25.44,93.35-93.33-25.47,25.44,93.35-93.32-25.47L357.75-194l-93.32-25.48,25.44,93.36-93.32-25.47L222-58.29,128.67-83.76,154.11,9.59,60.78-15.88,86.22,77.48-7.1,52l25.44,93.36L-75,119.89l25.44,93.35-93.32-25.47,25.44,93.35-93.33-25.47L-185.31,349l-93.32-25.47,25.44,93.36-93.32-25.48,25.44,93.36-93.32-25.47,19.09,70,8.48-8.48,0,0-6.36-23.34,93.32,25.48-25.44-93.36L-232,455.05-257.4,361.7l93.32,25.47-25.44-93.35,93.33,25.47-25.44-93.35,93.32,25.47-25.44-93.36,93.32,25.48L14.13,90.17l93.32,25.47L82,22.29l93.32,25.47L149.89-45.59l93.33,25.47-25.44-93.36L311.1-88l-25.44-93.36L379-155.89l-25.44-93.35,93.32,25.47-25.44-93.35,93.33,25.47L489.31-385l93.32,25.47-25.44-93.36,93.32,25.48-25.44-93.36,93.32,25.47-19.09-70ZM-314.71,508.1l-81.63-22.28-3.19-11.69,81.64,22.28Zm67.89-67.88-81.64-22.28-3.18-11.69L-250,428.53Zm67.88-67.88-81.63-22.28-3.19-11.69,81.63,22.28Zm67.88-67.88-81.63-22.29-3.19-11.69,81.63,22.29Zm67.88-67.89-81.63-22.28L-128,202.6l81.63,22.29ZM24.7,168.69l-81.63-22.28-3.19-11.69L21.52,157Zm67.89-67.88L11,78.53,7.77,66.84,89.4,89.12Zm67.88-67.88L78.84,10.64,75.65-1l81.63,22.29Zm67.88-67.88L146.72-57.24l-3.19-11.69,81.63,22.29Zm67.88-67.89L214.6-125.12l-3.19-11.69,81.64,22.28Zm67.89-67.88L282.48-193l-3.18-11.69,81.63,22.28ZM432-238.6l-81.63-22.29-3.19-11.68,81.63,22.28Zm67.88-67.88-81.63-22.29-3.19-11.69,81.63,22.29Zm67.88-67.89-81.63-22.28-3.19-11.69,81.63,22.28Zm67.88-67.88L554-464.53l-3.19-11.69,81.64,22.28Zm67.89-67.88-81.64-22.28-3.18-11.69,81.63,22.28Z"/><g class="cls-3"><path class="cls-4" d="M649.82-604.82l0,0,6.36,23.34-93.32-25.48,25.44,93.36L495-539,520.4-445.7l-93.32-25.47,25.44,93.35-93.33-25.47,25.44,93.35-93.32-25.47L316.75-242l-93.32-25.48,25.44,93.36-93.32-25.47L181-106.29,87.67-131.76l25.44,93.35L19.78-63.88,45.22,29.48-48.1,4l25.44,93.36L-116,71.89l25.44,93.35-93.32-25.47,25.44,93.35-93.33-25.47L-226.31,301l-93.32-25.47,25.44,93.36-93.32-25.48,25.44,93.36-93.32-25.47,19.09,70,8.48-8.48,0,0-6.36-23.34,93.32,25.48-25.44-93.36L-273,407.05-298.4,313.7l93.32,25.47-25.44-93.35,93.33,25.47-25.44-93.35,93.32,25.47-25.44-93.36,93.32,25.48L-26.87,42.17,66.45,67.64,41-25.71,134.33-.24,108.89-93.59l93.33,25.47-25.44-93.36L270.1-136l-25.44-93.36L338-203.89l-25.44-93.35,93.32,25.47-25.44-93.35,93.33,25.47L448.31-433l93.32,25.47-25.44-93.36,93.32,25.48-25.44-93.36,93.32,25.47-19.09-70ZM-355.71,460.1l-81.63-22.28-3.19-11.69,81.64,22.28Zm67.89-67.88-81.64-22.28-3.18-11.69L-291,380.53Zm67.88-67.88-81.63-22.28-3.19-11.69,81.63,22.28Zm67.88-67.88-81.63-22.29-3.19-11.69,81.63,22.29Zm67.88-67.89-81.63-22.28L-169,154.6l81.63,22.29Zm67.88-67.88L-97.93,98.41l-3.19-11.69L-19.48,109ZM51.59,52.81-30,30.53l-3.18-11.69L48.4,41.12Zm67.88-67.88L37.84-37.36,34.65-49l81.63,22.29Zm67.88-67.88-81.63-22.29-3.19-11.69,81.63,22.29Zm67.88-67.89L173.6-173.12l-3.19-11.69,81.64,22.28Zm67.89-67.88L241.48-241l-3.18-11.69,81.63,22.28ZM391-286.6l-81.63-22.29-3.19-11.68,81.63,22.28Zm67.88-67.88-81.63-22.29-3.19-11.69,81.63,22.29Zm67.88-67.89-81.63-22.28-3.19-11.69,81.63,22.28Zm67.88-67.88L513-512.53l-3.19-11.69,81.64,22.28Zm67.89-67.88-81.64-22.28-3.18-11.69,81.63,22.28Z"/></g><path class="cls-28" d="M654.82-609.82l0,0,6.36,23.34-93.32-25.48,25.44,93.36L500-544,525.4-450.7l-93.32-25.47,25.44,93.35-93.33-25.47,25.44,93.35-93.32-25.47L321.75-247l-93.32-25.48,25.44,93.36-93.32-25.47L186-111.29,92.67-136.76l25.44,93.35L24.78-68.88,50.22,24.48-43.1-1l25.44,93.36L-111,66.89l25.44,93.35-93.32-25.47,25.44,93.35-93.33-25.47L-221.31,296l-93.32-25.47,25.44,93.36-93.32-25.48,25.44,93.36-93.32-25.47,19.09,70,8.48-8.48,0,0-6.36-23.34,93.32,25.48-25.44-93.36L-268,402.05-293.4,308.7l93.32,25.47-25.44-93.35,93.33,25.47-25.44-93.35,93.32,25.47-25.44-93.36L3.57,130.53-21.87,37.17,71.45,62.64,46-30.71,139.33-5.24,113.89-98.59l93.33,25.47-25.44-93.36L275.1-141l-25.44-93.36L343-208.89l-25.44-93.35,93.32,25.47-25.44-93.35,93.33,25.47L453.31-438l93.32,25.47-25.44-93.36,93.32,25.48-25.44-93.36,93.32,25.47-19.09-70ZM-350.71,455.1l-81.63-22.28-3.19-11.69,81.64,22.28Zm67.89-67.88-81.64-22.28-3.18-11.69L-286,375.53Zm67.88-67.88-81.63-22.28-3.19-11.69,81.63,22.28Zm67.88-67.88-81.63-22.29-3.19-11.69,81.63,22.29Zm67.88-67.89-81.63-22.28L-164,149.6l81.63,22.29Zm67.88-67.88L-92.93,93.41l-3.19-11.69L-14.48,104ZM56.59,47.81-25,25.53l-3.18-11.69L53.4,36.12Zm67.88-67.88L42.84-42.36,39.65-54l81.63,22.29Zm67.88-67.88-81.63-22.29-3.19-11.69,81.63,22.29Zm67.88-67.89L178.6-178.12l-3.19-11.69,81.64,22.28Zm67.89-67.88L246.48-246l-3.18-11.69,81.63,22.28ZM396-291.6l-81.63-22.29-3.19-11.68,81.63,22.28Zm67.88-67.88-81.63-22.29-3.19-11.69,81.63,22.29Zm67.88-67.89-81.63-22.28-3.19-11.69,81.63,22.28Zm67.88-67.88L518-517.53l-3.19-11.69,81.64,22.28Zm67.89-67.88-81.64-22.28-3.18-11.69,81.63,22.28Z"/><g class="cls-3"><path class="cls-4" d="M613.82-657.82l0,0,6.36,23.34-93.32-25.48,25.44,93.36L459-592,484.4-498.7l-93.32-25.47,25.44,93.35-93.33-25.47,25.44,93.35-93.32-25.47L280.75-295l-93.32-25.48,25.44,93.36-93.32-25.47L145-159.29,51.67-184.76,77.11-91.41l-93.33-25.47L9.22-23.52-84.1-49l25.44,93.36L-152,18.89l25.44,93.35-93.32-25.47,25.44,93.35-93.33-25.47L-262.31,248l-93.32-25.47,25.44,93.36-93.32-25.48,25.44,93.36-93.32-25.47,19.09,70,8.48-8.48,0,0-6.36-23.34,93.32,25.48-25.44-93.36L-309,354.05-334.4,260.7l93.32,25.47-25.44-93.35,93.33,25.47-25.44-93.35,93.32,25.47-25.44-93.36,93.32,25.48L-62.87-10.83,30.45,14.64,5-78.71,98.33-53.24,72.89-146.59l93.33,25.47-25.44-93.36L234.1-189l-25.44-93.36L302-256.89l-25.44-93.35,93.32,25.47-25.44-93.35,93.33,25.47L412.31-486l93.32,25.47-25.44-93.36,93.32,25.48-25.44-93.36,93.32,25.47-19.09-70ZM-391.71,407.1l-81.63-22.28-3.19-11.69,81.64,22.28Zm67.89-67.88-81.64-22.28-3.18-11.69L-327,327.53Zm67.88-67.88-81.63-22.28-3.19-11.69,81.63,22.28Zm67.88-67.88-81.63-22.29-3.19-11.69,81.63,22.29Zm67.88-67.89-81.63-22.28L-205,101.6l81.63,22.29ZM-52.3,67.69l-81.63-22.28-3.19-11.69L-55.48,56ZM15.59-.19-66-22.47l-3.18-11.69L12.4-11.88ZM83.47-68.07,1.84-90.36-1.35-102,80.28-79.76Zm67.88-67.88L69.72-158.24l-3.19-11.69,81.63,22.29Zm67.88-67.89L137.6-226.12l-3.19-11.69,81.64,22.28Zm67.89-67.88L205.48-294l-3.18-11.69,81.63,22.28ZM355-339.6l-81.63-22.29-3.19-11.68,81.63,22.28Zm67.88-67.88-81.63-22.29-3.19-11.69,81.63,22.29Zm67.88-67.89-81.63-22.28-3.19-11.69,81.63,22.28Zm67.88-67.88L477-565.53l-3.19-11.69,81.64,22.28Zm67.89-67.88-81.64-22.28-3.18-11.69,81.63,22.28Z"/></g><path class="cls-29" d="M618.82-662.82l0,0,6.36,23.34-93.32-25.48,25.44,93.36L464-597,489.4-503.7l-93.32-25.47,25.44,93.35-93.33-25.47,25.44,93.35-93.32-25.47L285.75-300l-93.32-25.48,25.44,93.36-93.32-25.47L150-164.29,56.67-189.76,82.11-96.41l-93.33-25.47L14.22-28.52-79.1-54l25.44,93.36L-147,13.89l25.44,93.35-93.32-25.47,25.44,93.35-93.33-25.47L-257.31,243l-93.32-25.47,25.44,93.36-93.32-25.48,25.44,93.36-93.32-25.47,19.09,70,8.48-8.48,0,0-6.36-23.34,93.32,25.48-25.44-93.36L-304,349.05-329.4,255.7l93.32,25.47-25.44-93.35,93.33,25.47-25.44-93.35,93.32,25.47-25.44-93.36,93.32,25.48L-57.87-15.83,35.45,9.64,10-83.71l93.32,25.47L77.89-151.59l93.33,25.47-25.44-93.36L239.1-194l-25.44-93.36L307-261.89l-25.44-93.35,93.32,25.47-25.44-93.35,93.33,25.47L417.31-491l93.32,25.47-25.44-93.36,93.32,25.48-25.44-93.36,93.32,25.47-19.09-70ZM-386.71,402.1l-81.63-22.28-3.19-11.69,81.64,22.28Zm67.89-67.88-81.64-22.28-3.18-11.69L-322,322.53Zm67.88-67.88-81.63-22.28-3.19-11.69,81.63,22.28Zm67.88-67.88-81.63-22.29-3.19-11.69,81.63,22.29Zm67.88-67.89-81.63-22.28L-200,96.6l81.63,22.29ZM-47.3,62.69l-81.63-22.28-3.19-11.69L-50.48,51ZM20.59-5.19-61-27.47l-3.18-11.69L17.4-16.88ZM88.47-73.07,6.84-95.36,3.65-107,85.28-84.76Zm67.88-67.88L74.72-163.24l-3.19-11.69,81.63,22.29Zm67.88-67.89L142.6-231.12l-3.19-11.69,81.64,22.28Zm67.89-67.88L210.48-299l-3.18-11.69,81.63,22.28ZM360-344.6l-81.63-22.29-3.19-11.68,81.63,22.28Zm67.88-67.88-81.63-22.29-3.19-11.69,81.63,22.29Zm67.88-67.89-81.63-22.28-3.19-11.69,81.63,22.28Zm67.88-67.88L482-570.53l-3.19-11.69,81.64,22.28Zm67.89-67.88-81.64-22.28-3.18-11.69,81.63,22.28Z"/></g></svg>