<svg id="Layer_1" data-name="Layer 1" xmlns="http://www.w3.org/2000/svg" xmlns:xlink="http://www.w3.org/1999/xlink" viewBox="0 0 1024 1024"><defs><style>.cls-1{fill:none;}.cls-2{clip-path:url(#clip-path);}.cls-3{fill:#1a1d26;fill-rule:evenodd;}</style><clipPath id="clip-path"><rect class="cls-1" width="1024" height="1024"/></clipPath></defs><title>Artboard 1</title><g class="cls-2"><path class="cls-3" d="M1050.82-26.82l0,0,6.36,23.34L963.84-28.94l25.44,93.36L896,39,921.4,132.3l-93.32-25.47,25.44,93.35-93.33-25.47,25.44,93.35-93.32-25.47L717.75,336l-93.32-25.48,25.44,93.36-93.32-25.47L582,471.71l-93.32-25.47,25.44,93.35-93.33-25.47,25.44,93.36L352.9,582l25.44,93.36L285,649.89l25.44,93.35-93.32-25.47,25.44,93.35-93.33-25.47L174.69,879,81.37,853.53l25.44,93.36L13.49,921.41l25.44,93.36L-54.39,989.3l19.09,70,8.48-8.48,0,0-6.36-23.34,93.32,25.48L34.72,959.58,128,985.05,102.6,891.7l93.32,25.47-25.44-93.35,93.33,25.47-25.44-93.35,93.32,25.47-25.44-93.36,93.32,25.48-25.44-93.36,93.32,25.47L442,552.29l93.32,25.47-25.44-93.35,93.33,25.47-25.44-93.36L671.1,442l-25.44-93.36L739,374.11l-25.44-93.35,93.32,25.47-25.44-93.35,93.33,25.47L849.31,145l93.32,25.47L917.19,77.11l93.32,25.48L985.07,9.23l93.32,25.47-19.09-70ZM45.29,1038.1l-81.63-22.28-3.19-11.69,81.64,22.28Zm67.89-67.88L31.54,947.94l-3.18-11.69L110,958.53Zm67.88-67.88L99.43,880.06l-3.19-11.69,81.63,22.28Zm67.88-67.88-81.63-22.29-3.19-11.69,81.63,22.29Zm67.88-67.89-81.63-22.28L232,732.6l81.63,22.29Zm67.88-67.88-81.63-22.28-3.19-11.69L381.52,687Zm67.89-67.88L371,608.53l-3.18-11.69,81.63,22.28Zm67.88-67.88-81.63-22.29L435.65,529l81.63,22.29Zm67.88-67.88-81.63-22.29-3.19-11.69,81.63,22.29Zm67.88-67.89L574.6,404.88l-3.19-11.69,81.64,22.28Zm67.89-67.88L642.48,337l-3.18-11.69,81.63,22.28ZM792,291.4l-81.63-22.29-3.19-11.68,81.63,22.28Zm67.88-67.88-81.63-22.29-3.19-11.69,81.63,22.29Zm67.88-67.89-81.63-22.28-3.19-11.69,81.63,22.28Zm67.88-67.88L914,65.47l-3.19-11.69,81.64,22.28Zm67.89-67.88L981.89-2.41,978.71-14.1l81.63,22.28Z"/><path class="cls-3" d="M1086.82,26.18l0,0,6.36,23.34L999.84,24.06l25.44,93.36L932,92,957.4,185.3l-93.32-25.47,25.44,93.35-93.33-25.47,25.44,93.35-93.32-25.47L753.75,389l-93.32-25.48,25.44,93.36-93.32-25.47L618,524.71l-93.32-25.47,25.44,93.35-93.33-25.47,25.44,93.36L388.9,635l25.44,93.36L321,702.89l25.44,93.35-93.32-25.47,25.44,93.35-93.33-25.47L210.69,932l-93.32-25.47,25.44,93.36L49.49,974.41l25.44,93.36-93.32-25.47,19.09,70,8.48-8.48,0,0-6.36-23.34,93.32,25.48-25.44-93.36L164,1038.05,138.6,944.7l93.32,25.47-25.44-93.35,93.33,25.47-25.44-93.35,93.32,25.47-25.44-93.36,93.32,25.48-25.44-93.36,93.32,25.47L478,605.29l93.32,25.47-25.44-93.35,93.33,25.47-25.44-93.36L707.1,495l-25.44-93.36L775,427.11l-25.44-93.35,93.32,25.47-25.44-93.35,93.33,25.47L885.31,198l93.32,25.47-25.44-93.36,93.32,25.48-25.44-93.36,93.32,25.47-19.09-70ZM81.29,1091.1-.34,1068.82l-3.19-11.69,81.64,22.28Zm67.89-67.88-81.64-22.28-3.18-11.69L146,1011.53Zm67.88-67.88-81.63-22.28-3.19-11.69,81.63,22.28Zm67.88-67.88-81.63-22.29-3.19-11.69,81.63,22.29Zm67.88-67.89-81.63-22.28L268,785.6l81.63,22.29Zm67.88-67.88-81.63-22.28-3.19-11.69L417.52,740Zm67.89-67.88L407,661.53l-3.18-11.69,81.63,22.28Zm67.88-67.88-81.63-22.29L471.65,582l81.63,22.29Zm67.88-67.88-81.63-22.29-3.19-11.69,81.63,22.29Zm67.88-67.89L610.6,457.88l-3.19-11.69,81.64,22.28Zm67.89-67.88L678.48,390l-3.18-11.69,81.63,22.28ZM828,344.4l-81.63-22.29-3.19-11.68,81.63,22.28Zm67.88-67.88-81.63-22.29-3.19-11.69,81.63,22.29Zm67.88-67.89-81.63-22.28-3.19-11.69,81.63,22.28Zm67.88-67.88L950,118.47l-3.19-11.69,81.64,22.28Zm67.89-67.88-81.64-22.28-3.18-11.69,81.63,22.28Z"/><path class="cls-3" d="M1122.82,79.18l0,0,6.36,23.34-93.32-25.48,25.44,93.36L968,145,993.4,238.3l-93.32-25.47,25.44,93.35-93.33-25.47,25.44,93.35-93.32-25.47L789.75,442l-93.32-25.48,25.44,93.36-93.32-25.47L654,577.71l-93.32-25.47,25.44,93.35-93.33-25.47,25.44,93.36L424.9,688l25.44,93.36L357,755.89l25.44,93.35-93.32-25.47,25.44,93.35-93.33-25.47L246.69,985l-93.32-25.47,25.44,93.36-93.32-25.48,25.44,93.36L17.61,1095.3l19.09,70,8.48-8.48,0,0-6.36-23.34,93.32,25.48-25.44-93.36L200,1091.05,174.6,997.7l93.32,25.47-25.44-93.35,93.33,25.47-25.44-93.35,93.32,25.47-25.44-93.36,93.32,25.48-25.44-93.36,93.32,25.47L514,658.29l93.32,25.47-25.44-93.35,93.33,25.47-25.44-93.36L743.1,548l-25.44-93.36L811,480.11l-25.44-93.35,93.32,25.47-25.44-93.35,93.33,25.47L921.31,251l93.32,25.47-25.44-93.36,93.32,25.48-25.44-93.36,93.32,25.47-19.09-70ZM117.29,1144.1l-81.63-22.28-3.19-11.69,81.64,22.28Zm67.89-67.88-81.64-22.28-3.18-11.69L182,1064.53Zm67.88-67.88-81.63-22.28-3.19-11.69,81.63,22.28Zm67.88-67.88-81.63-22.29-3.19-11.69,81.63,22.29Zm67.88-67.89-81.63-22.28L304,838.6l81.63,22.29Zm67.88-67.88-81.63-22.28-3.19-11.69L453.52,793Zm67.89-67.88L443,714.53l-3.18-11.69,81.63,22.28Zm67.88-67.88-81.63-22.29L507.65,635l81.63,22.29Zm67.88-67.88-81.63-22.29-3.19-11.69,81.63,22.29Zm67.88-67.89L646.6,510.88l-3.19-11.69,81.64,22.28Zm67.89-67.88L714.48,443l-3.18-11.69,81.63,22.28ZM864,397.4l-81.63-22.29-3.19-11.68,81.63,22.28Zm67.88-67.88-81.63-22.29-3.19-11.69,81.63,22.29Zm67.88-67.89-81.63-22.28-3.19-11.69,81.63,22.28Zm67.88-67.88L986,171.47l-3.19-11.69,81.64,22.28Zm67.89-67.88-81.64-22.28-3.18-11.69,81.63,22.28Z"/><path class="cls-3" d="M1158.82,132.18l0,0,6.36,23.34-93.32-25.48,25.44,93.36L1004,198l25.44,93.35-93.32-25.47,25.44,93.35-93.33-25.47,25.44,93.35-93.32-25.47L825.75,495l-93.32-25.48,25.44,93.36-93.32-25.47L690,630.71l-93.32-25.47,25.44,93.35-93.33-25.47,25.44,93.36L460.9,741l25.44,93.36L393,808.89l25.44,93.35-93.32-25.47,25.44,93.35-93.33-25.47L282.69,1038l-93.32-25.47,25.44,93.36-93.32-25.48,25.44,93.36L53.61,1148.3l19.09,70,8.48-8.48,0,0-6.36-23.34,93.32,25.48-25.44-93.36L236,1144.05,210.6,1050.7l93.32,25.47-25.44-93.35,93.33,25.47-25.44-93.35,93.32,25.47-25.44-93.36,93.32,25.48-25.44-93.36,93.32,25.47L550,711.29l93.32,25.47-25.44-93.35,93.33,25.47-25.44-93.36L779.1,601l-25.44-93.36L847,533.11l-25.44-93.35,93.32,25.47-25.44-93.35,93.33,25.47L957.31,304l93.32,25.47-25.44-93.36,93.32,25.48-25.44-93.36,93.32,25.47-19.09-70ZM153.29,1197.1l-81.63-22.28-3.19-11.69,81.64,22.28Zm67.89-67.88-81.64-22.28-3.18-11.69L218,1117.53Zm67.88-67.88-81.63-22.28-3.19-11.69,81.63,22.28Zm67.88-67.88-81.63-22.29-3.19-11.69,81.63,22.29Zm67.88-67.89-81.63-22.28L340,891.6l81.63,22.29Zm67.88-67.88-81.63-22.28-3.19-11.69L489.52,846Zm67.89-67.88L479,767.53l-3.18-11.69,81.63,22.28Zm67.88-67.88-81.63-22.29L543.65,688l81.63,22.29Zm67.88-67.88-81.63-22.29-3.19-11.69,81.63,22.29Zm67.88-67.89L682.6,563.88l-3.19-11.69,81.64,22.28Zm67.89-67.88L750.48,496l-3.18-11.69,81.63,22.28ZM900,450.4l-81.63-22.29-3.19-11.68,81.63,22.28Zm67.88-67.88-81.63-22.29-3.19-11.69,81.63,22.29Zm67.88-67.89-81.63-22.28-3.19-11.69,81.63,22.28Zm67.88-67.88L1022,224.47l-3.19-11.69,81.64,22.28Zm67.89-67.88-81.64-22.28-3.18-11.69,81.63,22.28Z"/><path class="cls-3" d="M1194.82,185.18l0,0,6.36,23.34-93.32-25.48,25.44,93.36L1040,251l25.44,93.35-93.32-25.47,25.44,93.35-93.33-25.47,25.44,93.35-93.32-25.47L861.75,548l-93.32-25.48,25.44,93.36-93.32-25.47L726,683.71l-93.32-25.47,25.44,93.35-93.33-25.47,25.44,93.36L496.9,794l25.44,93.36L429,861.89l25.44,93.35-93.32-25.47,25.44,93.35-93.33-25.47L318.69,1091l-93.32-25.47,25.44,93.36-93.32-25.48,25.44,93.36L89.61,1201.3l19.09,70,8.48-8.48,0,0-6.36-23.34,93.32,25.48-25.44-93.36L272,1197.05,246.6,1103.7l93.32,25.47-25.44-93.35,93.33,25.47-25.44-93.35,93.32,25.47-25.44-93.36,93.32,25.48-25.44-93.36,93.32,25.47L586,764.29l93.32,25.47-25.44-93.35,93.33,25.47-25.44-93.36L815.1,654l-25.44-93.36L883,586.11l-25.44-93.35,93.32,25.47-25.44-93.35,93.33,25.47L993.31,357l93.32,25.47-25.44-93.36,93.32,25.48-25.44-93.36,93.32,25.47-19.09-70ZM189.29,1250.1l-81.63-22.28-3.19-11.69,81.64,22.28Zm67.89-67.88-81.64-22.28-3.18-11.69L254,1170.53Zm67.88-67.88-81.63-22.28-3.19-11.69,81.63,22.28Zm67.88-67.88-81.63-22.29-3.19-11.69,81.63,22.29Zm67.88-67.89-81.63-22.28L376,944.6l81.63,22.29Zm67.88-67.88-81.63-22.28-3.19-11.69L525.52,899Zm67.89-67.88L515,820.53l-3.18-11.69,81.63,22.28Zm67.88-67.88-81.63-22.29L579.65,741l81.63,22.29Zm67.88-67.88-81.63-22.29-3.19-11.69,81.63,22.29Zm67.88-67.89L718.6,616.88l-3.19-11.69,81.64,22.28Zm67.89-67.88L786.48,549l-3.18-11.69,81.63,22.28ZM936,503.4l-81.63-22.29-3.19-11.68,81.63,22.28Zm67.88-67.88-81.63-22.29-3.19-11.69,81.63,22.29Zm67.88-67.89-81.63-22.28-3.19-11.69,81.63,22.28Zm67.88-67.88L1058,277.47l-3.19-11.69,81.64,22.28Zm67.89-67.88-81.64-22.28-3.18-11.69,81.63,22.28Z"/><path class="cls-3" d="M1230.82,238.18l0,0,6.36,23.34-93.32-25.48,25.44,93.36L1076,304l25.44,93.35-93.32-25.47,25.44,93.35-93.33-25.47,25.44,93.35-93.32-25.47L897.75,601l-93.32-25.48,25.44,93.36-93.32-25.47L762,736.71l-93.32-25.47,25.44,93.35-93.33-25.47,25.44,93.36L532.9,847l25.44,93.36L465,914.89l25.44,93.35-93.32-25.47,25.44,93.35-93.33-25.47L354.69,1144l-93.32-25.47,25.44,93.36-93.32-25.48,25.44,93.36-93.32-25.47,19.09,70,8.48-8.48,0,0-6.36-23.34,93.32,25.48-25.44-93.36L308,1250.05,282.6,1156.7l93.32,25.47-25.44-93.35,93.33,25.47-25.44-93.35,93.32,25.47-25.44-93.36,93.32,25.48-25.44-93.36,93.32,25.47L622,817.29l93.32,25.47-25.44-93.35,93.33,25.47-25.44-93.36L851.1,707l-25.44-93.36L919,639.11l-25.44-93.35,93.32,25.47-25.44-93.35,93.33,25.47L1029.31,410l93.32,25.47-25.44-93.36,93.32,25.48-25.44-93.36,93.32,25.47-19.09-70ZM225.29,1303.1l-81.63-22.28-3.19-11.69,81.64,22.28Zm67.89-67.88-81.64-22.28-3.18-11.69L290,1223.53Zm67.88-67.88-81.63-22.28-3.19-11.69,81.63,22.28Zm67.88-67.88-81.63-22.29-3.19-11.69,81.63,22.29Zm67.88-67.89-81.63-22.28L412,997.6l81.63,22.29Zm67.88-67.88-81.63-22.28-3.19-11.69L561.52,952Zm67.89-67.88L551,873.53l-3.18-11.69,81.63,22.28Zm67.88-67.88-81.63-22.29L615.65,794l81.63,22.29Zm67.88-67.88-81.63-22.29-3.19-11.69,81.63,22.29Zm67.88-67.89L754.6,669.88l-3.19-11.69,81.64,22.28Zm67.89-67.88L822.48,602l-3.18-11.69,81.63,22.28ZM972,556.4l-81.63-22.29-3.19-11.68,81.63,22.28Zm67.88-67.88-81.63-22.29-3.19-11.69,81.63,22.29Zm67.88-67.89-81.63-22.28-3.19-11.69,81.63,22.28Zm67.88-67.88L1094,330.47l-3.19-11.69,81.64,22.28Zm67.89-67.88-81.64-22.28-3.18-11.69,81.63,22.28Z"/><path class="cls-3" d="M1266.82,291.18l0,0,6.36,23.34-93.32-25.48,25.44,93.36L1112,357l25.44,93.35-93.32-25.47,25.44,93.35-93.33-25.47,25.44,93.35-93.32-25.47L933.75,654l-93.32-25.48,25.44,93.36-93.32-25.47L798,789.71l-93.32-25.47,25.44,93.35-93.33-25.47,25.44,93.36L568.9,900l25.44,93.36L501,967.89l25.44,93.35-93.32-25.47,25.44,93.35-93.33-25.47L390.69,1197l-93.32-25.47,25.44,93.36-93.32-25.48,25.44,93.36-93.32-25.47,19.09,70,8.48-8.48,0,0-6.36-23.34,93.32,25.48-25.44-93.36L344,1303.05,318.6,1209.7l93.32,25.47-25.44-93.35,93.33,25.47-25.44-93.35,93.32,25.47-25.44-93.36,93.32,25.48-25.44-93.36,93.32,25.47L658,870.29l93.32,25.47-25.44-93.35,93.33,25.47-25.44-93.36L887.1,760l-25.44-93.36L955,692.11l-25.44-93.35,93.32,25.47-25.44-93.35,93.33,25.47L1065.31,463l93.32,25.47-25.44-93.36,93.32,25.48-25.44-93.36,93.32,25.47-19.09-70ZM261.29,1356.1l-81.63-22.28-3.19-11.69,81.64,22.28Zm67.89-67.88-81.64-22.28-3.18-11.69L326,1276.53Zm67.88-67.88-81.63-22.28-3.19-11.69,81.63,22.28Zm67.88-67.88-81.63-22.29-3.19-11.69,81.63,22.29Zm67.88-67.89-81.63-22.28L448,1050.6l81.63,22.29Zm67.88-67.88-81.63-22.28-3.19-11.69L597.52,1005Zm67.89-67.88L587,926.53l-3.18-11.69,81.63,22.28Zm67.88-67.88-81.63-22.29L651.65,847l81.63,22.29Zm67.88-67.88-81.63-22.29-3.19-11.69,81.63,22.29Zm67.88-67.89L790.6,722.88l-3.19-11.69,81.64,22.28Zm67.89-67.88L858.48,655l-3.18-11.69,81.63,22.28ZM1008,609.4l-81.63-22.29-3.19-11.68,81.63,22.28Zm67.88-67.88-81.63-22.29-3.19-11.69,81.63,22.29Zm67.88-67.89-81.63-22.28-3.19-11.69,81.63,22.28Zm67.88-67.88L1130,383.47l-3.19-11.69,81.64,22.28Zm67.89-67.88-81.64-22.28-3.18-11.69,81.63,22.28Z"/><path class="cls-3" d="M1302.82,344.18l0,0,6.36,23.34-93.32-25.48,25.44,93.36L1148,410l25.44,93.35-93.32-25.47,25.44,93.35-93.33-25.47,25.44,93.35-93.32-25.47L969.75,707l-93.32-25.48,25.44,93.36-93.32-25.47L834,842.71l-93.32-25.47,25.44,93.35-93.33-25.47,25.44,93.36L604.9,953l25.44,93.36L537,1020.89l25.44,93.35-93.32-25.47,25.44,93.35-93.33-25.47L426.69,1250l-93.32-25.47,25.44,93.36-93.32-25.48,25.44,93.36-93.32-25.47,19.09,70,8.48-8.48,0,0-6.36-23.34,93.32,25.48-25.44-93.36L380,1356.05,354.6,1262.7l93.32,25.47-25.44-93.35,93.33,25.47-25.44-93.35,93.32,25.47-25.44-93.36,93.32,25.48-25.44-93.36,93.32,25.47L694,923.29l93.32,25.47-25.44-93.35,93.33,25.47-25.44-93.36L923.1,813l-25.44-93.36L991,745.11l-25.44-93.35,93.32,25.47-25.44-93.35,93.33,25.47L1101.31,516l93.32,25.47-25.44-93.36,93.32,25.48-25.44-93.36,93.32,25.47-19.09-70ZM297.29,1409.1l-81.63-22.28-3.19-11.69,81.64,22.28Zm67.89-67.88-81.64-22.28-3.18-11.69L362,1329.53Zm67.88-67.88-81.63-22.28-3.19-11.69,81.63,22.28Zm67.88-67.88-81.63-22.29-3.19-11.69,81.63,22.29Zm67.88-67.89-81.63-22.28L484,1103.6l81.63,22.29Zm67.88-67.88-81.63-22.28-3.19-11.69L633.52,1058Zm67.89-67.88L623,979.53l-3.18-11.69,81.63,22.28Zm67.88-67.88-81.63-22.29L687.65,900l81.63,22.29Zm67.88-67.88-81.63-22.29-3.19-11.69,81.63,22.29Zm67.88-67.89L826.6,775.88l-3.19-11.69,81.64,22.28Zm67.89-67.88L894.48,708l-3.18-11.69,81.63,22.28ZM1044,662.4l-81.63-22.29-3.19-11.68,81.63,22.28Zm67.88-67.88-81.63-22.29-3.19-11.69,81.63,22.29Zm67.88-67.89-81.63-22.28-3.19-11.69,81.63,22.28Zm67.88-67.88L1166,436.47l-3.19-11.69,81.64,22.28Zm67.89-67.88-81.64-22.28-3.18-11.69,81.63,22.28Z"/><path class="cls-3" d="M1338.82,397.18l0,0,6.36,23.34-93.32-25.48,25.44,93.36L1184,463l25.44,93.35-93.32-25.47,25.44,93.35-93.33-25.47,25.44,93.35-93.32-25.47L1005.75,760l-93.32-25.48,25.44,93.36-93.32-25.47L870,895.71l-93.32-25.47,25.44,93.35-93.33-25.47,25.44,93.36L640.9,1006l25.44,93.36L573,1073.89l25.44,93.35-93.32-25.47,25.44,93.35-93.33-25.47L462.69,1303l-93.32-25.47,25.44,93.36-93.32-25.48,25.44,93.36-93.32-25.47,19.09,70,8.48-8.48,0,0-6.36-23.34,93.32,25.48-25.44-93.36L416,1409.05,390.6,1315.7l93.32,25.47-25.44-93.35,93.33,25.47-25.44-93.35,93.32,25.47-25.44-93.36,93.32,25.48-25.44-93.36,93.32,25.47L730,976.29l93.32,25.47-25.44-93.35,93.33,25.47-25.44-93.36L959.1,866l-25.44-93.36L1027,798.11l-25.44-93.35,93.32,25.47-25.44-93.35,93.33,25.47L1137.31,569l93.32,25.47-25.44-93.36,93.32,25.48-25.44-93.36,93.32,25.47-19.09-70ZM333.29,1462.1l-81.63-22.28-3.19-11.69,81.64,22.28Zm67.89-67.88-81.64-22.28-3.18-11.69L398,1382.53Zm67.88-67.88-81.63-22.28-3.19-11.69,81.63,22.28Zm67.88-67.88-81.63-22.29-3.19-11.69,81.63,22.29Zm67.88-67.89-81.63-22.28L520,1156.6l81.63,22.29Zm67.88-67.88-81.63-22.28-3.19-11.69L669.52,1111Zm67.89-67.88L659,1032.53l-3.18-11.69,81.63,22.28Zm67.88-67.88-81.63-22.29L723.65,953l81.63,22.29Zm67.88-67.88-81.63-22.29-3.19-11.69,81.63,22.29Zm67.88-67.89L862.6,828.88l-3.19-11.69,81.64,22.28Zm67.89-67.88L930.48,761l-3.18-11.69,81.63,22.28ZM1080,715.4l-81.63-22.29-3.19-11.68,81.63,22.28Zm67.88-67.88-81.63-22.29-3.19-11.69,81.63,22.29Zm67.88-67.89-81.63-22.28-3.19-11.69,81.63,22.28Zm67.88-67.88L1202,489.47l-3.19-11.69,81.64,22.28Zm67.89-67.88-81.64-22.28-3.18-11.69,81.63,22.28Z"/><path class="cls-3" d="M1374.82,450.18l0,0,6.36,23.34-93.32-25.48,25.44,93.36L1220,516l25.44,93.35-93.32-25.47,25.44,93.35-93.33-25.47,25.44,93.35-93.32-25.47L1041.75,813l-93.32-25.48,25.44,93.36-93.32-25.47L906,948.71l-93.32-25.47,25.44,93.35-93.33-25.47,25.44,93.36L676.9,1059l25.44,93.36L609,1126.89l25.44,93.35-93.32-25.47,25.44,93.35-93.33-25.47L498.69,1356l-93.32-25.47,25.44,93.36-93.32-25.48,25.44,93.36-93.32-25.47,19.09,70,8.48-8.48,0,0-6.36-23.34,93.32,25.48-25.44-93.36L452,1462.05,426.6,1368.7l93.32,25.47-25.44-93.35,93.33,25.47-25.44-93.35,93.32,25.47-25.44-93.36,93.32,25.48-25.44-93.36,93.32,25.47L766,1029.29l93.32,25.47-25.44-93.35,93.33,25.47-25.44-93.36L995.1,919l-25.44-93.36L1063,851.11l-25.44-93.35,93.32,25.47-25.44-93.35,93.33,25.47L1173.31,622l93.32,25.47-25.44-93.36,93.32,25.48-25.44-93.36,93.32,25.47-19.09-70ZM369.29,1515.1l-81.63-22.28-3.19-11.69,81.64,22.28Zm67.89-67.88-81.64-22.28-3.18-11.69L434,1435.53Zm67.88-67.88-81.63-22.28-3.19-11.69,81.63,22.28Zm67.88-67.88-81.63-22.29-3.19-11.69,81.63,22.29Zm67.88-67.89-81.63-22.28L556,1209.6l81.63,22.29Zm67.88-67.88-81.63-22.28-3.19-11.69L705.52,1164Zm67.89-67.88L695,1085.53l-3.18-11.69,81.63,22.28Zm67.88-67.88-81.63-22.29L759.65,1006l81.63,22.29Zm67.88-67.88-81.63-22.29-3.19-11.69,81.63,22.29Zm67.88-67.89L898.6,881.88l-3.19-11.69,81.64,22.28Zm67.89-67.88L966.48,814l-3.18-11.69,81.63,22.28ZM1116,768.4l-81.63-22.29-3.19-11.68,81.63,22.28Zm67.88-67.88-81.63-22.29-3.19-11.69,81.63,22.29Zm67.88-67.89-81.63-22.28-3.19-11.69,81.63,22.28Zm67.88-67.88L1238,542.47l-3.19-11.69,81.64,22.28Zm67.89-67.88-81.64-22.28-3.18-11.69,81.63,22.28Z"/><path class="cls-3" d="M1410.82,503.18l0,0,6.36,23.34-93.32-25.48,25.44,93.36L1256,569l25.44,93.35-93.32-25.47,25.44,93.35-93.33-25.47,25.44,93.35-93.32-25.47L1077.75,866l-93.32-25.48,25.44,93.36-93.32-25.47L942,1001.71l-93.32-25.47,25.44,93.35-93.33-25.47,25.44,93.36L712.9,1112l25.44,93.36L645,1179.89l25.44,93.35-93.32-25.47,25.44,93.35-93.33-25.47L534.69,1409l-93.32-25.47,25.44,93.36-93.32-25.48,25.44,93.36-93.32-25.47,19.09,70,8.48-8.48,0,0-6.36-23.34,93.32,25.48-25.44-93.36L488,1515.05,462.6,1421.7l93.32,25.47-25.44-93.35,93.33,25.47-25.44-93.35,93.32,25.47-25.44-93.36,93.32,25.48-25.44-93.36,93.32,25.47L802,1082.29l93.32,25.47-25.44-93.35,93.33,25.47-25.44-93.36L1031.1,972l-25.44-93.36L1099,904.11l-25.44-93.35,93.32,25.47-25.44-93.35,93.33,25.47L1209.31,675l93.32,25.47-25.44-93.36,93.32,25.48-25.44-93.36,93.32,25.47-19.09-70ZM405.29,1568.1l-81.63-22.28-3.19-11.69,81.64,22.28Zm67.89-67.88-81.64-22.28-3.18-11.69L470,1488.53Zm67.88-67.88-81.63-22.28-3.19-11.69,81.63,22.28Zm67.88-67.88-81.63-22.29-3.19-11.69,81.63,22.29Zm67.88-67.89-81.63-22.28L592,1262.6l81.63,22.29Zm67.88-67.88-81.63-22.28-3.19-11.69L741.52,1217Zm67.89-67.88L731,1138.53l-3.18-11.69,81.63,22.28Zm67.88-67.88-81.63-22.29L795.65,1059l81.63,22.29Zm67.88-67.88-81.63-22.29-3.19-11.69,81.63,22.29Zm67.88-67.89L934.6,934.88l-3.19-11.69,81.64,22.28Zm67.89-67.88L1002.48,867l-3.18-11.69,81.63,22.28ZM1152,821.4l-81.63-22.29-3.19-11.68,81.63,22.28Zm67.88-67.88-81.63-22.29-3.19-11.69,81.63,22.29Zm67.88-67.89-81.63-22.28-3.19-11.69,81.63,22.28Zm67.88-67.88L1274,595.47l-3.19-11.69,81.64,22.28Zm67.89-67.88-81.64-22.28-3.18-11.69,81.63,22.28Z"/><path class="cls-3" d="M1446.82,556.18l0,0,6.36,23.34-93.32-25.48,25.44,93.36L1292,622l25.44,93.35-93.32-25.47,25.44,93.35-93.33-25.47,25.44,93.35-93.32-25.47L1113.75,919l-93.32-25.48,25.44,93.36-93.32-25.47L978,1054.71l-93.32-25.47,25.44,93.35-93.33-25.47,25.44,93.36L748.9,1165l25.44,93.36L681,1232.89l25.44,93.35-93.32-25.47,25.44,93.35-93.33-25.47L570.69,1462l-93.32-25.47,25.44,93.36-93.32-25.48,25.44,93.36-93.32-25.47,19.09,70,8.48-8.48,0,0-6.36-23.34,93.32,25.48-25.44-93.36L524,1568.05,498.6,1474.7l93.32,25.47-25.44-93.35,93.33,25.47-25.44-93.35,93.32,25.47-25.44-93.36,93.32,25.48-25.44-93.36,93.32,25.47L838,1135.29l93.32,25.47-25.44-93.35,93.33,25.47-25.44-93.36L1067.1,1025l-25.44-93.36L1135,957.11l-25.44-93.35,93.32,25.47-25.44-93.35,93.33,25.47L1245.31,728l93.32,25.47-25.44-93.36,93.32,25.48-25.44-93.36,93.32,25.47-19.09-70ZM441.29,1621.1l-81.63-22.28-3.19-11.69,81.64,22.28Zm67.89-67.88-81.64-22.28-3.18-11.69L506,1541.53Zm67.88-67.88-81.63-22.28-3.19-11.69,81.63,22.28Zm67.88-67.88-81.63-22.29-3.19-11.69,81.63,22.29Zm67.88-67.89-81.63-22.28L628,1315.6l81.63,22.29Zm67.88-67.88-81.63-22.28-3.19-11.69L777.52,1270Zm67.89-67.88L767,1191.53l-3.18-11.69,81.63,22.28Zm67.88-67.88-81.63-22.29L831.65,1112l81.63,22.29Zm67.88-67.88-81.63-22.29-3.19-11.69,81.63,22.29Zm67.88-67.89L970.6,987.88l-3.19-11.69,81.64,22.28Zm67.89-67.88L1038.48,920l-3.18-11.69,81.63,22.28ZM1188,874.4l-81.63-22.29-3.19-11.68,81.63,22.28Zm67.88-67.88-81.63-22.29-3.19-11.69,81.63,22.29Zm67.88-67.89-81.63-22.28-3.19-11.69,81.63,22.28Zm67.88-67.88L1310,648.47l-3.19-11.69,81.64,22.28Zm67.89-67.88-81.64-22.28-3.18-11.69,81.63,22.28Z"/><path class="cls-3" d="M1482.82,609.18l0,0,6.36,23.34-93.32-25.48,25.44,93.36L1328,675l25.44,93.35-93.32-25.47,25.44,93.35-93.33-25.47,25.44,93.35-93.32-25.47L1149.75,972l-93.32-25.48,25.44,93.36-93.32-25.47,25.44,93.35-93.32-25.47,25.44,93.35-93.33-25.47,25.44,93.36L784.9,1218l25.44,93.36L717,1285.89l25.44,93.35-93.32-25.47,25.44,93.35-93.33-25.47L606.69,1515l-93.32-25.47,25.44,93.36-93.32-25.48,25.44,93.36-93.32-25.47,19.09,70,8.48-8.48,0,0-6.36-23.34,93.32,25.48-25.44-93.36L560,1621.05,534.6,1527.7l93.32,25.47-25.44-93.35,93.33,25.47-25.44-93.35,93.32,25.47-25.44-93.36,93.32,25.48-25.44-93.36,93.32,25.47L874,1188.29l93.32,25.47-25.44-93.35,93.33,25.47-25.44-93.36L1103.1,1078l-25.44-93.36,93.32,25.47-25.44-93.35,93.32,25.47-25.44-93.35,93.33,25.47L1281.31,781l93.32,25.47-25.44-93.36,93.32,25.48-25.44-93.36,93.32,25.47-19.09-70ZM477.29,1674.1l-81.63-22.28-3.19-11.69,81.64,22.28Zm67.89-67.88-81.64-22.28-3.18-11.69L542,1594.53Zm67.88-67.88-81.63-22.28-3.19-11.69,81.63,22.28Zm67.88-67.88-81.63-22.29-3.19-11.69,81.63,22.29Zm67.88-67.89-81.63-22.28L664,1368.6l81.63,22.29Zm67.88-67.88-81.63-22.28-3.19-11.69L813.52,1323Zm67.89-67.88L803,1244.53l-3.18-11.69,81.63,22.28Zm67.88-67.88-81.63-22.29L867.65,1165l81.63,22.29Zm67.88-67.88-81.63-22.29-3.19-11.69,81.63,22.29Zm67.88-67.89-81.63-22.28-3.19-11.69,81.64,22.28Zm67.89-67.88L1074.48,973l-3.18-11.69,81.63,22.28ZM1224,927.4l-81.63-22.29-3.19-11.68,81.63,22.28Zm67.88-67.88-81.63-22.29-3.19-11.69,81.63,22.29Zm67.88-67.89-81.63-22.28-3.19-11.69,81.63,22.28Zm67.88-67.88L1346,701.47l-3.19-11.69,81.64,22.28Zm67.89-67.88-81.64-22.28-3.18-11.69,81.63,22.28Z"/><path class="cls-3" d="M1014.82-79.82l0,0,6.36,23.34L927.84-81.94l25.44,93.36L860-14,885.4,79.3,792.08,53.83l25.44,93.35-93.33-25.47,25.44,93.35-93.32-25.47L681.75,283l-93.32-25.48,25.44,93.36-93.32-25.47L546,418.71l-93.32-25.47,25.44,93.35-93.33-25.47,25.44,93.36L316.9,529l25.44,93.36L249,596.89l25.44,93.35-93.32-25.47,25.44,93.35-93.33-25.47L138.69,826,45.37,800.53l25.44,93.36-93.32-25.48L2.93,961.77-90.39,936.3l19.09,70,8.48-8.48,0,0-6.36-23.34,93.32,25.48L-1.28,906.58,92,932.05,66.6,838.7l93.32,25.47-25.44-93.35,93.33,25.47-25.44-93.35,93.32,25.47-25.44-93.36,93.32,25.48-25.44-93.36,93.32,25.47L406,499.29l93.32,25.47-25.44-93.35,93.33,25.47-25.44-93.36L635.1,389l-25.44-93.36L703,321.11l-25.44-93.35,93.32,25.47-25.44-93.35,93.33,25.47L813.31,92l93.32,25.47L881.19,24.11l93.32,25.48L949.07-43.77l93.32,25.47-19.09-70ZM9.29,985.1l-81.63-22.28-3.19-11.69L6.11,973.41Zm67.89-67.88L-4.46,894.94l-3.18-11.69L74,905.53Zm67.88-67.88L63.43,827.06l-3.19-11.69,81.63,22.28Zm67.88-67.88-81.63-22.29-3.19-11.69,81.63,22.29Zm67.88-67.89-81.63-22.28L196,679.6l81.63,22.29Zm67.88-67.88-81.63-22.28-3.19-11.69L345.52,634Zm67.89-67.88L335,555.53l-3.18-11.69,81.63,22.28Zm67.88-67.88-81.63-22.29L399.65,476l81.63,22.29Zm67.88-67.88-81.63-22.29-3.19-11.69,81.63,22.29Zm67.88-67.89L538.6,351.88l-3.19-11.69,81.64,22.28Zm67.89-67.88L606.48,284l-3.18-11.69,81.63,22.28ZM756,238.4l-81.63-22.29-3.19-11.68,81.63,22.28Zm67.88-67.88-81.63-22.29-3.19-11.69,81.63,22.29Zm67.88-67.89L810.13,80.35l-3.19-11.69,81.63,22.28Zm67.88-67.88L878,12.47,874.82.78l81.64,22.28Zm67.89-67.88L945.89-55.41,942.71-67.1l81.63,22.28Z"/><path class="cls-3" d="M978.82-132.82l0,0,6.36,23.34-93.32-25.48,25.44,93.36L824-67,849.4,26.3,756.08.83l25.44,93.35L688.19,68.71l25.44,93.35-93.32-25.47L645.75,230l-93.32-25.48,25.44,93.36-93.32-25.47L510,365.71l-93.32-25.47,25.44,93.35-93.33-25.47,25.44,93.36L280.9,476l25.44,93.36L213,543.89l25.44,93.35-93.32-25.47,25.44,93.35L77.25,679.65,102.69,773,9.37,747.53l25.44,93.36-93.32-25.48,25.44,93.36-93.32-25.47,19.09,70,8.48-8.48,0,0-6.36-23.34,93.32,25.48-25.44-93.36L56,879.05,30.6,785.7l93.32,25.47L98.48,717.82l93.33,25.47-25.44-93.35,93.32,25.47-25.44-93.36,93.32,25.48-25.44-93.36,93.32,25.47L370,446.29l93.32,25.47-25.44-93.35,93.33,25.47-25.44-93.36L599.1,336l-25.44-93.36L667,268.11l-25.44-93.35,93.32,25.47-25.44-93.35,93.33,25.47L777.31,39l93.32,25.47L845.19-28.89,938.51-3.41,913.07-96.77l93.32,25.47-19.09-70ZM-26.71,932.1l-81.63-22.28-3.19-11.69,81.64,22.28Zm67.89-67.88-81.64-22.28-3.18-11.69L38,852.53Zm67.88-67.88L27.43,774.06l-3.19-11.69,81.63,22.28Zm67.88-67.88L95.31,706.17l-3.19-11.69,81.63,22.29Zm67.88-67.89-81.63-22.28L160,626.6l81.63,22.29Zm67.88-67.88-81.63-22.28-3.19-11.69L309.52,581Zm67.89-67.88L299,502.53l-3.18-11.69,81.63,22.28Zm67.88-67.88-81.63-22.29L363.65,423l81.63,22.29Zm67.88-67.88-81.63-22.29-3.19-11.69,81.63,22.29Zm67.88-67.89L502.6,298.88l-3.19-11.69,81.64,22.28Zm67.89-67.88L570.48,231l-3.18-11.69,81.63,22.28ZM720,185.4l-81.63-22.29-3.19-11.68,81.63,22.28Zm67.88-67.88L706.25,95.23l-3.19-11.69,81.63,22.29Zm67.88-67.89L774.13,27.35l-3.19-11.69,81.63,22.28Zm67.88-67.88L842-40.53l-3.19-11.69,81.64,22.28Zm67.89-67.88-81.64-22.28-3.18-11.69,81.63,22.28Z"/><path class="cls-3" d="M942.82-185.82l0,0,6.36,23.34-93.32-25.48,25.44,93.36L788-120,813.4-26.7,720.08-52.17l25.44,93.35L652.19,15.71l25.44,93.35L584.31,83.59,609.75,177l-93.32-25.48,25.44,93.36-93.32-25.47L474,312.71l-93.32-25.47,25.44,93.35-93.33-25.47,25.44,93.36L244.9,423l25.44,93.36L177,490.89l25.44,93.35-93.32-25.47,25.44,93.35L41.25,626.65,66.69,720l-93.32-25.47,25.44,93.36-93.32-25.48,25.44,93.36-93.32-25.47,19.09,70,8.48-8.48,0,0-6.36-23.34,93.32,25.48-25.44-93.36L20,826.05-5.4,732.7l93.32,25.47L62.48,664.82l93.33,25.47-25.44-93.35,93.32,25.47-25.44-93.36,93.32,25.48-25.44-93.36,93.32,25.47L334,393.29l93.32,25.47-25.44-93.35,93.33,25.47-25.44-93.36L563.1,283l-25.44-93.36L631,215.11l-25.44-93.35,93.32,25.47L673.42,53.88l93.33,25.47L741.31-14l93.32,25.47L809.19-81.89l93.32,25.48-25.44-93.36,93.32,25.47-19.09-70ZM-62.71,879.1l-81.63-22.28-3.19-11.69,81.64,22.28ZM5.18,811.22l-81.64-22.28-3.18-11.69L2,799.53Zm67.88-67.88L-8.57,721.06l-3.19-11.69,81.63,22.28Zm67.88-67.88L59.31,653.17l-3.19-11.69,81.63,22.29Zm67.88-67.89-81.63-22.28L124,573.6l81.63,22.29Zm67.88-67.88-81.63-22.28-3.19-11.69L273.52,528Zm67.89-67.88L263,449.53l-3.18-11.69,81.63,22.28Zm67.88-67.88-81.63-22.29L327.65,370l81.63,22.29Zm67.88-67.88-81.63-22.29-3.19-11.69,81.63,22.29Zm67.88-67.89L466.6,245.88l-3.19-11.69,81.64,22.28Zm67.89-67.88L534.48,178l-3.18-11.69,81.63,22.28ZM684,132.4l-81.63-22.29-3.19-11.68,81.63,22.28Zm67.88-67.88L670.25,42.23l-3.19-11.69,81.63,22.29ZM819.76-3.37,738.13-25.65l-3.19-11.69,81.63,22.28Zm67.88-67.88L806-93.53l-3.19-11.69,81.64,22.28Zm67.89-67.88-81.64-22.28-3.18-11.69,81.63,22.28Z"/><path class="cls-3" d="M906.82-238.82l0,0,6.36,23.34-93.32-25.48,25.44,93.36L752-173,777.4-79.7l-93.32-25.47,25.44,93.35L616.19-37.29l25.44,93.35L548.31,30.59,573.75,124,480.43,98.47l25.44,93.36-93.32-25.47L438,259.71l-93.32-25.47,25.44,93.35-93.33-25.47,25.44,93.36L208.9,370l25.44,93.36L141,437.89l25.44,93.35L73.14,505.77l25.44,93.35L5.25,573.65,30.69,667l-93.32-25.47,25.44,93.36-93.32-25.48,25.44,93.36-93.32-25.47,19.09,70,8.48-8.48,0,0-6.36-23.34,93.32,25.48-25.44-93.36L-16,773.05-41.4,679.7l93.32,25.47L26.48,611.82l93.33,25.47L94.37,543.94l93.32,25.47-25.44-93.36,93.32,25.48-25.44-93.36,93.32,25.47L298,340.29l93.32,25.47-25.44-93.35,93.33,25.47-25.44-93.36L527.1,230l-25.44-93.36L595,162.11,569.54,68.76l93.32,25.47L637.42.88l93.33,25.47L705.31-67l93.32,25.47-25.44-93.36,93.32,25.48-25.44-93.36,93.32,25.47-19.09-70ZM-98.71,826.1l-81.63-22.28-3.19-11.69,81.64,22.28Zm67.89-67.88-81.64-22.28-3.18-11.69L-34,746.53Zm67.88-67.88-81.63-22.28-3.19-11.69,81.63,22.28Zm67.88-67.88L23.31,600.17l-3.19-11.69,81.63,22.29Zm67.88-67.89L91.19,532.29,88,520.6l81.63,22.29Zm67.88-67.88-81.63-22.28-3.19-11.69L237.52,475Zm67.89-67.88L227,396.53l-3.18-11.69,81.63,22.28Zm67.88-67.88-81.63-22.29L291.65,317l81.63,22.29Zm67.88-67.88-81.63-22.29-3.19-11.69,81.63,22.29Zm67.88-67.89L430.6,192.88l-3.19-11.69,81.64,22.28Zm67.89-67.88L498.48,125l-3.18-11.69,81.63,22.28ZM648,79.4,566.37,57.11l-3.19-11.68,81.63,22.28Zm67.88-67.88L634.25-10.77l-3.19-11.69L712.69-.17Zm67.88-67.89L702.13-78.65l-3.19-11.69,81.63,22.28Zm67.88-67.88L770-146.53l-3.19-11.69,81.64,22.28Zm67.89-67.88-81.64-22.28-3.18-11.69,81.63,22.28Z"/><path class="cls-3" d="M870.82-291.82l0,0,6.36,23.34-93.32-25.48,25.44,93.36L716-226,741.4-132.7l-93.32-25.47,25.44,93.35L580.19-90.29,605.63,3.06,512.31-22.41,537.75,71,444.43,45.47l25.44,93.36-93.32-25.47L402,206.71l-93.32-25.47,25.44,93.35-93.33-25.47,25.44,93.36L172.9,317l25.44,93.36L105,384.89l25.44,93.35L37.14,452.77l25.44,93.35-93.33-25.47L-5.31,614l-93.32-25.47,25.44,93.36-93.32-25.48,25.44,93.36-93.32-25.47,19.09,70,8.48-8.48,0,0-6.36-23.34,93.32,25.48-25.44-93.36L-52,720.05-77.4,626.7l93.32,25.47L-9.52,558.82l93.33,25.47L58.37,490.94l93.32,25.47-25.44-93.36,93.32,25.48-25.44-93.36,93.32,25.47L262,287.29l93.32,25.47-25.44-93.35,93.33,25.47-25.44-93.36L491.1,177,465.66,83.64,559,109.11,533.54,15.76l93.32,25.47L601.42-52.12l93.33,25.47L669.31-120l93.32,25.47-25.44-93.36,93.32,25.48-25.44-93.36,93.32,25.47-19.09-70ZM-134.71,773.1l-81.63-22.28-3.19-11.69,81.64,22.28Zm67.89-67.88-81.64-22.28-3.18-11.69L-70,693.53ZM1.06,637.34l-81.63-22.28-3.19-11.69,81.63,22.28Zm67.88-67.88-81.63-22.29-3.19-11.69,81.63,22.29Zm67.88-67.89L55.19,479.29,52,467.6l81.63,22.29Zm67.88-67.88-81.63-22.28-3.19-11.69L201.52,422Zm67.89-67.88L191,343.53l-3.18-11.69,81.63,22.28Zm67.88-67.88-81.63-22.29L255.65,264l81.63,22.29Zm67.88-67.88-81.63-22.29-3.19-11.69,81.63,22.29Zm67.88-67.89L394.6,139.88l-3.19-11.69,81.64,22.28Zm67.89-67.88L462.48,72,459.3,60.31l81.63,22.28ZM612,26.4,530.37,4.11,527.18-7.57l81.63,22.28Zm67.88-67.88L598.25-63.77l-3.19-11.69,81.63,22.29Zm67.88-67.89-81.63-22.28-3.19-11.69,81.63,22.28Zm67.88-67.88L734-199.53l-3.19-11.69,81.64,22.28Zm67.89-67.88-81.64-22.28-3.18-11.69,81.63,22.28Z"/><path class="cls-3" d="M834.82-344.82l0,0,6.36,23.34-93.32-25.48,25.44,93.36L680-279,705.4-185.7l-93.32-25.47,25.44,93.35-93.33-25.47,25.44,93.35L476.31-75.41,501.75,18,408.43-7.53l25.44,93.36L340.55,60.36,366,153.71l-93.32-25.47,25.44,93.35-93.33-25.47,25.44,93.36L136.9,264l25.44,93.36L69,331.89l25.44,93.35L1.14,399.77l25.44,93.35-93.33-25.47L-41.31,561l-93.32-25.47,25.44,93.36-93.32-25.48,25.44,93.36-93.32-25.47,19.09,70,8.48-8.48,0,0-6.36-23.34,93.32,25.48-25.44-93.36L-88,667.05-113.4,573.7l93.32,25.47-25.44-93.35,93.33,25.47L22.37,437.94l93.32,25.47L90.25,370.05l93.32,25.48-25.44-93.36,93.32,25.47L226,234.29l93.32,25.47-25.44-93.35,93.33,25.47L361.78,98.52,455.1,124,429.66,30.64,523,56.11,497.54-37.24l93.32,25.47-25.44-93.35,93.33,25.47L633.31-173l93.32,25.47-25.44-93.36,93.32,25.48-25.44-93.36,93.32,25.47-19.09-70ZM-170.71,720.1l-81.63-22.28-3.19-11.69,81.64,22.28Zm67.89-67.88-81.64-22.28-3.18-11.69L-106,640.53Zm67.88-67.88-81.63-22.28-3.19-11.69,81.63,22.28Zm67.88-67.88-81.63-22.29-3.19-11.69,81.63,22.29Zm67.88-67.89L19.19,426.29,16,414.6l81.63,22.29Zm67.88-67.88L87.07,358.41l-3.19-11.69L165.52,369Zm67.89-67.88L155,290.53l-3.18-11.69,81.63,22.28Zm67.88-67.88-81.63-22.29L219.65,211l81.63,22.29Zm67.88-67.88-81.63-22.29-3.19-11.69,81.63,22.29Zm67.88-67.89L358.6,86.88l-3.19-11.69,81.64,22.28Zm67.89-67.88L426.48,19,423.3,7.31l81.63,22.28ZM576-26.6,494.37-48.89l-3.19-11.68,81.63,22.28Zm67.88-67.88-81.63-22.29-3.19-11.69,81.63,22.29Zm67.88-67.89-81.63-22.28-3.19-11.69,81.63,22.28Zm67.88-67.88L698-252.53l-3.19-11.69,81.64,22.28Zm67.89-67.88-81.64-22.28-3.18-11.69,81.63,22.28Z"/><path class="cls-3" d="M798.82-397.82l0,0,6.36,23.34-93.32-25.48,25.44,93.36L644-332,669.4-238.7l-93.32-25.47,25.44,93.35-93.33-25.47,25.44,93.35-93.32-25.47L465.75-35,372.43-60.53l25.44,93.36L304.55,7.36,330,100.71,236.67,75.24l25.44,93.35-93.33-25.47,25.44,93.36L100.9,211l25.44,93.36L33,278.89l25.44,93.35-93.32-25.47,25.44,93.35-93.33-25.47L-77.31,508l-93.32-25.47,25.44,93.36-93.32-25.48,25.44,93.36-93.32-25.47,19.09,70,8.48-8.48,0,0-6.36-23.34,93.32,25.48-25.44-93.36L-124,614.05-149.4,520.7l93.32,25.47-25.44-93.35,93.33,25.47-25.44-93.35,93.32,25.47L54.25,317.05l93.32,25.48-25.44-93.36,93.32,25.47L190,181.29l93.32,25.47-25.44-93.35,93.33,25.47L325.78,45.52,419.1,71,393.66-22.36,487,3.11,461.54-90.24l93.32,25.47-25.44-93.35,93.33,25.47L597.31-226l93.32,25.47-25.44-93.36,93.32,25.48-25.44-93.36,93.32,25.47-19.09-70ZM-206.71,667.1l-81.63-22.28-3.19-11.69,81.64,22.28Zm67.89-67.88-81.64-22.28-3.18-11.69L-142,587.53Zm67.88-67.88-81.63-22.28-3.19-11.69,81.63,22.28Zm67.88-67.88-81.63-22.29-3.19-11.69,81.63,22.29Zm67.88-67.89-81.63-22.28L-20,361.6l81.63,22.29Zm67.88-67.88L51.07,305.41l-3.19-11.69L129.52,316Zm67.89-67.88L119,237.53l-3.18-11.69,81.63,22.28Zm67.88-67.88-81.63-22.29L183.65,158l81.63,22.29Zm67.88-67.88-81.63-22.29-3.19-11.69,81.63,22.29Zm67.88-67.89L322.6,33.88l-3.19-11.69,81.64,22.28Zm67.89-67.88L390.48-34,387.3-45.69l81.63,22.28ZM540-79.6l-81.63-22.29-3.19-11.68,81.63,22.28Zm67.88-67.88-81.63-22.29-3.19-11.69,81.63,22.29Zm67.88-67.89-81.63-22.28-3.19-11.69,81.63,22.28Zm67.88-67.88L662-305.53l-3.19-11.69,81.64,22.28Zm67.89-67.88-81.64-22.28-3.18-11.69,81.63,22.28Z"/><path class="cls-3" d="M762.82-450.82l0,0,6.36,23.34-93.32-25.48,25.44,93.36L608-385,633.4-291.7l-93.32-25.47,25.44,93.35-93.33-25.47,25.44,93.35-93.32-25.47L429.75-88l-93.32-25.48,25.44,93.36L268.55-45.64,294,47.71,200.67,22.24l25.44,93.35L132.78,90.12l25.44,93.36L64.9,158l25.44,93.36L-3,225.89l25.44,93.35-93.32-25.47,25.44,93.35-93.33-25.47L-113.31,455l-93.32-25.47,25.44,93.36-93.32-25.48,25.44,93.36-93.32-25.47,19.09,70,8.48-8.48,0,0-6.36-23.34,93.32,25.48-25.44-93.36L-160,561.05-185.4,467.7l93.32,25.47-25.44-93.35,93.33,25.47-25.44-93.35,93.32,25.47L18.25,264.05l93.32,25.48L86.13,196.17l93.32,25.47L154,128.29l93.32,25.47L221.89,60.41l93.33,25.47L289.78-7.48,383.1,18,357.66-75.36,451-49.89l-25.44-93.35,93.32,25.47-25.44-93.35,93.33,25.47L561.31-279l93.32,25.47-25.44-93.36,93.32,25.48-25.44-93.36,93.32,25.47-19.09-70ZM-242.71,614.1l-81.63-22.28-3.19-11.69,81.64,22.28Zm67.89-67.88-81.64-22.28-3.18-11.69L-178,534.53Zm67.88-67.88-81.63-22.28-3.19-11.69,81.63,22.28Zm67.88-67.88-81.63-22.29-3.19-11.69,81.63,22.29Zm67.88-67.89-81.63-22.28L-56,308.6l81.63,22.29ZM96.7,274.69,15.07,252.41l-3.19-11.69L93.52,263Zm67.89-67.88L83,184.53l-3.18-11.69,81.63,22.28Zm67.88-67.88-81.63-22.29L147.65,105l81.63,22.29Zm67.88-67.88L218.72,48.76l-3.19-11.69,81.63,22.29ZM368.23,3.16,286.6-19.12l-3.19-11.69L365.05-8.53Zm67.89-67.88L354.48-87,351.3-98.69l81.63,22.28ZM504-132.6l-81.63-22.29-3.19-11.68,81.63,22.28Zm67.88-67.88-81.63-22.29-3.19-11.69,81.63,22.29Zm67.88-67.89-81.63-22.28-3.19-11.69,81.63,22.28Zm67.88-67.88L626-358.53l-3.19-11.69,81.64,22.28Zm67.89-67.88-81.64-22.28-3.18-11.69,81.63,22.28Z"/><path class="cls-3" d="M726.82-503.82l0,0,6.36,23.34-93.32-25.48,25.44,93.36L572-438,597.4-344.7l-93.32-25.47,25.44,93.35-93.33-25.47,25.44,93.35-93.32-25.47L393.75-141l-93.32-25.48,25.44,93.36L232.55-98.64,258-5.29,164.67-30.76l25.44,93.35L96.78,37.12l25.44,93.36L28.9,105l25.44,93.36L-39,172.89l25.44,93.35-93.32-25.47,25.44,93.35-93.33-25.47L-149.31,402l-93.32-25.47,25.44,93.36-93.32-25.48,25.44,93.36-93.32-25.47,19.09,70,8.48-8.48,0,0-6.36-23.34,93.32,25.48-25.44-93.36L-196,508.05-221.4,414.7l93.32,25.47-25.44-93.35,93.33,25.47-25.44-93.35L7.69,304.41l-25.44-93.36,93.32,25.48L50.13,143.17l93.32,25.47L118,75.29l93.32,25.47L185.89,7.41l93.33,25.47L253.78-60.48,347.1-35l-25.44-93.36L415-102.89l-25.44-93.35,93.32,25.47-25.44-93.35,93.33,25.47L525.31-332l93.32,25.47-25.44-93.36,93.32,25.48-25.44-93.36,93.32,25.47-19.09-70ZM-278.71,561.1l-81.63-22.28-3.19-11.69,81.64,22.28Zm67.89-67.88-81.64-22.28-3.18-11.69L-214,481.53Zm67.88-67.88-81.63-22.28-3.19-11.69,81.63,22.28Zm67.88-67.88-81.63-22.29-3.19-11.69,81.63,22.29Zm67.88-67.89-81.63-22.28L-92,255.6l81.63,22.29ZM60.7,221.69l-81.63-22.28-3.19-11.69L57.52,210Zm67.89-67.88L47,131.53l-3.18-11.69,81.63,22.28Zm67.88-67.88L114.84,63.64,111.65,52l81.63,22.29Zm67.88-67.88L182.72-4.24l-3.19-11.69L261.16,6.36Zm67.88-67.89L250.6-72.12l-3.19-11.69,81.64,22.28Zm67.89-67.88L318.48-140l-3.18-11.69,81.63,22.28ZM468-185.6l-81.63-22.29-3.19-11.68,81.63,22.28Zm67.88-67.88-81.63-22.29-3.19-11.69,81.63,22.29Zm67.88-67.89-81.63-22.28-3.19-11.69,81.63,22.28Zm67.88-67.88L590-411.53l-3.19-11.69,81.64,22.28Zm67.89-67.88-81.64-22.28-3.18-11.69,81.63,22.28Z"/><path class="cls-3" d="M690.82-556.82l0,0,6.36,23.34-93.32-25.48,25.44,93.36L536-491,561.4-397.7l-93.32-25.47,25.44,93.35-93.33-25.47,25.44,93.35-93.32-25.47L357.75-194l-93.32-25.48,25.44,93.36-93.32-25.47L222-58.29,128.67-83.76,154.11,9.59,60.78-15.88,86.22,77.48-7.1,52l25.44,93.36L-75,119.89l25.44,93.35-93.32-25.47,25.44,93.35-93.33-25.47L-185.31,349l-93.32-25.47,25.44,93.36-93.32-25.48,25.44,93.36-93.32-25.47,19.09,70,8.48-8.48,0,0-6.36-23.34,93.32,25.48-25.44-93.36L-232,455.05-257.4,361.7l93.32,25.47-25.44-93.35,93.33,25.47-25.44-93.35,93.32,25.47-25.44-93.36,93.32,25.48L14.13,90.17l93.32,25.47L82,22.29l93.32,25.47L149.89-45.59l93.33,25.47-25.44-93.36L311.1-88l-25.44-93.36L379-155.89l-25.44-93.35,93.32,25.47-25.44-93.35,93.33,25.47L489.31-385l93.32,25.47-25.44-93.36,93.32,25.48-25.44-93.36,93.32,25.47-19.09-70ZM-314.71,508.1l-81.63-22.28-3.19-11.69,81.64,22.28Zm67.89-67.88-81.64-22.28-3.18-11.69L-250,428.53Zm67.88-67.88-81.63-22.28-3.19-11.69,81.63,22.28Zm67.88-67.88-81.63-22.29-3.19-11.69,81.63,22.29Zm67.88-67.89-81.63-22.28L-128,202.6l81.63,22.29ZM24.7,168.69l-81.63-22.28-3.19-11.69L21.52,157Zm67.89-67.88L11,78.53,7.77,66.84,89.4,89.12Zm67.88-67.88L78.84,10.64,75.65-1l81.63,22.29Zm67.88-67.88L146.72-57.24l-3.19-11.69,81.63,22.29Zm67.88-67.89L214.6-125.12l-3.19-11.69,81.64,22.28Zm67.89-67.88L282.48-193l-3.18-11.69,81.63,22.28ZM432-238.6l-81.63-22.29-3.19-11.68,81.63,22.28Zm67.88-67.88-81.63-22.29-3.19-11.69,81.63,22.29Zm67.88-67.89-81.63-22.28-3.19-11.69,81.63,22.28Zm67.88-67.88L554-464.53l-3.19-11.69,81.64,22.28Zm67.89-67.88-81.64-22.28-3.18-11.69,81.63,22.28Z"/><path class="cls-3" d="M654.82-609.82l0,0,6.36,23.34-93.32-25.48,25.44,93.36L500-544,525.4-450.7l-93.32-25.47,25.44,93.35-93.33-25.47,25.44,93.35-93.32-25.47L321.75-247l-93.32-25.48,25.44,93.36-93.32-25.47L186-111.29,92.67-136.76l25.44,93.35L24.78-68.88,50.22,24.48-43.1-1l25.44,93.36L-111,66.89l25.44,93.35-93.32-25.47,25.44,93.35-93.33-25.47L-221.31,296l-93.32-25.47,25.44,93.36-93.32-25.48,25.44,93.36-93.32-25.47,19.09,70,8.48-8.48,0,0-6.36-23.34,93.32,25.48-25.44-93.36L-268,402.05-293.4,308.7l93.32,25.47-25.44-93.35,93.33,25.47-25.44-93.35,93.32,25.47-25.44-93.36L3.57,130.53-21.87,37.17,71.45,62.64,46-30.71,139.33-5.24,113.89-98.59l93.33,25.47-25.44-93.36L275.1-141l-25.44-93.36L343-208.89l-25.44-93.35,93.32,25.47-25.44-93.35,93.33,25.47L453.31-438l93.32,25.47-25.44-93.36,93.32,25.48-25.44-93.36,93.32,25.47-19.09-70ZM-350.71,455.1l-81.63-22.28-3.19-11.69,81.64,22.28Zm67.89-67.88-81.64-22.28-3.18-11.69L-286,375.53Zm67.88-67.88-81.63-22.28-3.19-11.69,81.63,22.28Zm67.88-67.88-81.63-22.29-3.19-11.69,81.63,22.29Zm67.88-67.89-81.63-22.28L-164,149.6l81.63,22.29Zm67.88-67.88L-92.93,93.41l-3.19-11.69L-14.48,104ZM56.59,47.81-25,25.53l-3.18-11.69L53.4,36.12Zm67.88-67.88L42.84-42.36,39.65-54l81.63,22.29Zm67.88-67.88-81.63-22.29-3.19-11.69,81.63,22.29Zm67.88-67.89L178.6-178.12l-3.19-11.69,81.64,22.28Zm67.89-67.88L246.48-246l-3.18-11.69,81.63,22.28ZM396-291.6l-81.63-22.29-3.19-11.68,81.63,22.28Zm67.88-67.88-81.63-22.29-3.19-11.69,81.63,22.29Zm67.88-67.89-81.63-22.28-3.19-11.69,81.63,22.28Zm67.88-67.88L518-517.53l-3.19-11.69,81.64,22.28Zm67.89-67.88-81.64-22.28-3.18-11.69,81.63,22.28Z"/><path class="cls-3" d="M618.82-662.82l0,0,6.36,23.34-93.32-25.48,25.44,93.36L464-597,489.4-503.7l-93.32-25.47,25.44,93.35-93.33-25.47,25.44,93.35-93.32-25.47L285.75-300l-93.32-25.48,25.44,93.36-93.32-25.47L150-164.29,56.67-189.76,82.11-96.41l-93.33-25.47L14.22-28.52-79.1-54l25.44,93.36L-147,13.89l25.44,93.35-93.32-25.47,25.44,93.35-93.33-25.47L-257.31,243l-93.32-25.47,25.44,93.36-93.32-25.48,25.44,93.36-93.32-25.47,19.09,70,8.48-8.48,0,0-6.36-23.34,93.32,25.48-25.44-93.36L-304,349.05-329.4,255.7l93.32,25.47-25.44-93.35,93.33,25.47-25.44-93.35,93.32,25.47-25.44-93.36,93.32,25.48L-57.87-15.83,35.45,9.64,10-83.71l93.32,25.47L77.89-151.59l93.33,25.47-25.44-93.36L239.1-194l-25.44-93.36L307-261.89l-25.44-93.35,93.32,25.47-25.44-93.35,93.33,25.47L417.31-491l93.32,25.47-25.44-93.36,93.32,25.48-25.44-93.36,93.32,25.47-19.09-70ZM-386.71,402.1l-81.63-22.28-3.19-11.69,81.64,22.28Zm67.89-67.88-81.64-22.28-3.18-11.69L-322,322.53Zm67.88-67.88-81.63-22.28-3.19-11.69,81.63,22.28Zm67.88-67.88-81.63-22.29-3.19-11.69,81.63,22.29Zm67.88-67.89-81.63-22.28L-200,96.6l81.63,22.29ZM-47.3,62.69l-81.63-22.28-3.19-11.69L-50.48,51ZM20.59-5.19-61-27.47l-3.18-11.69L17.4-16.88ZM88.47-73.07,6.84-95.36,3.65-107,85.28-84.76Zm67.88-67.88L74.72-163.24l-3.19-11.69,81.63,22.29Zm67.88-67.89L142.6-231.12l-3.19-11.69,81.64,22.28Zm67.89-67.88L210.48-299l-3.18-11.69,81.63,22.28ZM360-344.6l-81.63-22.29-3.19-11.68,81.63,22.28Zm67.88-67.88-81.63-22.29-3.19-11.69,81.63,22.29Zm67.88-67.89-81.63-22.28-3.19-11.69,81.63,22.28Zm67.88-67.88L482-570.53l-3.19-11.69,81.64,22.28Zm67.89-67.88-81.64-22.28-3.18-11.69,81.63,22.28Z"/></g></svg>