<svg width="17" height="25" viewBox="0 0 17 25" fill="none" xmlns="http://www.w3.org/2000/svg">
<path d="M3 24C1.89544 24 1 23.1046 1 22V3C1 1.89544 1.89544 1 3 1H14C15.1046 1 16 1.89544 16 3V22C16 23.1046 15.1046 24 14 24H3Z" stroke="#F0F6FA" stroke-linecap="round" stroke-linejoin="round"/>
<path d="M16 20H1" stroke="#F0F6FA" stroke-linecap="round" stroke-linejoin="round"/>
<path d="M6 3H11" stroke="#F0F6FA" stroke-linecap="round" stroke-linejoin="round"/>
<path d="M8.5 21.5V21.5C8.63807 21.5 8.75 21.6119 8.75 21.75C8.75 21.8881 8.63807 22 8.5 22C8.36193 22 8.25 21.8881 8.25 21.75V21.75C8.25 21.6119 8.36193 21.5 8.5 21.5C8.5 21.5 8.5 21.5 8.5 21.5" stroke="#20222C" stroke-linecap="round" stroke-linejoin="round"/>
</svg>
