<svg width="19" height="25" viewBox="0 0 19 25" fill="none" xmlns="http://www.w3.org/2000/svg">
<path d="M3 24C1.89544 24 1 23.1046 1 22V3C1 1.89544 1.89544 1 3 1H16C17.1046 1 18 1.89544 18 3V22C18 23.1046 17.1046 24 16 24H3Z" stroke="#F0F6FA" stroke-linecap="round" stroke-linejoin="round"/>
<path d="M18 20H1" stroke="#F0F6FA" stroke-linecap="round" stroke-linejoin="round"/>
<path d="M18 5H1" stroke="#F0F6FA" stroke-linecap="round" stroke-linejoin="round"/>
<path d="M9.5 21.5V21.5C9.63807 21.5 9.75 21.6119 9.75 21.75C9.75 21.8881 9.63807 22 9.5 22V22C9.36193 22 9.25 21.8881 9.25 21.75V21.75C9.25 21.6119 9.36193 21.5 9.5 21.5" stroke="#F0F6FA" stroke-linecap="round" stroke-linejoin="round"/>
<path d="M9.5 3V3C9.63807 3 9.75 3.11193 9.75 3.25V3.25C9.75 3.38807 9.63807 3.5 9.5 3.5C9.5 3.5 9.5 3.5 9.5 3.5V3.5C9.36193 3.5 9.25 3.38807 9.25 3.25V3.25C9.25 3.11193 9.36193 3 9.5 3" stroke="#F0F6FA" stroke-linecap="round" stroke-linejoin="round"/>
</svg>
