<svg width="18" height="18" viewBox="0 0 18 18" fill="none" xmlns="http://www.w3.org/2000/svg">
<path d="M11.8125 1.3125L10.9943 3.4935L8.8125 4.3125L10.9943 5.13L11.8125 7.3125L12.6307 5.13L14.8125 4.3125L12.6307 3.4935L11.8125 1.3125" stroke="#20222C" stroke-linecap="round" stroke-linejoin="round"/>
<path d="M15.5625 7.3125L15.1538 8.403L14.0625 8.8125L15.1538 9.22125L15.5625 10.3125L15.9713 9.22125L17.0625 8.8125L15.9713 8.403L15.5625 7.3125Z" stroke="#20222C" stroke-linecap="round" stroke-linejoin="round"/>
<path d="M13.3125 12.1875V12.1875C9.79167 12.188 6.93711 9.33416 6.93664 5.81334C6.93656 5.17908 7.03113 4.54835 7.21723 3.942V3.942C3.6968 3.99388 0.884979 6.88982 0.936864 10.4102C0.988746 13.9307 3.88468 16.7425 7.40511 16.6906C10.1722 16.6498 12.597 14.8285 13.407 12.1823C13.3755 12.183 13.3447 12.1875 13.3125 12.1875H13.3125Z" stroke="#20222C" stroke-linecap="round" stroke-linejoin="round"/>
</svg>
