<svg width="18" height="18" viewBox="0 0 18 18" fill="none" xmlns="http://www.w3.org/2000/svg">
<path d="M9.00001 1.03125C4.26151 1.03125 0.405762 4.20825 0.405762 8.11275L0.405762 8.11274C0.434383 10.0119 1.30176 11.801 2.775 12.9997L1.06201 16.425C0.968814 16.61 1.04319 16.8354 1.22815 16.9286C1.2806 16.9551 1.33853 16.9688 1.39726 16.9688H1.39726C1.45192 16.9684 1.50589 16.9564 1.55551 16.9335L6.15001 14.7953C7.07661 15.0611 8.03603 15.1952 9.00001 15.1935C13.7385 15.1935 17.5943 12.0165 17.5943 8.11275C17.5943 4.209 13.7385 1.03125 9.00001 1.03125V1.03125ZM5.21926 9.28125C4.59794 9.28125 4.09426 8.77757 4.09426 8.15625C4.09426 7.53493 4.59794 7.03125 5.21926 7.03125C5.84058 7.03125 6.34426 7.53493 6.34426 8.15625C6.34426 8.77757 5.84058 9.28125 5.21926 9.28125ZM9.00001 7.03125C9.62133 7.03125 10.125 7.53493 10.125 8.15625C10.125 8.77757 9.62133 9.28125 9.00001 9.28125C8.37869 9.28125 7.87501 8.77757 7.87501 8.15625C7.87501 7.53493 8.37869 7.03125 9.00001 7.03125ZM12.75 9.28125C12.1287 9.28125 11.625 8.77757 11.625 8.15625C11.625 7.53493 12.1287 7.03125 12.75 7.03125C13.3713 7.03125 13.875 7.53493 13.875 8.15625C13.875 8.77757 13.3713 9.28125 12.75 9.28125Z" fill="#F0F6FA"/>
</svg>
