<svg width="41" height="40" viewBox="0 0 41 40" fill="none" xmlns="http://www.w3.org/2000/svg">
<path fill-rule="evenodd" clip-rule="evenodd" d="M0.5 20C0.5 31.0457 9.4543 40 20.5 40C31.5457 40 40.5 31.0457 40.5 20C40.5 8.9543 31.5457 0 20.5 0C9.4543 0 0.5 8.9543 0.5 20ZM37.6429 20C37.6429 29.4677 29.9678 37.1429 20.5 37.1429C11.0323 37.1429 3.35718 29.4677 3.35718 20C3.35718 10.5323 11.0323 2.85715 20.5 2.85715C29.9678 2.85715 37.6429 10.5323 37.6429 20Z" fill="#F0F6FA"/>
<path fill-rule="evenodd" clip-rule="evenodd" d="M20.0001 9L19.6083 9.70866L18.5013 11.7117L15.4263 17.276L14.7473 18.5044L9.8881 27.2973L9.5 28H10.2797H12.5373H12.7986L12.9289 27.7644L16.2702 21.7185L19.6219 27.7649L19.7522 28H20.0133H22.2709H23.0518L22.662 27.297L17.9189 18.7348L19.9999 14.9693L27.0708 27.7644L27.2011 28H27.4627H29.7201H30.5L30.1116 27.2973L20.3915 9.70866L20.0001 9Z" fill="#F0F6FA"/>
</svg>
