<svg width="24" height="24" viewBox="0 0 24 24" fill="none" xmlns="http://www.w3.org/2000/svg">
<path d="M20.1318 3.86827C24.6228 8.3593 24.6228 15.6407 20.1318 20.1318C15.6407 24.6228 8.35937 24.6228 3.86827 20.1318C-0.622757 15.6407 -0.622757 8.35937 3.86827 3.86827C8.3593 -0.622757 15.6407 -0.622757 20.1318 3.86827" stroke="#F0F6FA" stroke-linecap="round" stroke-linejoin="round"/>
<path d="M6.51807 1.88721L6.51807 1.88721C12.4968 6.42228 16.0061 13.496 16.0001 21.0002C16.0001 21.6102 15.9777 22.2135 15.9331 22.8102" stroke="#F0F6FA" stroke-linecap="round" stroke-linejoin="round"/>
<path d="M20.5849 4.34912V4.34912C16.1231 8.62505 10.1798 11.0085 3.99986 11.0001H3.99986C2.85158 10.9998 1.70474 10.9186 0.567871 10.7571" stroke="#F0F6FA" stroke-linecap="round" stroke-linejoin="round"/>
<path d="M3.05908 19.2308V19.2308C7.52441 14.9244 13.4886 12.522 19.6921 12.5308H19.6921C20.9568 12.5379 22.2197 12.6301 23.4721 12.8068" stroke="#F0F6FA" stroke-linecap="round" stroke-linejoin="round"/>
</svg>
