<svg width="24" height="24" viewBox="0 0 24 24" fill="none" xmlns="http://www.w3.org/2000/svg">
<path d="M6.5 22.5H1.5V9.5H6.5V22.5ZM15.5 13.5V13.5C14.3954 13.5 13.5 14.3954 13.5 15.5V22.5H8.5V9.5H13.5V10.985V10.985C14.6163 10.0389 16.0268 9.51038 17.49 9.49C20.452 9.49 22.5 11.69 22.5 15.845V22.5H17.5V15.5V15.5C17.5 14.3954 16.6046 13.5 15.5 13.5V13.5ZM6.5 5C6.5 6.38071 5.38071 7.5 4 7.5C2.61929 7.5 1.5 6.38071 1.5 5C1.5 3.61929 2.61929 2.5 4 2.5V2.5C5.38071 2.5 6.5 3.61929 6.5 5V5V5Z" stroke="#F0F6FA" stroke-linecap="round" stroke-linejoin="round"/>
</svg>
