<svg width="24" height="24" viewBox="0 0 24 24" fill="none" xmlns="http://www.w3.org/2000/svg">
<g clip-path="url(#clip0)">
<path d="M12.0001 0.500005V0.500005C5.64879 0.494015 0.495163 5.63789 0.489263 11.9891C0.484586 16.9479 3.659 21.3512 8.3651 22.914C8.9391 23.014 9.1211 22.677 9.1211 22.373C9.1211 22.098 9.1271 21.336 9.1211 20.373C5.9211 21.067 5.2601 18.858 5.2601 18.858V18.858C5.04913 18.163 4.59654 17.5664 3.9841 17.176C2.9401 16.462 4.0621 16.476 4.0621 16.476V16.476C4.80077 16.5774 5.45113 17.0144 5.8241 17.66V17.66C6.47455 18.8452 7.96267 19.2788 9.14792 18.6283C9.15534 18.6243 9.16273 18.6202 9.17011 18.616V18.616C9.22316 18.0347 9.48203 17.4914 9.90011 17.084C7.34711 16.792 4.66211 15.806 4.66211 11.398V11.398C4.6459 10.2553 5.07025 9.15018 5.84712 8.31199V8.31199C5.49509 7.32048 5.53516 6.23194 5.95912 5.26899C5.95912 5.26899 6.92612 4.95999 9.12112 6.44899V6.44899C11.0063 5.93168 12.996 5.93168 14.8811 6.44899C17.0811 4.96099 18.0401 5.26899 18.0401 5.26899V5.26899C18.4642 6.2318 18.505 7.32015 18.1541 8.31199V8.31199C18.9312 9.15072 19.3549 10.2568 19.3371 11.4C19.3371 15.82 16.6481 16.791 14.0861 17.074V17.074C14.6429 17.6335 14.9299 18.4067 14.8731 19.194V22.378C14.8731 22.685 15.0591 23.025 15.6431 22.914V22.914C21.6707 20.9125 24.9345 14.4035 22.933 8.3759C21.3693 3.66698 16.9618 0.491894 12.0001 0.500044L12.0001 0.500005Z" stroke="#F0F6FA" stroke-linecap="round" stroke-linejoin="round"/>
</g>
<defs>
<clipPath id="clip0">
<rect width="24" height="24" fill="white"/>
</clipPath>
</defs>
</svg>
