<svg width="24" height="24" viewBox="0 0 24 24" fill="none" xmlns="http://www.w3.org/2000/svg">
<path d="M23 6.62824L21 6.12824L22 4.12824L19.536 4.82824V4.82824C17.7268 3.14042 14.892 3.2388 13.2041 5.04798C12.4246 5.88357 11.9938 6.98549 12 8.12825V9.12825C8.461 9.85825 5.366 7.92825 2.5 4.62825C2 7.29492 2.5 9.29492 4 10.6282L1 10.1282C1.405 12.1972 2.362 13.8282 5 14.1282L2.5 15.1282C3.5 17.1282 5.066 17.4382 7.5 17.6282V17.6282C5.60692 18.9809 3.32603 19.6827 1 19.6282C13.755 25.2972 21 16.9642 21 9.62825V8.30025L23 6.62824Z" stroke="#F0F6FA" stroke-linecap="round" stroke-linejoin="round"/>
</svg>
